# Blender 5.1.2
# www.blender.org
mtllib horiz.mtl
o Куб.003
v -0.364419 1.368135 -2.277627
v 0.100000 1.607007 -1.286817
v 0.111958 1.605830 -1.286817
v -0.332562 1.493975 -2.309484
v -0.364419 1.368135 -2.871931
v 0.123457 1.602342 -1.286817
v -0.332562 1.493975 -2.840074
v 0.134055 1.596677 -1.286817
v 0.564419 1.368135 -2.277627
v 0.143343 1.589054 -1.286817
v 0.532562 1.493975 -2.309484
v 0.150966 1.579765 -1.286817
v 0.564419 1.368135 -2.871931
v 0.156631 1.569168 -1.286817
v 0.532562 1.493975 -2.840074
v 0.160119 1.557669 -1.286817
v -0.364419 1.493975 -2.277627
v 0.161296 1.545711 -1.286817
v -0.364419 1.493975 -2.871931
v 0.160119 1.533753 -1.286817
v 0.564419 1.493975 -2.871931
v 0.156631 1.522254 -1.286817
v 0.564419 1.493975 -2.277627
v 0.150966 1.511656 -1.286817
v -0.332562 1.582858 -2.309484
v 0.143343 1.502368 -1.286817
v -0.332562 1.582858 -2.840074
v 0.134055 1.494745 -1.286817
v 0.123457 1.489080 -1.286817
v 0.532562 1.582858 -2.840074
v 0.532562 1.582858 -2.309484
v 0.111958 1.485592 -1.286817
v 0.494849 1.493975 -2.871931
v 0.100000 1.484414 -1.286817
v -0.294849 1.493975 -2.871931
v 0.088042 1.485592 -1.286817
v 0.076543 1.489080 -1.286817
v -0.294849 1.368135 -2.871931
v 0.065946 1.494745 -1.286817
v 0.494849 1.368135 -2.871931
v 0.056657 1.502368 -1.286817
v 0.319582 1.368135 -2.547233
v 0.251250 1.368135 -2.510709
v 0.049034 1.511656 -1.286817
v 0.428627 1.368135 -2.656278
v 0.043369 1.522254 -1.286817
v 0.039881 1.533753 -1.286817
v 0.487642 1.368135 -2.798753
v 0.379474 1.368135 -2.596385
v 0.038704 1.545711 -1.286817
v 0.039881 1.557669 -1.286817
v 0.465151 1.368135 -2.724609
v 0.043369 1.569168 -1.286817
v -0.287642 1.368135 -2.798753
v 0.049034 1.579765 -1.286817
v -0.179474 1.368135 -2.596385
v -0.228627 1.368135 -2.656278
v 0.056657 1.589054 -1.286817
v -0.265151 1.368135 -2.724609
v 0.065946 1.596677 -1.286817
v -0.051250 1.368135 -2.510709
v 0.076543 1.602342 -1.286817
v 0.100000 1.368135 -2.480623
v 0.088042 1.605830 -1.286817
v 0.177107 1.368135 -2.488218
v 0.100000 1.607007 -2.219145
v 0.111958 1.605830 -2.219145
v 0.022893 1.368135 -2.488218
v -0.119581 1.368135 -2.547233
v 0.491712 1.493975 -2.840074
v 0.123457 1.602341 -2.219145
v -0.291712 1.493975 -2.840074
v -0.291712 1.582858 -2.840074
v 0.134055 1.596677 -2.219145
v 0.491712 1.582858 -2.840074
v -0.287642 1.582858 -2.798753
v 0.143343 1.589054 -2.219145
v -0.228627 1.582858 -2.656278
v -0.179474 1.582858 -2.596385
v 0.150966 1.579765 -2.219145
v -0.265151 1.582858 -2.724609
v -0.051250 1.582858 -2.510709
v 0.156631 1.569168 -2.219145
v -0.119581 1.582858 -2.547233
v 0.100000 1.582858 -2.480623
v 0.160119 1.557669 -2.219145
v 0.022893 1.582858 -2.488218
v 0.177107 1.582858 -2.488218
v 0.251250 1.582858 -2.510709
v 0.161296 1.545711 -2.219145
v 0.428627 1.582858 -2.656278
v 0.160119 1.533753 -2.219145
v 0.379474 1.582858 -2.596385
v 0.465151 1.582858 -2.724609
v 0.487642 1.582858 -2.798753
v 0.156631 1.522254 -2.219145
v 0.319582 1.582858 -2.547233
v 0.150966 1.511656 -2.219145
v 0.143343 1.502368 -2.219145
v 0.134055 1.494745 -2.219145
v 0.123457 1.489080 -2.219145
v 0.111958 1.485592 -2.219145
v 0.100000 1.484414 -2.219145
v 0.088042 1.485592 -2.219145
v 0.076543 1.489080 -2.219145
v 0.065946 1.494745 -2.219145
v 0.056657 1.502368 -2.219145
v 0.049034 1.511656 -2.219145
v 0.043369 1.522254 -2.219145
v 0.039881 1.533753 -2.219145
v 0.038704 1.545711 -2.219145
v 0.039881 1.557669 -2.219145
v 0.043369 1.569168 -2.219145
v 0.049034 1.579765 -2.219145
v 0.056657 1.589054 -2.219145
v 0.065946 1.596677 -2.219145
v 0.076543 1.602341 -2.219145
v 0.088042 1.605830 -2.219145
v 0.100000 1.624507 -2.219145
v 0.115373 1.622993 -2.219145
v 0.130154 1.618509 -2.219145
v 0.143777 1.611227 -2.219145
v 0.155717 1.601428 -2.219145
v 0.165516 1.589488 -2.219145
v 0.172798 1.575865 -2.219145
v 0.177282 1.561083 -2.219145
v 0.178796 1.545711 -2.219145
v 0.177282 1.530339 -2.219145
v 0.172798 1.515557 -2.219145
v 0.165516 1.501934 -2.219145
v 0.155717 1.489994 -2.219145
v 0.143777 1.480195 -2.219145
v 0.130154 1.472913 -2.219145
v 0.115373 1.468429 -2.219145
v 0.100000 1.466915 -2.219145
v 0.084628 1.468429 -2.219145
v 0.069846 1.472913 -2.219145
v 0.056224 1.480195 -2.219145
v 0.044283 1.489994 -2.219145
v 0.034484 1.501934 -2.219145
v 0.027203 1.515557 -2.219145
v 0.022719 1.530339 -2.219145
v 0.021205 1.545711 -2.219145
v 0.022719 1.561083 -2.219145
v 0.027203 1.575865 -2.219145
v 0.034484 1.589488 -2.219145
v 0.044283 1.601428 -2.219145
v 0.056224 1.611227 -2.219145
v 0.069846 1.618509 -2.219145
v 0.084628 1.622993 -2.219145
v 0.100000 1.624507 -2.336337
v 0.115373 1.622993 -2.336337
v 0.130154 1.618509 -2.336337
v 0.143777 1.611227 -2.336337
v 0.155717 1.601428 -2.336337
v 0.165516 1.589488 -2.336337
v 0.034484 1.589488 -2.336337
v 0.044283 1.601428 -2.336337
v 0.056224 1.611227 -2.336337
v 0.069846 1.618509 -2.336337
v 0.084628 1.622993 -2.336337
v 0.056224 1.480195 -2.277627
v 0.044283 1.489994 -2.277627
v 0.041016 1.493975 -2.277627
v 0.100000 1.466915 -2.277627
v 0.084628 1.468429 -2.277627
v 0.069846 1.472913 -2.277627
v 0.143777 1.480195 -2.277627
v 0.155717 1.489994 -2.277627
v 0.158984 1.493975 -2.277627
v 0.115373 1.468429 -2.277627
v 0.130154 1.472913 -2.277627
v 0.158984 1.493975 -2.309484
v 0.041016 1.493975 -2.309484
v 0.030941 1.582858 -2.309484
v 0.030941 1.582858 -2.336337
v 0.169060 1.582858 -2.336337
v 0.169060 1.582858 -2.309484
v 0.027203 1.515557 -2.309484
v 0.022719 1.530339 -2.309484
v 0.034484 1.501934 -2.309484
v 0.178796 1.545711 -2.309484
v 0.165516 1.501934 -2.309484
v 0.172798 1.515557 -2.309484
v 0.177282 1.530339 -2.309484
v 0.021205 1.545711 -2.309484
v 0.022719 1.561083 -2.309484
v 0.027203 1.575865 -2.309484
v 0.172798 1.575865 -2.309484
v 0.177282 1.561083 -2.309484
vn -1.0000 -0.0000 -0.0000
vn -0.0000 -0.0000 -1.0000
vn 1.0000 -0.0000 -0.0000
vn -0.0000 -0.0000 1.0000
vn -0.0000 -1.0000 -0.0000
vn -0.0000 1.0000 -0.0000
vn -0.9952 -0.0000 -0.0980
vn -0.9569 -0.0000 -0.2903
vn -0.8819 -0.0000 -0.4714
vn -0.7730 -0.0000 -0.6344
vn -0.6344 -0.0000 -0.7730
vn -0.4714 -0.0000 -0.8819
vn -0.2903 -0.0000 -0.9569
vn -0.0980 -0.0000 -0.9952
vn 0.0980 -0.0000 -0.9952
vn 0.2903 -0.0000 -0.9569
vn 0.4714 -0.0000 -0.8819
vn 0.6344 -0.0000 -0.7730
vn 0.7730 -0.0000 -0.6344
vn 0.8819 -0.0000 -0.4714
vn 0.9569 -0.0000 -0.2903
vn 0.9952 -0.0000 -0.0980
vn 0.0980 0.9952 -0.0000
vn 0.2903 0.9569 -0.0000
vn 0.4714 0.8819 -0.0000
vn 0.6344 0.7730 -0.0000
vn 0.7730 0.6344 -0.0000
vn 0.8819 0.4714 -0.0000
vn 0.9569 0.2903 -0.0000
vn 0.9952 0.0980 -0.0000
vn 0.9952 -0.0980 -0.0000
vn 0.9569 -0.2903 -0.0000
vn 0.8819 -0.4714 -0.0000
vn 0.7730 -0.6344 -0.0000
vn 0.6344 -0.7730 -0.0000
vn 0.4714 -0.8819 -0.0000
vn 0.2903 -0.9569 -0.0000
vn 0.0980 -0.9952 -0.0000
vn -0.0980 -0.9952 -0.0000
vn -0.2903 -0.9569 -0.0000
vn -0.4714 -0.8819 -0.0000
vn -0.6344 -0.7730 -0.0000
vn -0.7730 -0.6344 -0.0000
vn -0.8819 -0.4714 -0.0000
vn -0.9569 -0.2903 -0.0000
vn -0.9952 -0.0980 -0.0000
vn -0.9952 0.0980 -0.0000
vn -0.9569 0.2903 -0.0000
vn -0.8819 0.4714 -0.0000
vn -0.7730 0.6344 -0.0000
vn -0.6344 0.7730 -0.0000
vn -0.4714 0.8819 -0.0000
vn -0.2903 0.9569 -0.0000
vn -0.0980 0.9952 -0.0000
vt 0.375000 0.000000
vt 0.625000 0.000000
vt 0.625000 0.250000
vt 0.375000 0.250000
vt 0.625000 0.500000
vt 0.375000 0.500000
vt 0.375000 0.481275
vt 0.625000 0.481275
vt 0.625000 0.268725
vt 0.375000 0.268725
vt 0.625000 0.750000
vt 0.375000 0.750000
vt 0.625000 0.890876
vt 0.625000 1.000000
vt 0.375000 1.000000
vt 0.625000 0.859124
vt 0.617092 0.860003
vt 0.597624 0.863217
vt 0.583158 0.866884
vt 0.574250 0.870862
vt 0.571242 0.875000
vt 0.574250 0.879137
vt 0.583158 0.883116
vt 0.597624 0.886783
vt 0.617092 0.889996
vt 0.356275 0.500000
vt 0.125000 0.750000
vt 0.125000 0.500000
vt 0.143725 0.500000
vt 0.145665 0.530783
vt 0.151718 0.561972
vt 0.161549 0.590717
vt 0.174779 0.615911
vt 0.190899 0.636588
vt 0.209290 0.651952
vt 0.229246 0.661413
vt 0.250000 0.664608
vt 0.270754 0.661413
vt 0.290710 0.651952
vt 0.309101 0.636588
vt 0.325221 0.615911
vt 0.338451 0.590717
vt 0.348282 0.561972
vt 0.354335 0.530783
vt 0.866426 0.513401
vt 0.855431 0.513401
vt 0.644569 0.513401
vt 0.633574 0.513401
vt 0.644569 0.513401
vt 0.866426 0.736599
vt 0.875000 0.500000
vt 0.875000 0.750000
vt 0.643725 0.500000
vt 0.856275 0.500000
vt 0.633575 0.736599
vt 0.734124 0.736599
vt 0.734124 0.750000
vt 0.765876 0.750000
vt 0.765876 0.736599
vt 0.854335 0.530783
vt 0.768588 0.736599
vt 0.768588 0.725303
vt 0.731412 0.725303
vt 0.731412 0.736599
vt 0.645665 0.530783
vt 0.651718 0.561973
vt 0.661549 0.590717
vt 0.674779 0.615911
vt 0.690899 0.636588
vt 0.709291 0.651952
vt 0.729246 0.661413
vt 0.750000 0.664608
vt 0.770754 0.661413
vt 0.790710 0.651952
vt 0.809101 0.636588
vt 0.825222 0.615911
vt 0.838451 0.590717
vt 0.848282 0.561972
vt 0.730406 0.736599
vt 0.729199 0.736599
vt 0.728792 0.736599
vt 0.729199 0.736599
vt 0.730406 0.736599
vt 0.732366 0.736599
vt 0.767634 0.736599
vt 0.769594 0.736599
vt 0.770801 0.736599
vt 0.771208 0.736599
vt 0.770801 0.736599
vt 0.718750 0.846021
vt 0.735497 0.846021
vt 0.735497 0.789799
vt 0.748408 0.789799
vt 0.748408 0.710201
vt 0.718750 0.710201
vt 0.687500 0.710201
vt 0.687500 0.846021
vt 0.656250 0.710201
vt 0.656250 0.846021
vt 0.625000 0.710201
vt 0.625000 0.846021
vt 0.593750 0.710201
vt 0.593750 0.846021
vt 0.562500 0.710201
vt 0.562500 0.846021
vt 0.531250 0.710201
vt 0.531250 0.846021
vt 0.500000 0.710201
vt 0.500000 0.846021
vt 0.468750 0.710201
vt 0.468750 0.846021
vt 0.437500 0.710201
vt 0.437500 0.846021
vt 0.406250 0.710201
vt 0.406250 0.846021
vt 0.375000 0.710201
vt 0.375000 0.846021
vt 0.343750 0.710201
vt 0.343750 0.846021
vt 0.312500 0.710201
vt 0.312500 0.846021
vt 0.281250 0.710201
vt 0.281250 0.846021
vt 0.264503 0.789799
vt 0.264503 0.846021
vt 0.251592 0.710201
vt 0.251592 0.789799
vt 0.158156 0.028269
vt 0.203178 0.014612
vt 0.250000 0.490000
vt 0.296822 0.485388
vt 0.341844 0.471731
vt 0.383337 0.449553
vt 0.419706 0.419706
vt 0.449553 0.383337
vt 0.471731 0.341844
vt 0.485388 0.296822
vt 0.490000 0.250000
vt 0.116663 0.050447
vt 0.080294 0.080294
vt 0.050447 0.116663
vt 0.028269 0.158156
vt 0.014612 0.203178
vt 0.010000 0.250000
vt 1.000000 0.500000
vt 1.000000 1.000000
vt 0.968750 1.000000
vt 0.968750 0.500000
vt 0.937500 1.000000
vt 0.937500 0.500000
vt 0.906250 1.000000
vt 0.906250 0.500000
vt 0.875000 1.000000
vt 0.843750 1.000000
vt 0.843750 0.500000
vt 0.812500 1.000000
vt 0.812500 0.500000
vt 0.781250 1.000000
vt 0.781250 0.500000
vt 0.750000 1.000000
vt 0.750000 0.500000
vt 0.718750 1.000000
vt 0.718750 0.500000
vt 0.687500 1.000000
vt 0.687500 0.500000
vt 0.656250 1.000000
vt 0.656250 0.500000
vt 0.593750 1.000000
vt 0.593750 0.500000
vt 0.562500 1.000000
vt 0.562500 0.500000
vt 0.531250 1.000000
vt 0.531250 0.500000
vt 0.500000 1.000000
vt 0.500000 0.500000
vt 0.468750 1.000000
vt 0.468750 0.500000
vt 0.437500 1.000000
vt 0.437500 0.500000
vt 0.406250 1.000000
vt 0.406250 0.500000
vt 0.343750 1.000000
vt 0.343750 0.500000
vt 0.312500 1.000000
vt 0.312500 0.500000
vt 0.281250 1.000000
vt 0.281250 0.500000
vt 0.250000 1.000000
vt 0.250000 0.500000
vt 0.218750 1.000000
vt 0.218750 0.500000
vt 0.187500 1.000000
vt 0.187500 0.500000
vt 0.156250 1.000000
vt 0.156250 0.500000
vt 0.125000 1.000000
vt 0.093750 1.000000
vt 0.093750 0.500000
vt 0.062500 1.000000
vt 0.062500 0.500000
vt 0.383337 0.050447
vt 0.419706 0.080294
vt 0.449553 0.116663
vt 0.471731 0.158156
vt 0.485388 0.203178
vt 0.203178 0.485388
vt 0.158156 0.471731
vt 0.116663 0.449553
vt 0.080294 0.419706
vt 0.050447 0.383337
vt 0.028269 0.341844
vt 0.014612 0.296822
vt 0.031250 1.000000
vt 0.031250 0.500000
vt 0.000000 1.000000
vt 0.000000 0.500000
vt 0.828543 0.500000
vt 0.328543 0.500000
vt 0.828543 0.500000
vt 0.750000 0.500000
vt 0.635418 0.500000
vt 0.635418 0.500000
vt 0.364582 0.500000
vt 0.364582 0.500000
vt 0.171457 0.500000
vt 0.171457 0.500000
s 0
f 1/1/1 17/2/1 19/3/1 5/4/1
f 21/5/2 13/6/2 40/7/2 33/8/2
f 5/4/2 19/3/2 35/9/2 38/10/2
f 13/6/3 21/5/3 23/11/3 9/12/3
f 164/13/4 17/14/4 1/15/4 9/12/4 23/11/4 170/16/4 169/17/4 168/18/4 172/19/4 171/20/4 165/21/4 166/22/4 167/23/4 162/24/4 163/25/4
f 40/26/5 13/6/5 9/12/5 1/27/5 5/28/5 38/29/5 54/30/5 59/31/5 57/32/5 56/33/5 69/34/5 61/35/5 68/36/5 63/37/5 65/38/5 43/39/5 42/40/5 49/41/5 45/42/5 52/43/5 48/44/5
f 7/45/2 27/45/2 73/46/2 72/46/2
f 75/47/2 30/48/2 15/48/2 70/49/2
f 4/50/6 7/45/6 19/51/6 17/52/6
f 70/49/6 15/48/6 21/5/6 33/53/6
f 19/51/6 7/45/6 72/46/6 35/54/6
f 15/48/6 11/55/6 23/11/6 21/5/6
f 23/11/6 11/55/6 173/56/6 170/57/6
f 4/50/6 17/52/6 164/58/6 174/59/6
f 76/60/6 73/46/6 27/45/6 25/50/6 175/61/6 176/62/6 177/63/6 178/64/6 31/55/6 30/48/6 75/47/6 95/65/6 94/66/6 91/67/6 93/68/6 97/69/6 89/70/6 88/71/6 85/72/6 87/73/6 82/74/6 84/75/6 79/76/6 78/77/6 81/78/6
f 11/55/3 15/48/3 30/48/3 31/55/3
f 7/45/1 4/50/1 25/50/1 27/45/1
f 173/56/4 11/55/4 31/55/4 178/64/4 189/79/4 190/80/4 182/81/4 185/82/4 184/83/4 183/84/4
f 175/61/4 25/50/4 4/50/4 174/59/4 181/85/4 179/86/4 180/87/4 186/88/4 187/89/4 188/86/4
f 95/90/7 75/91/7 70/92/7 33/93/7 40/94/7 48/95/7
f 48/95/8 52/96/8 94/97/8 95/90/8
f 52/96/9 45/98/9 91/99/9 94/97/9
f 45/98/10 49/100/10 93/101/10 91/99/10
f 49/100/11 42/102/11 97/103/11 93/101/11
f 42/102/12 43/104/12 89/105/12 97/103/12
f 43/104/13 65/106/13 88/107/13 89/105/13
f 65/106/14 63/108/14 85/109/14 88/107/14
f 63/108/15 68/110/15 87/111/15 85/109/15
f 68/110/16 61/112/16 82/113/16 87/111/16
f 61/112/17 69/114/17 84/115/17 82/113/17
f 69/114/18 56/116/18 79/117/18 84/115/18
f 79/117/19 56/116/19 57/118/19 78/119/19
f 78/119/20 57/118/20 59/120/20 81/121/20
f 81/121/21 59/120/21 54/122/21 76/123/21
f 72/124/22 73/125/22 76/123/22 54/122/22 38/126/22 35/127/22
f 62/128/2 64/129/2 2/130/2 3/131/2 6/132/2 8/133/2 10/134/2 12/135/2 14/136/2 16/137/2 18/138/2 20/137/2 22/136/2 24/135/2 26/134/2 28/133/2 29/132/2 32/131/2 34/130/2 36/129/2 37/128/2 39/139/2 41/140/2 44/141/2 46/142/2 47/143/2 50/144/2 51/143/2 53/142/2 55/141/2 58/140/2 60/139/2
f 66/145/23 2/146/23 3/147/23 67/148/23
f 67/148/24 3/147/24 6/149/24 71/150/24
f 71/150/25 6/149/25 8/151/25 74/152/25
f 74/152/26 8/151/26 10/153/26 77/51/26
f 77/51/27 10/153/27 12/154/27 80/155/27
f 80/155/28 12/154/28 14/156/28 83/157/28
f 83/157/29 14/156/29 16/158/29 86/159/29
f 86/159/30 16/158/30 18/160/30 90/161/30
f 90/161/31 18/160/31 20/162/31 92/163/31
f 92/163/32 20/162/32 22/164/32 96/165/32
f 96/165/33 22/164/33 24/166/33 98/167/33
f 98/167/34 24/166/34 26/14/34 99/5/34
f 99/5/35 26/14/35 28/168/35 100/169/35
f 100/169/36 28/168/36 29/170/36 101/171/36
f 101/171/37 29/170/37 32/172/37 102/173/37
f 102/173/38 32/172/38 34/174/38 103/175/38
f 103/175/39 34/174/39 36/176/39 104/177/39
f 104/177/40 36/176/40 37/178/40 105/179/40
f 105/179/41 37/178/41 39/180/41 106/181/41
f 106/181/42 39/180/42 41/15/42 107/6/42
f 107/6/43 41/15/43 44/182/43 108/183/43
f 108/183/44 44/182/44 46/184/44 109/185/44
f 109/185/45 46/184/45 47/186/45 110/187/45
f 110/187/46 47/186/46 50/188/46 111/189/46
f 111/189/47 50/188/47 51/190/47 112/191/47
f 112/191/48 51/190/48 53/192/48 113/193/48
f 113/193/49 53/192/49 55/194/49 114/195/49
f 114/195/50 55/194/50 58/196/50 115/28/50
f 115/28/51 58/196/51 60/197/51 116/198/51
f 116/198/52 60/197/52 62/199/52 117/200/52
f 34/130/4 32/131/4 29/132/4 28/201/4 26/202/4 24/203/4 22/204/4 20/205/4 18/138/4 16/205/4 14/204/4 12/203/4 10/202/4 8/201/4 6/132/4 3/131/4 2/130/4 64/206/4 62/207/4 60/208/4 58/209/4 55/210/4 53/211/4 51/212/4 50/144/4 47/212/4 46/211/4 44/210/4 41/209/4 39/208/4 37/207/4 36/206/4
f 117/200/53 62/199/53 64/213/53 118/214/53
f 118/214/54 64/213/54 2/215/54 66/216/54
f 71/150/2 121/150/2 122/152/2 74/152/2
f 98/167/2 130/167/2 131/5/2 99/5/2
f 107/6/2 139/6/2 140/183/2 108/183/2
f 116/198/2 148/198/2 149/200/2 117/200/2
f 74/152/2 122/152/2 123/51/2 77/51/2
f 99/5/2 131/5/2 132/169/2 100/169/2
f 108/183/2 140/183/2 141/185/2 109/185/2
f 117/200/2 149/200/2 150/214/2 118/214/2
f 77/51/2 123/51/2 124/155/2 80/155/2
f 100/169/2 132/169/2 133/171/2 101/171/2
f 109/185/2 141/185/2 142/187/2 110/187/2
f 118/214/2 150/214/2 119/216/2 66/216/2
f 80/155/2 124/155/2 125/157/2 83/157/2
f 101/171/2 133/171/2 134/173/2 102/173/2
f 110/187/2 142/187/2 143/189/2 111/189/2
f 83/157/2 125/157/2 126/159/2 86/159/2
f 102/173/2 134/173/2 135/175/2 103/175/2
f 111/189/2 143/189/2 144/189/2 112/191/2
f 86/159/2 126/159/2 127/161/2 90/161/2
f 103/175/2 135/175/2 136/177/2 104/177/2
f 112/191/2 144/191/2 145/193/2 113/193/2
f 90/161/2 127/161/2 128/161/2 92/163/2
f 104/177/2 136/177/2 137/179/2 105/179/2
f 66/145/2 119/145/2 120/148/2 67/148/2
f 113/193/2 145/193/2 146/195/2 114/195/2
f 92/163/2 128/163/2 129/165/2 96/165/2
f 105/179/2 137/179/2 138/181/2 106/181/2
f 114/195/2 146/195/2 147/28/2 115/28/2
f 67/148/2 120/148/2 121/150/2 71/150/2
f 96/165/2 129/165/2 130/167/2 98/167/2
f 106/181/2 138/181/2 139/6/2 107/6/2
f 115/28/2 147/28/2 148/198/2 116/198/2
f 161/214/2 151/216/2 152/148/2 153/150/2 154/152/2 155/51/2 156/155/2 177/217/2 176/218/2 157/183/2 158/6/2 159/181/2 160/179/2
f 123/51/26 155/51/26 154/152/26 122/152/26
f 124/155/27 156/155/27 155/51/27 123/51/27
f 177/217/28 156/155/28 124/155/28 125/157/28 189/157/28 178/219/28
f 189/157/29 125/157/29 126/159/29 190/159/29
f 190/159/30 126/159/30 127/161/30 182/220/30
f 182/220/31 127/161/31 128/163/31 185/163/31
f 185/163/32 128/163/32 129/165/32 184/165/32
f 184/165/33 129/165/33 130/167/33 183/167/33
f 183/167/34 130/167/34 131/5/34 169/5/34 170/221/34 173/222/34
f 169/5/35 131/5/35 132/169/35 168/169/35
f 168/169/36 132/169/36 133/171/36 172/171/36
f 172/171/37 133/171/37 134/173/37 171/173/37
f 134/173/38 135/175/38 165/175/38 171/173/38
f 135/175/39 136/177/39 166/177/39 165/175/39
f 166/177/40 136/177/40 137/179/40 167/179/40
f 167/179/41 137/179/41 138/181/41 162/181/41
f 162/181/42 138/181/42 139/6/42 163/6/42
f 164/223/43 163/6/43 139/6/43 140/183/43 181/183/43 174/224/43
f 181/183/44 140/183/44 141/185/44 179/185/44
f 179/185/45 141/185/45 142/187/45 180/187/45
f 142/187/46 143/189/46 186/189/46 180/187/46
f 186/189/47 143/189/47 144/191/47 187/191/47
f 187/191/48 144/191/48 145/193/48 188/193/48
f 188/193/49 145/193/49 146/195/49 157/195/49 176/225/49 175/226/49
f 147/28/50 158/28/50 157/195/50 146/195/50
f 148/198/51 159/198/51 158/28/51 147/28/51
f 149/200/52 160/200/52 159/198/52 148/198/52
f 150/214/53 161/214/53 160/200/53 149/200/53
f 119/145/54 151/216/54 161/214/54 150/214/54
f 120/148/23 152/148/23 151/216/23 119/145/23
f 121/150/24 153/150/24 152/148/24 120/148/24
f 122/152/25 154/152/25 153/150/25 121/150/25
