# Blender 5.1.2
# www.blender.org
mtllib osnova.mtl
o Куб
v 0.096044 0.005624 1.050299
v -0.777293 -0.437549 0.896845
v -0.777293 -0.346006 0.896845
v -0.242299 0.339768 0.103240
v 0.120881 0.008071 1.050299
v -0.522012 0.602357 0.453465
v -0.777293 -0.437549 -0.597860
v 0.144764 0.015315 1.050299
v -0.777293 -0.346006 -0.597860
v -0.522012 0.602357 0.261754
v 0.166774 0.027080 1.050299
v 0.604410 -0.437549 0.896845
v 0.604410 -0.346006 0.896845
v 0.186065 0.042912 1.050299
v -0.330301 0.602357 0.453465
v 0.201898 0.062204 1.050299
v 0.604410 -0.437549 -0.597860
v 0.604410 -0.346006 -0.597860
v -0.330301 0.602357 0.261754
v 0.213663 0.084215 1.050299
v -0.777293 -0.437549 0.629327
v 0.220907 0.108097 1.050299
v -0.777293 -0.437549 -0.330342
v -0.777293 -0.346006 -0.330342
v -0.777293 -0.346006 0.629327
v 0.223354 0.132934 1.050299
v 0.604410 -0.437549 -0.330342
v 0.604410 -0.437549 0.629327
v 0.220907 0.157771 1.050299
v 0.604410 -0.346006 0.629327
v -0.164690 -0.161211 0.197807
v 0.213663 0.181653 1.050299
v 0.604410 -0.346006 -0.330342
v -0.164690 0.339768 0.197807
v 0.201898 0.203663 1.050299
v -0.777293 -0.307826 0.601319
v 0.186065 0.222955 1.050299
v -0.169193 -0.161211 0.212651
v -0.777293 -0.307826 -0.302334
v -0.169193 0.339768 0.212651
v 0.166774 0.238788 1.050299
v -0.176505 -0.161211 0.226332
v 0.604410 -0.307826 -0.302334
v 0.144764 0.250552 1.050299
v 0.604410 -0.307826 0.601319
v 0.120881 0.257797 1.050299
v -0.176505 0.339768 0.226332
v 0.604410 -0.399369 0.601319
v -0.186346 -0.161211 0.238323
v 0.096044 0.260243 1.050299
v -0.186346 0.339768 0.238323
v 0.071207 0.257797 1.050299
v 0.604410 -0.399369 -0.302334
v -0.198337 -0.161211 0.248164
v -0.777293 -0.399369 -0.302334
v 0.047325 0.250552 1.050299
v -0.777293 -0.399369 0.601319
v 0.025315 0.238788 1.050299
v -0.198337 0.339768 0.248164
v -0.212018 -0.161211 0.255476
v 0.006023 0.222955 1.050299
v -0.601820 -0.437549 -0.597860
v -0.212018 0.339768 0.255476
v 0.428938 -0.437549 -0.597860
v -0.009810 0.203663 1.050299
v 0.428938 -0.346006 -0.597860
v -0.226862 -0.161211 0.259979
v -0.021574 0.181653 1.050299
v -0.601820 -0.346006 -0.597860
v -0.226862 0.339768 0.259979
v -0.028819 0.157771 1.050299
v 0.428938 -0.437549 0.896845
v -0.242299 -0.161211 0.261499
v -0.031265 0.132934 1.050299
v -0.601820 -0.437549 0.896845
v -0.242299 0.339768 0.261499
v -0.028819 0.108097 1.050299
v -0.601820 -0.346006 0.896845
v -0.021574 0.084215 1.050299
v -0.257737 -0.161211 0.259979
v 0.428938 -0.346006 0.896845
v -0.009810 0.062204 1.050299
v -0.257737 0.339768 0.259979
v -0.601820 -0.346006 0.629327
v 0.006023 0.042912 1.050299
v -0.272581 -0.161211 0.255476
v 0.428938 -0.346006 0.629327
v 0.025315 0.027080 1.050299
v -0.272581 0.339768 0.255476
v -0.286262 -0.161211 0.248164
v 0.428938 -0.346006 -0.330342
v 0.047325 0.015315 1.050299
v -0.286262 0.339768 0.248164
v 0.071207 0.008071 1.050299
v -0.601820 -0.346006 -0.330342
v 0.428938 -0.437549 0.629327
v -0.298253 -0.161211 0.238323
v 0.096044 0.005624 0.930106
v 0.120881 0.008071 0.930106
v -0.601820 -0.437549 0.629327
v -0.298253 0.339768 0.238323
v 0.144764 0.015315 0.930106
v -0.601820 -0.437549 -0.330342
v 0.166774 0.027080 0.930106
v -0.308093 -0.161211 0.226332
v 0.186065 0.042912 0.930106
v -0.308093 0.339768 0.226332
v 0.201898 0.062204 0.930106
v 0.428938 -0.437549 -0.330342
v 0.213663 0.084215 0.930106
v -0.315406 -0.161211 0.212651
v 0.220907 0.108097 0.930106
v 0.223354 0.132934 0.930106
v 0.428938 -0.399369 -0.302334
v -0.315406 0.339768 0.212651
v 0.220907 0.157771 0.930106
v -0.601820 -0.399369 -0.302334
v 0.213663 0.181653 0.930106
v -0.319909 -0.161211 0.197807
v 0.201898 0.203663 0.930106
v 0.186065 0.222955 0.930106
v -0.601820 -0.399369 0.601319
v 0.166774 0.238788 0.930106
v 0.428938 -0.399369 0.601319
v -0.319909 0.339768 0.197807
v 0.144764 0.250552 0.930106
v -0.321429 -0.161211 0.182370
v 0.120881 0.257797 0.930106
v 0.096044 0.260243 0.930106
v -0.601820 -0.307826 -0.302334
v -0.321429 0.339768 0.182370
v 0.071207 0.257797 0.930106
v 0.047325 0.250552 0.930106
v 0.428938 -0.307826 -0.302334
v 0.428938 -0.307826 0.601319
v 0.025315 0.238788 0.930106
v 0.006023 0.222955 0.930106
v -0.319909 -0.161211 0.166932
v -0.009810 0.203663 0.930106
v -0.601820 -0.307826 0.601319
v -0.319909 0.339768 0.166932
v -0.021574 0.181653 0.930106
v -0.028819 0.157771 0.930106
v -0.315406 -0.161211 0.152088
v -0.031265 0.132934 0.930106
v -0.569553 -0.399369 -0.302334
v -0.315406 0.339768 0.152088
v -0.028819 0.108097 0.930106
v 0.396670 -0.399369 -0.302334
v -0.021574 0.084215 0.930106
v -0.009810 0.062204 0.930106
v -0.308093 -0.161211 0.138407
v 0.006023 0.042912 0.930106
v 0.396670 -0.399369 -0.330342
v 0.025315 0.027080 0.930106
v -0.308093 0.339768 0.138407
v 0.047325 0.015315 0.930106
v -0.569553 -0.399369 -0.330342
v 0.071207 0.008071 0.930106
v -0.298253 -0.161211 0.126416
v 0.120881 0.008071 1.034718
v -0.569553 -0.399369 0.629327
v 0.396670 -0.399369 0.629327
v 0.144764 0.015315 1.034718
v 0.166774 0.027080 1.034718
v -0.298253 0.339768 0.126416
v 0.186065 0.042912 1.034718
v -0.286262 -0.161211 0.116575
v 0.396670 -0.399369 0.601319
v 0.201898 0.062204 1.034718
v -0.569553 -0.399369 0.601319
v 0.213663 0.084215 1.034718
v 0.220907 0.108097 1.034718
v -0.286262 0.339768 0.116575
v 0.396670 -0.307826 -0.302334
v 0.223354 0.132934 1.034718
v 0.220907 0.157771 1.034718
v -0.272581 -0.161211 0.109263
v -0.272581 0.339768 0.109263
v 0.213663 0.181653 1.034718
v -0.569553 -0.307826 -0.302334
v 0.201898 0.203663 1.034718
v 0.186065 0.222955 1.034718
v -0.569553 -0.307826 -0.330342
v 0.396670 -0.307826 -0.330342
v 0.166774 0.238788 1.034718
v 0.144764 0.250552 1.034718
v -0.257737 0.339768 0.104760
v 0.120881 0.257797 1.034718
v 0.396670 -0.307826 0.629327
v 0.096044 0.260243 1.034718
v -0.242299 0.372901 0.086628
v -0.569553 -0.307826 0.629327
v 0.071207 0.257797 1.034718
v -0.569553 -0.307826 0.601319
v 0.047325 0.250552 1.034718
v 0.025315 0.238788 1.034718
v 0.396670 -0.307826 0.601319
v 0.006023 0.222955 1.034718
v 0.396670 -0.307826 0.896845
v -0.009810 0.203663 1.034718
v -0.569553 -0.307826 0.896845
v -0.569553 -0.307826 -0.597860
v -0.021574 0.181653 1.034718
v -0.028819 0.157771 1.034718
v 0.396670 -0.307826 -0.597860
v -0.031265 0.132934 1.034718
v -0.569553 -0.399369 0.896845
v -0.148397 0.372901 0.201048
v -0.028819 0.108097 1.034718
v -0.021574 0.084215 1.034718
v 0.396670 -0.399369 0.896845
v -0.153846 0.372901 0.219008
v -0.009810 0.062204 1.034718
v 0.006023 0.042912 1.034718
v 0.396670 -0.399369 -0.597860
v 0.025315 0.027080 1.034718
v -0.569553 -0.399369 -0.597860
v 0.047325 0.015315 1.034718
v -0.162693 0.372901 0.235561
v 0.071207 0.008071 1.034718
v -0.268557 -0.399369 -0.597860
v -0.174600 0.372901 0.250069
v 0.096044 0.005624 1.034718
v -0.189108 0.372901 0.261976
v 0.096044 0.005624 0.583826
v 0.120881 0.008071 0.583826
v -0.268557 -0.307826 -0.597860
v 0.144764 0.015315 0.583826
v -0.205661 0.372901 0.270823
v 0.166774 0.027080 0.583826
v -0.268557 -0.399369 0.896845
v 0.186065 0.042912 0.583826
v -0.223621 0.372901 0.276272
v 0.201898 0.062204 0.583826
v -0.268557 -0.307826 0.896845
v 0.213663 0.084215 0.583826
v -0.268557 -0.399369 -0.330342
v 0.220907 0.108097 0.583826
v -0.242299 0.372901 0.278111
v 0.223354 0.132934 0.583826
v -0.268557 -0.399369 0.629327
v 0.220907 0.157771 0.583826
v -0.260978 0.372901 0.276272
v 0.213663 0.181653 0.583826
v -0.278938 0.372901 0.270823
v 0.201898 0.203663 0.583826
v -0.268557 -0.307826 -0.330342
v 0.186065 0.222955 0.583826
v -0.295491 0.372901 0.261976
v -0.268557 -0.307826 0.629327
v 0.166774 0.238788 0.583826
v 0.144764 0.250552 0.583826
v -0.268557 -0.399369 0.601319
v -0.309999 0.372901 0.250069
v 0.120881 0.257797 0.583826
v -0.268557 -0.399369 -0.302334
v 0.096044 0.260243 0.583826
v -0.321906 0.372901 0.235561
v 0.071207 0.257797 0.583826
v 0.047325 0.250552 0.583826
v -0.330753 0.372901 0.219008
v -0.268557 -0.307826 0.601319
v 0.025315 0.238788 0.583826
v -0.268557 -0.307826 -0.302334
v 0.006023 0.222955 0.583826
v -0.336201 0.372901 0.201048
v -0.009810 0.203663 0.583826
v -0.021574 0.181653 0.583826
v -0.338041 0.372901 0.182370
v -0.028819 0.157771 0.583826
v -0.777293 -0.399369 0.196777
v -0.031265 0.132934 0.583826
v -0.777293 -0.307826 0.196777
v -0.336201 0.372901 0.163691
v -0.028819 0.108097 0.583826
v 0.604410 -0.399369 0.196777
v -0.021574 0.084215 0.583826
v -0.009810 0.062204 0.583826
v -0.330753 0.372901 0.145731
v 0.604410 -0.307826 0.196777
v 0.006023 0.042912 0.583826
v -0.321906 0.372901 0.129178
v 0.025315 0.027080 0.583826
v -0.601820 -0.307826 0.196777
v 0.047325 0.015315 0.583826
v 0.071207 0.008071 0.583826
v -0.309999 0.372901 0.114670
v 0.428938 -0.307826 0.196777
v 0.096044 0.005624 0.485202
v 0.120881 0.008071 0.485202
v -0.295491 0.372901 0.102763
v 0.428938 -0.399369 0.196777
v 0.144764 0.015315 0.485202
v 0.166774 0.027080 0.485202
v -0.278938 0.372901 0.093916
v -0.601820 -0.399369 0.196777
v 0.186065 0.042912 0.485202
v -0.260978 0.372901 0.088468
v 0.201898 0.062204 0.485202
v 0.213663 0.084215 0.485202
v -0.569553 -0.399369 0.196777
v 0.220907 0.108097 0.485202
v 0.396670 -0.399369 0.196777
v 0.223354 0.132934 0.485202
v -0.242299 0.372901 0.070173
v 0.396670 -0.307826 0.196777
v 0.220907 0.157771 0.485202
v 0.213663 0.181653 0.485202
v -0.569553 -0.307826 0.196777
v -0.268557 -0.399369 0.196777
v 0.201898 0.203663 0.485202
v 0.396670 -0.399369 -0.522620
v 0.186065 0.222955 0.485202
v 0.166774 0.238788 0.485202
v -0.569553 -0.399369 -0.522620
v 0.144764 0.250552 0.485202
v -0.601820 -0.437549 -0.522620
v 0.120881 0.257797 0.485202
v 0.428938 -0.437549 -0.522620
v -0.132259 0.372901 0.204258
v 0.096044 0.260243 0.485202
v 0.428938 -0.346006 -0.522620
v 0.071207 0.257797 0.485202
v 0.047325 0.250552 0.485202
v -0.138644 0.372901 0.225305
v -0.601820 -0.346006 -0.522620
v 0.025315 0.238788 0.485202
v -0.149012 0.372901 0.244703
v 0.006023 0.222955 0.485202
v 0.604410 -0.346006 -0.522620
v -0.009810 0.203663 0.485202
v -0.162965 0.372901 0.261704
v -0.021574 0.181653 0.485202
v -0.028819 0.157771 0.485202
v -0.777293 -0.346006 -0.522620
v -0.031265 0.132934 0.485202
v -0.179967 0.372901 0.275657
v 0.604410 -0.437549 -0.522620
v -0.028819 0.108097 0.485202
v -0.199364 0.372901 0.286025
v -0.021574 0.084215 0.485202
v -0.777293 -0.437549 -0.522620
v -0.009810 0.062204 0.485202
v -0.220411 0.372901 0.292410
v 0.006023 0.042912 0.485202
v 0.416864 -0.084383 0.184703
v 0.025315 0.027080 0.485202
v -0.242299 0.372901 0.294566
v 0.047325 0.015315 0.485202
v 0.428938 -0.096457 0.196777
v 0.071207 0.008071 0.485202
v -0.264188 0.372901 0.292410
v 0.096044 -0.006040 1.034718
v 0.421485 -0.085302 0.189324
v 0.096044 -0.006040 0.930106
v 0.068932 -0.003369 0.930106
v -0.285235 0.372901 0.286025
v 0.425401 -0.087919 0.193240
v 0.042862 0.004539 0.930106
v 0.018835 0.017382 0.930106
v -0.304632 0.372901 0.275657
v -0.002225 0.034665 0.930106
v 0.428019 -0.091836 0.195858
v -0.321634 0.372901 0.261704
v -0.019508 0.055724 0.930106
v -0.335587 0.372901 0.244703
v -0.032350 0.079751 0.930106
v 0.428938 -0.096457 -0.302334
v -0.040259 0.105821 0.930106
v 0.416864 -0.084383 -0.290261
v -0.042929 0.132934 0.930106
v -0.040259 0.160046 0.930106
v -0.345955 0.372901 0.225305
v -0.032350 0.186117 0.930106
v 0.428019 -0.091836 -0.301415
v -0.352340 0.372901 0.204258
v -0.019508 0.210143 0.930106
v -0.002225 0.231203 0.930106
v 0.425401 -0.087919 -0.298798
v -0.354496 0.372901 0.182370
v 0.018835 0.248486 0.930106
v 0.421484 -0.085302 -0.294881
v 0.042862 0.261328 0.930106
v 0.068932 0.269237 0.930106
v -0.352340 0.372901 0.160481
v -0.256483 -0.084383 -0.585786
v 0.096044 0.271907 0.930106
v -0.345955 0.372901 0.139434
v 0.123157 0.269237 0.930106
v 0.149227 0.261328 0.930106
v -0.268557 -0.096457 -0.597860
v 0.173254 0.248486 0.930106
v -0.335587 0.372901 0.120037
v 0.194313 0.231203 0.930106
v -0.261104 -0.085302 -0.590407
v 0.211596 0.210143 0.930106
v -0.321634 0.372901 0.103035
v -0.304632 0.372901 0.089082
v 0.224439 0.186117 0.930106
v 0.232347 0.160046 0.930106
v -0.265021 -0.087919 -0.594324
v 0.235018 0.132934 0.930106
v -0.267638 -0.091836 -0.596941
v 0.232347 0.105821 0.930106
v -0.285235 0.372901 0.078714
v 0.224439 0.079751 0.930106
v 0.384597 -0.084383 -0.585786
v -0.264188 0.372901 0.072329
v 0.211596 0.055724 0.930106
v 0.194313 0.034665 0.930106
v 0.396670 -0.096457 -0.597860
v -0.242299 0.602357 0.070173
v 0.173254 0.017382 0.930106
v 0.149227 0.004539 0.930106
v 0.389217 -0.085302 -0.590407
v 0.393134 -0.087919 -0.594324
v 0.123157 -0.003369 0.930106
v 0.123157 -0.003369 1.034718
v 0.395751 -0.091836 -0.596941
v 0.149227 0.004539 1.034718
v -0.256483 -0.084383 -0.330342
v 0.173254 0.017382 1.034718
v -0.268557 -0.096457 -0.330342
v 0.194313 0.034665 1.034718
v -0.261104 -0.085302 -0.330342
v 0.211596 0.055724 1.034718
v -0.265021 -0.087919 -0.330342
v -0.267638 -0.091836 -0.330342
v 0.224439 0.079751 1.034718
v 0.232347 0.105821 1.034718
v -0.132259 0.602357 0.204258
v 0.235018 0.132934 1.034718
v 0.384597 -0.084383 -0.330342
v 0.232347 0.160046 1.034718
v -0.138644 0.602357 0.225305
v 0.224439 0.186117 1.034718
v 0.396670 -0.096457 -0.330342
v -0.149012 0.602357 0.244703
v 0.211596 0.210143 1.034718
v 0.389217 -0.085302 -0.330342
v 0.194313 0.231203 1.034718
v -0.162965 0.602357 0.261704
v 0.173254 0.248486 1.034718
v 0.149227 0.261328 1.034718
v 0.393134 -0.087919 -0.330342
v -0.179967 0.602357 0.275657
v 0.123157 0.269237 1.034718
v 0.395751 -0.091836 -0.330342
v 0.096044 0.271907 1.034718
v 0.068932 0.269237 1.034718
v 0.396670 -0.096457 0.196777
v 0.042862 0.261328 1.034718
v -0.199364 0.602357 0.286025
v 0.396670 -0.084383 0.184703
v 0.018835 0.248486 1.034718
v -0.220411 0.602357 0.292410
v -0.002225 0.231203 1.034718
v -0.242299 0.602357 0.294566
v -0.019508 0.210143 1.034718
v 0.396670 -0.091836 0.195858
v -0.032350 0.186117 1.034718
v -0.040259 0.160046 1.034718
v -0.264188 0.602357 0.292410
v 0.396670 -0.087919 0.193240
v -0.042929 0.132934 1.034718
v -0.285235 0.602357 0.286025
v -0.040259 0.105821 1.034718
v -0.032350 0.079751 1.034718
v 0.396670 -0.085302 0.189323
v -0.019508 0.055724 1.034718
v -0.304632 0.602357 0.275657
v 0.384597 -0.084383 -0.290261
v -0.002225 0.034665 1.034718
v -0.321634 0.602357 0.261704
v 0.018835 0.017382 1.034718
v 0.396670 -0.096457 -0.302334
v 0.042862 0.004539 1.034718
v 0.068932 -0.003369 1.034718
v 0.389217 -0.085302 -0.294881
v -0.335587 0.602357 0.244703
v 0.123157 -0.003369 0.485202
v -0.345955 0.602357 0.225305
v 0.123157 -0.003369 0.583826
v 0.393134 -0.087919 -0.298798
v 0.149227 0.004539 0.485202
v 0.395751 -0.091836 -0.301415
v 0.149227 0.004539 0.583826
v -0.352340 0.602357 0.204258
v 0.173254 0.017382 0.485202
v -0.354496 0.602357 0.182370
v 0.173254 0.017382 0.583826
v -0.268557 -0.096457 -0.302334
v 0.194313 0.034665 0.485202
v -0.352340 0.602357 0.160481
v 0.194313 0.034665 0.583826
v 0.211596 0.055724 0.485202
v -0.256483 -0.084383 -0.302334
v -0.345955 0.602357 0.139434
v 0.211596 0.055724 0.583826
v 0.224439 0.079751 0.485202
v -0.267638 -0.091836 -0.302334
v -0.265021 -0.087919 -0.302334
v 0.224439 0.079751 0.583826
v 0.232347 0.105821 0.485202
v -0.335587 0.602357 0.120037
v 0.232347 0.105821 0.583826
v -0.321634 0.602357 0.103035
v 0.235018 0.132934 0.485202
v -0.261104 -0.085302 -0.302334
v -0.304632 0.602357 0.089082
v 0.235018 0.132934 0.583826
v 0.232347 0.160046 0.485202
v -0.285235 0.602357 0.078714
v -0.264188 0.602357 0.072329
v 0.232347 0.160046 0.583826
v 0.396670 -0.307826 -0.522620
v 0.224439 0.186117 0.485202
v -0.569553 -0.307826 -0.522620
v 0.224439 0.186117 0.583826
v 0.211596 0.210143 0.485202
v -0.268557 -0.307826 -0.522620
v -0.268557 -0.399369 -0.522620
v 0.211596 0.210143 0.583826
v 0.396670 -0.096457 -0.522620
v 0.194313 0.231203 0.485202
v 0.194313 0.231203 0.583826
v 0.395751 -0.091836 -0.521960
v 0.173254 0.248486 0.485202
v 0.393134 -0.087919 -0.520079
v 0.389217 -0.085302 -0.517263
v 0.173254 0.248486 0.583826
v 0.384597 -0.084383 -0.513942
v 0.149227 0.261329 0.485202
v -0.268557 -0.096457 -0.522620
v 0.149227 0.261329 0.583826
v 0.123157 0.269237 0.485202
v -0.267638 -0.091836 -0.521960
v -0.265021 -0.087919 -0.520079
v 0.123157 0.269237 0.583826
v -0.261104 -0.085302 -0.517263
v 0.096044 0.271907 0.485202
v -0.256483 -0.084383 -0.513942
v 0.096044 0.271907 0.583826
v 0.068932 0.269237 0.485202
v -0.249670 -0.307826 -0.597860
v -0.249670 -0.399369 0.896845
v 0.068932 0.269237 0.583826
v 0.042862 0.261329 0.485202
v -0.249670 -0.399369 0.629327
v 0.042862 0.261329 0.583826
v -0.249670 -0.399369 -0.302334
v 0.018835 0.248486 0.485202
v -0.249670 -0.307826 0.601319
v 0.018835 0.248486 0.583826
v -0.249670 -0.399369 -0.597860
v -0.249670 -0.307826 0.896845
v -0.002225 0.231203 0.485202
v -0.249670 -0.399369 -0.330342
v -0.002225 0.231203 0.583826
v -0.019508 0.210143 0.485202
v -0.249670 -0.307826 0.629327
v -0.019508 0.210143 0.583826
v -0.249670 -0.399369 0.601319
v -0.249670 -0.399369 0.196777
v -0.032350 0.186117 0.485202
v -0.238282 -0.084383 -0.585786
v -0.032350 0.186117 0.583826
v -0.242640 -0.085302 -0.590407
v -0.040259 0.160046 0.485202
v -0.040259 0.160046 0.583826
v -0.246335 -0.087919 -0.594324
v -0.248803 -0.091836 -0.596941
v -0.042929 0.132934 0.485202
v -0.249670 -0.096457 -0.597860
v -0.042929 0.132934 0.583826
v -0.238282 -0.084383 -0.330342
v -0.040259 0.105821 0.485202
v -0.238282 -0.084383 -0.301991
v -0.040259 0.105821 0.583826
v -0.032350 0.079751 0.485202
v -0.238282 -0.084383 -0.513942
v -0.032350 0.079751 0.583826
v -0.249670 -0.399369 -0.522620
v 0.384597 0.602357 -0.513942
v -0.019508 0.055724 0.485202
v 0.384597 0.602357 -0.330342
v -0.019508 0.055724 0.583826
v -0.002225 0.034665 0.485202
v 0.384597 0.602357 -0.290261
v -0.002225 0.034665 0.583826
v 0.396670 0.602357 0.184703
v -0.238282 0.602357 -0.330342
v 0.018835 0.017382 0.485202
v 0.018835 0.017382 0.583826
v -0.238282 0.602357 -0.301991
v -0.237940 0.602357 0.184703
v 0.042862 0.004539 0.485202
v 0.042862 0.004539 0.583826
v -0.238282 0.602357 -0.513942
v -0.330301 -0.307826 0.453465
v 0.068932 -0.003369 0.485202
v -0.522012 -0.307826 0.453465
v 0.068932 -0.003369 0.583826
v -0.522012 -0.307826 0.261754
v 0.096044 -0.006040 0.583826
v -0.359549 -0.307826 0.006893
v 0.096044 -0.006040 0.485202
v -0.268557 -0.307826 -0.026088
v -0.283472 -0.307826 -0.024619
v -0.323063 -0.307826 -0.012610
v -0.451924 -0.307826 0.196777
v -0.453343 -0.307826 0.182370
v -0.449288 -0.307826 0.141197
v -0.391530 -0.307826 0.033139
v -0.437278 -0.307826 0.101607
v -0.417776 -0.307826 0.065120
v -0.249670 -0.307826 0.392687
v -0.268557 -0.307826 0.390827
v -0.449288 -0.307826 0.223542
v -0.437696 -0.307826 0.261754
v -0.283472 -0.307826 0.389358
v -0.323063 -0.307826 0.377349
v -0.330301 -0.307826 0.373480
v -0.268557 -0.096457 0.108042
v -0.267638 -0.091836 0.107764
v -0.265021 -0.087919 0.106970
v -0.261103 -0.085302 0.105781
v -0.257737 -0.084632 0.104760
v -0.256483 -0.084383 0.104637
v -0.237997 -0.084383 0.103663
v -0.242299 -0.084383 0.103240
v -0.032675 -0.307826 0.196777
v -0.164588 -0.161211 0.196777
v -0.164588 -0.096457 0.196777
v -0.268557 -0.161211 0.108042
v -0.268557 -0.222853 0.050365
v -0.164498 -0.091836 0.195858
v -0.164240 -0.087919 0.193240
v -0.163854 -0.085302 0.189324
v -0.163399 -0.084383 0.184703
v -0.066823 -0.307826 0.299619
v -0.035311 -0.307826 0.223542
v -0.047321 -0.307826 0.263133
v -0.201127 -0.307826 0.389358
v -0.242299 -0.307826 0.393413
v -0.093069 -0.307826 0.331600
v -0.125050 -0.307826 0.357846
v -0.161536 -0.307826 0.377349
v -0.238020 0.372901 0.070595
v -0.237997 0.339768 0.103663
v -0.238008 0.372901 0.087051
v -0.238020 0.602357 0.070595
v -0.163399 0.339768 0.184703
v -0.130333 0.372901 0.184703
v -0.130333 0.602357 0.184703
v -0.146787 0.372901 0.184703
v -0.433950 -0.303822 0.261754
v -0.361107 -0.232075 0.261754
v -0.330301 -0.205480 0.261754
v -0.330301 -0.211585 0.270371
v -0.330301 -0.249313 0.314073
v 0.025315 0.238788 0.184703
v 0.071207 0.257797 0.184703
v 0.047325 0.250552 0.184703
v 0.120881 0.257797 0.184703
v 0.166774 0.238788 0.184703
v 0.144764 0.250552 0.184703
v 0.096044 0.260243 0.184703
v 0.201898 0.203663 0.184703
v 0.223354 0.132934 0.184703
v 0.220907 0.108097 0.184703
v 0.220907 0.157771 0.184703
v 0.213663 0.084215 0.184703
v 0.213663 0.181653 0.184703
v 0.186065 0.222955 0.184703
v -0.031265 0.132934 0.184703
v -0.021574 0.084215 0.184703
v -0.028819 0.108097 0.184703
v -0.028819 0.157771 0.184703
v 0.006023 0.222955 0.184703
v -0.009810 0.062204 0.184703
v 0.005371 0.043707 0.184703
v -0.009810 0.203663 0.184703
v 0.006023 0.042912 0.184703
v -0.021574 0.181653 0.184703
v 0.025315 0.027080 0.184703
v 0.096044 0.005624 0.184703
v 0.071207 0.008071 0.184703
v 0.047325 0.015315 0.184703
v 0.144764 0.015315 0.184703
v 0.186065 0.042912 0.184703
v 0.201898 0.062204 0.184703
v 0.120881 0.008071 0.184703
v 0.166774 0.027080 0.184703
vn -1.0000 -0.0000 -0.0000
vn 1.0000 -0.0000 -0.0000
vn -0.0000 -0.0000 -1.0000
vn -0.0000 -1.0000 -0.0000
vn -0.0000 1.0000 -0.0000
vn -0.0000 -0.0000 1.0000
vn -0.0000 0.5915 0.8063
vn -0.0000 0.5915 -0.8063
vn -0.0000 -0.5915 -0.8063
vn -0.0000 -0.5915 0.8063
vn 0.9808 0.1951 -0.0000
vn 0.4392 -0.7424 0.5060
vn -0.4392 -0.7424 0.5060
vn -0.7638 -0.6455 -0.0000
vn 0.7638 -0.6455 -0.0000
vn 0.4392 -0.7424 -0.5060
vn -0.4392 -0.7424 -0.5060
vn 0.4392 0.7424 -0.5060
vn -0.4392 0.7424 -0.5060
vn -0.7638 0.6455 -0.0000
vn 0.7638 0.6455 -0.0000
vn 0.4392 0.7424 0.5060
vn -0.4392 0.7424 0.5060
vn -0.8315 0.5556 -0.0000
vn -0.1951 0.9808 -0.0000
vn 0.8315 0.5556 -0.0000
vn 0.5556 0.8315 -0.0000
vn 0.1951 0.9808 -0.0000
vn -0.9808 0.1951 -0.0000
vn -0.5556 0.8315 -0.0000
vn -0.0000 0.9808 -0.1951
vn -0.0000 0.8315 -0.5556
vn -0.0000 0.5556 -0.8315
vn -0.0000 0.1951 -0.9808
vn 0.5555 0.8315 -0.0000
vn -0.0000 0.1951 0.9808
vn -0.0000 0.5556 0.8315
vn -0.0000 0.8315 0.5556
vn -0.0000 0.9808 0.1951
vn 0.9997 -0.0000 -0.0254
vn -1.0000 -0.0000 0.0007
vn 0.0980 -0.0000 -0.9952
vn 0.9952 -0.0000 0.0980
vn 0.9569 -0.0000 0.2903
vn 0.8819 -0.0000 0.4714
vn 0.7730 -0.0000 0.6344
vn 0.6344 -0.0000 0.7730
vn 0.4714 -0.0000 0.8819
vn 0.2903 -0.0000 0.9569
vn 0.0980 -0.0000 0.9952
vn -0.0980 -0.0000 0.9952
vn -0.2903 -0.0000 0.9569
vn -0.4714 -0.0000 0.8819
vn -0.6344 -0.0000 0.7730
vn -0.7730 -0.0000 0.6344
vn -0.8819 -0.0000 0.4714
vn -0.9569 -0.0000 0.2903
vn -0.9952 -0.0000 0.0980
vn -0.9952 -0.0000 -0.0980
vn -0.9569 -0.0000 -0.2903
vn -0.8819 -0.0000 -0.4714
vn -0.7730 -0.0000 -0.6344
vn -0.6344 -0.0000 -0.7730
vn -0.4714 -0.0000 -0.8819
vn -0.2903 -0.0000 -0.9569
vn -0.0980 -0.0000 -0.9952
vn 0.4218 -0.4465 0.7891
vn -0.8563 -0.4465 0.2597
vn 0.0877 -0.4465 -0.8905
vn -0.0877 -0.4465 -0.8905
vn 0.8563 -0.4465 0.2597
vn -0.4218 -0.4465 0.7891
vn -0.6917 -0.4465 -0.5676
vn 0.2598 -0.4465 0.8563
vn -0.8905 -0.4465 0.0877
vn 0.7891 -0.4465 0.4218
vn -0.5677 -0.4465 0.6917
vn -0.5677 -0.4465 -0.6917
vn 0.0877 -0.4465 0.8905
vn -0.8905 -0.4465 -0.0877
vn 0.6917 -0.4465 0.5677
vn -0.6917 -0.4465 0.5676
vn -0.4218 -0.4465 -0.7891
vn -0.0877 -0.4465 0.8905
vn -0.8563 -0.4465 -0.2597
vn 0.5677 -0.4465 0.6917
vn -0.7891 -0.4465 0.4218
vn -0.2598 -0.4465 -0.8563
vn 0.8905 -0.4465 0.0877
vn -0.2598 -0.4465 0.8563
vn -0.7891 -0.4465 -0.4218
vn 0.6570 0.6671 0.3512
vn -0.4726 0.6671 0.5759
vn -0.4726 0.6671 -0.5759
vn 0.0730 0.6671 0.7414
vn -0.7414 0.6671 -0.0730
vn 0.5759 0.6671 0.4726
vn -0.5759 0.6671 0.4726
vn -0.3512 0.6671 -0.6570
vn -0.0730 0.6671 0.7414
vn -0.7129 0.6671 -0.2163
vn 0.4726 0.6671 0.5759
vn -0.6570 0.6671 0.3512
vn -0.2163 0.6671 -0.7129
vn 0.7414 0.6671 0.0730
vn -0.2163 0.6671 0.7129
vn -0.6570 0.6671 -0.3512
vn 0.3512 0.6671 0.6570
vn -0.7129 0.6671 0.2163
vn -0.0730 0.6671 -0.7414
vn 0.7129 0.6671 0.2163
vn -0.3512 0.6671 0.6570
vn -0.5759 0.6671 -0.4726
vn 0.2163 0.6671 0.7129
vn -0.7414 0.6671 0.0730
vn 0.0980 -0.9952 -0.0000
vn 0.2903 -0.9569 -0.0000
vn 0.4714 -0.8819 -0.0000
vn 0.6344 -0.7730 -0.0000
vn 0.7730 -0.6344 -0.0000
vn 0.8819 -0.4714 -0.0000
vn 0.9569 -0.2903 -0.0000
vn 0.9952 -0.0980 -0.0000
vn 0.9952 0.0980 -0.0000
vn 0.9569 0.2903 -0.0000
vn 0.8819 0.4714 -0.0000
vn 0.7730 0.6344 -0.0000
vn 0.6344 0.7730 -0.0000
vn 0.4714 0.8819 -0.0000
vn 0.2903 0.9569 -0.0000
vn 0.0980 0.9952 -0.0000
vn -0.0980 0.9952 -0.0000
vn -0.2903 0.9569 -0.0000
vn -0.4714 0.8819 -0.0000
vn -0.6344 0.7730 -0.0000
vn -0.7730 0.6344 -0.0000
vn -0.8819 0.4714 -0.0000
vn -0.9569 0.2903 -0.0000
vn -0.9952 0.0980 -0.0000
vn -0.9952 -0.0980 -0.0000
vn -0.9569 -0.2903 -0.0000
vn -0.8819 -0.4714 -0.0000
vn -0.7730 -0.6344 -0.0000
vn -0.6344 -0.7730 -0.0000
vn -0.4714 -0.8819 -0.0000
vn -0.2903 -0.9569 -0.0000
vn -0.0980 -0.9952 -0.0000
vt 0.375000 0.000000
vt 0.625000 0.000000
vt 0.625000 0.044744
vt 0.375000 0.044744
vt 0.375000 0.237416
vt 0.625000 0.237416
vt 0.625000 0.250000
vt 0.375000 0.250000
vt 0.375000 0.512584
vt 0.625000 0.512584
vt 0.625000 0.544744
vt 0.375000 0.544744
vt 0.375000 0.705256
vt 0.625000 0.705256
vt 0.625000 0.750000
vt 0.375000 0.750000
vt 0.375000 0.117091
vt 0.625000 0.117091
vt 0.625000 0.200571
vt 0.375000 0.200571
vt 0.375000 0.632909
vt 0.625000 0.632909
vt 0.625000 0.700571
vt 0.375000 0.700571
vt 0.625000 0.205256
vt 0.375000 0.205256
vt 0.625000 0.049429
vt 0.375000 0.049429
vt 0.625000 0.549429
vt 0.375000 0.549429
vt 0.625000 0.281749
vt 0.375000 0.281749
vt 0.343251 0.512584
vt 0.343251 0.544744
vt 0.125000 0.512584
vt 0.156749 0.512584
vt 0.156749 0.544744
vt 0.125000 0.544744
vt 0.375000 0.468251
vt 0.625000 0.468251
vt 0.625000 0.500000
vt 0.375000 0.500000
vt 0.656749 0.512584
vt 0.656749 0.544744
vt 0.843251 0.512584
vt 0.875000 0.512584
vt 0.875000 0.544744
vt 0.843251 0.544744
vt 0.625000 0.781749
vt 0.375000 0.781749
vt 0.125000 0.705256
vt 0.156749 0.705256
vt 0.156749 0.750000
vt 0.125000 0.750000
vt 0.343251 0.705256
vt 0.343251 0.750000
vt 0.375000 0.968251
vt 0.625000 0.968251
vt 0.625000 1.000000
vt 0.375000 1.000000
vt 0.843251 0.705256
vt 0.875000 0.705256
vt 0.875000 0.750000
vt 0.843251 0.750000
vt 0.656749 0.705256
vt 0.656749 0.750000
vt 0.656749 0.700571
vt 0.843251 0.700571
vt 0.875000 0.700571
vt 0.875000 0.549429
vt 0.843251 0.549429
vt 0.656749 0.549429
vt 0.125000 0.700571
vt 0.156749 0.700571
vt 0.343251 0.700571
vt 0.343251 0.549429
vt 0.156749 0.549429
vt 0.125000 0.549429
vt 0.125000 0.632909
vt 0.156749 0.632909
vt 0.343251 0.632909
vt 0.656749 0.632909
vt 0.843251 0.632909
vt 0.875000 0.632909
vt 0.375000 0.345466
vt 0.625000 0.345466
vt 0.625000 0.462412
vt 0.375000 0.462412
vt 0.375000 0.907951
vt 0.625000 0.907951
vt 0.625000 0.962412
vt 0.375000 0.962412
vt 0.220466 0.512584
vt 0.220466 0.500000
vt 0.337412 0.500000
vt 0.337412 0.512584
vt 0.220466 0.750000
vt 0.220466 0.705256
vt 0.337412 0.705256
vt 0.337412 0.750000
vt 0.782951 0.512584
vt 0.782951 0.500000
vt 0.837412 0.500000
vt 0.837412 0.512584
vt 0.782951 0.750000
vt 0.782951 0.705256
vt 0.837412 0.705256
vt 0.837412 0.750000
vt 0.220466 0.632909
vt 0.220466 0.549429
vt 0.337412 0.549429
vt 0.337412 0.632909
vt 0.785650 0.595879
vt 0.782951 0.595633
vt 0.782951 0.549429
vt 0.837412 0.549429
vt 0.837412 0.632909
vt 0.816129 0.632909
vt 0.816386 0.630499
vt 0.815652 0.623613
vt 0.813479 0.616991
vt 0.809950 0.610888
vt 0.805202 0.605539
vt 0.799415 0.601149
vt 0.792813 0.597887
vt 0.779534 0.700571
vt 0.779534 0.705256
vt 0.662588 0.705256
vt 0.662588 0.700571
vt 0.662588 0.544744
vt 0.662588 0.512584
vt 0.662588 0.512695
vt 0.217049 0.700571
vt 0.217049 0.705256
vt 0.162588 0.705256
vt 0.162588 0.700571
vt 0.217049 0.544744
vt 0.217049 0.549429
vt 0.162588 0.549429
vt 0.162588 0.544744
vt 0.337412 0.700571
vt 0.162588 0.632909
vt 0.337412 0.544744
vt 0.162588 0.512584
vt 0.162588 0.750000
vt 0.662588 0.549429
vt 0.837412 0.700571
vt 0.662588 0.632909
vt 0.837412 0.544744
vt 0.662588 0.750000
vt 0.625000 0.787588
vt 0.375000 0.787588
vt 0.625000 0.287588
vt 0.375000 0.287588
vt 0.220466 0.544744
vt 0.220466 0.700571
vt 0.782951 0.544744
vt 0.782951 0.700571
vt 0.782951 0.500154
vt 0.782944 0.512688
vt 0.782798 0.512868
vt 0.782738 0.500394
vt 0.217049 0.632909
vt 0.779534 0.750000
vt 0.217049 0.750000
vt 0.162588 0.500000
vt 0.217049 0.500000
vt 0.217049 0.512584
vt 0.375000 0.904534
vt 0.625000 0.904534
vt 0.625000 0.342049
vt 0.375000 0.342049
vt 0.782951 0.665365
vt 0.779534 0.665676
vt 0.781603 0.501247
vt 0.781603 0.513480
vt 0.780767 0.514036
vt 0.780767 0.502019
vt 0.815652 0.637385
vt 0.828810 0.643777
vt 0.813555 0.643777
vt 0.792813 0.663111
vt 0.794123 0.662464
vt 0.794123 0.675842
vt 0.828811 0.675842
vt 0.785650 0.665119
vt 0.662588 0.500000
vt 0.656749 0.500000
vt 0.662741 0.512868
vt 0.663936 0.513480
vt 0.663936 0.544744
vt 0.664772 0.514036
vt 0.664772 0.544744
vt 0.782951 0.500000
vt 0.777473 0.544744
vt 0.777474 0.514036
vt 0.780767 0.544744
vt 0.843251 0.500000
vt 0.656833 0.549506
vt 0.656833 0.632832
vt 0.657069 0.549725
vt 0.657069 0.632613
vt 0.658098 0.550675
vt 0.658098 0.631662
vt 0.658934 0.551448
vt 0.658934 0.630889
vt 0.777473 0.502019
vt 0.664772 0.502019
vt 0.663936 0.501247
vt 0.778262 0.501247
vt 0.662801 0.500394
vt 0.779333 0.500394
vt 0.625000 0.346070
vt 0.625000 0.461773
vt 0.625000 0.462246
vt 0.625000 0.345623
vt 0.625000 0.462412
vt 0.662588 0.500154
vt 0.662671 0.549506
vt 0.663936 0.550675
vt 0.664772 0.551448
vt 0.780767 0.549429
vt 0.781603 0.544744
vt 0.781603 0.549429
vt 0.782883 0.618084
vt 0.782951 0.618067
vt 0.782687 0.618132
vt 0.781603 0.617689
vt 0.780994 0.617518
vt 0.780767 0.617498
vt 0.662588 0.631662
vt 0.662588 0.630889
vt 0.778201 0.617264
vt 0.777422 0.617335
vt 0.777474 0.549486
vt 0.764140 0.632909
vt 0.740272 0.632909
vt 0.764139 0.632909
vt 0.782951 0.608420
vt 0.782951 0.618067
vt 0.156749 0.500000
vt 0.343251 0.500000
vt 0.875000 0.500000
vt 0.125000 0.500000
vt 0.764193 0.632844
vt 0.764348 0.632658
vt 0.764007 0.631662
vt 0.763924 0.630889
vt 0.625000 0.342215
vt 0.625000 0.342689
vt 0.778200 0.665798
vt 0.740749 0.637385
vt 0.742922 0.644007
vt 0.746450 0.650110
vt 0.751199 0.655459
vt 0.756986 0.659849
vt 0.763587 0.663111
vt 0.770751 0.665119
vt 0.777412 0.630889
vt 0.777424 0.614556
vt 0.777426 0.611804
vt 0.777422 0.617335
vt 0.760919 0.630889
vt 0.763925 0.630889
vt 0.733388 0.630889
vt 0.736135 0.630889
vt 0.738263 0.630889
vt 0.739574 0.630889
vt 0.740017 0.630889
vt 0.739574 0.630889
vt 0.738263 0.630889
vt 0.736135 0.630889
vt 0.733270 0.630889
vt 0.757942 0.630889
vt 0.733270 0.630889
vt 0.757942 0.630889
vt 0.729779 0.630889
vt 0.725797 0.630889
vt 0.721476 0.630889
vt 0.716982 0.630889
vt 0.712488 0.630889
vt 0.708167 0.630889
vt 0.704184 0.630889
vt 0.700694 0.630889
vt 0.697829 0.630889
vt 0.695700 0.630889
vt 0.694390 0.630889
vt 0.693947 0.630889
vt 0.694389 0.630889
vt 0.695700 0.630889
vt 0.697829 0.630889
vt 0.700694 0.630889
vt 0.704184 0.630889
vt 0.708167 0.630889
vt 0.712488 0.630889
vt 0.716982 0.630889
vt 0.721476 0.630889
vt 0.725797 0.630889
vt 0.729779 0.630889
vt 0.375140 0.000000
vt 0.375140 0.250000
vt 0.375140 0.359951
vt 0.404546 0.500000
vt 0.396905 0.459828
vt 0.376291 0.364836
vt 0.402792 0.511237
vt 0.375140 0.750000
vt 0.375140 0.645695
vt 0.391952 0.568226
vt 0.375140 1.000000
vt 1.000000 0.576678
vt 1.000000 1.000000
vt 0.991290 1.000000
vt 0.991290 0.576678
vt 0.745276 0.576678
vt 0.745276 1.000000
vt 0.718750 1.000000
vt 0.718750 0.500000
vt 0.720836 0.500000
vt 0.720836 0.564628
vt 0.722696 0.569240
vt 0.727994 0.573149
vt 0.735923 0.575761
vt 0.687500 1.000000
vt 0.687500 0.500000
vt 0.656250 1.000000
vt 0.656250 0.500000
vt 0.593750 1.000000
vt 0.593750 0.500000
vt 0.562500 1.000000
vt 0.562500 0.500000
vt 0.531250 1.000000
vt 0.531250 0.500000
vt 0.500000 1.000000
vt 0.500000 0.500000
vt 0.468750 1.000000
vt 0.468750 0.500000
vt 0.437500 1.000000
vt 0.437500 0.500000
vt 0.406250 1.000000
vt 0.406250 0.500000
vt 0.343750 1.000000
vt 0.343750 0.500000
vt 0.312500 1.000000
vt 0.312500 0.500000
vt 0.281250 1.000000
vt 0.281250 0.500000
vt 0.250000 1.000000
vt 0.250000 0.500000
vt 0.218750 1.000000
vt 0.218750 0.500000
vt 0.187500 1.000000
vt 0.187500 0.500000
vt 0.156250 1.000000
vt 0.156250 0.500000
vt 0.125000 1.000000
vt 0.093750 1.000000
vt 0.093750 0.500000
vt 0.062500 1.000000
vt 0.062500 0.500000
vt 0.054028 0.500000
vt 0.031250 1.000000
vt 0.031250 0.576429
vt 0.038337 0.575761
vt 0.046584 0.573149
vt 0.052094 0.569240
vt 0.054028 0.564628
vt 0.000000 1.000000
vt 0.000000 0.576678
vt 0.028712 0.576678
vt 0.992821 1.000000
vt 0.746096 1.000000
vt 0.993891 1.000000
vt 0.746669 1.000000
vt 0.250000 0.010000
vt 0.296822 0.014612
vt 0.341844 0.028269
vt 0.383337 0.050447
vt 0.419706 0.080294
vt 0.449553 0.116663
vt 0.471731 0.158156
vt 0.485388 0.203178
vt 0.489508 0.245009
vt 0.259326 0.245009
vt 0.259154 0.489098
vt 0.250000 0.490000
vt 0.203178 0.485388
vt 0.158156 0.471731
vt 0.116663 0.449553
vt 0.080294 0.419706
vt 0.050447 0.383337
vt 0.028269 0.341844
vt 0.014612 0.296822
vt 0.010000 0.250000
vt 0.014612 0.203178
vt 0.028269 0.158156
vt 0.050447 0.116663
vt 0.080294 0.080294
vt 0.116663 0.050447
vt 0.158156 0.028269
vt 0.203178 0.014612
vt 0.993892 1.000000
vt 0.366827 0.500000
vt 0.375000 0.500000
vt 0.343750 0.500000
vt 0.494286 0.500000
vt 0.468750 0.500000
vt 0.480145 0.500000
vt 0.593750 0.500000
vt 0.031250 0.500000
vt 0.054028 0.500000
vt 0.738985 0.500000
vt 0.468750 0.500000
vt 0.281250 0.500000
vt 0.311369 0.500000
vt 0.031250 0.500000
vt 0.019855 0.500000
vt 0.431180 0.500000
vt 0.437500 0.500000
vt 0.261015 0.500000
vt 0.968750 0.821625
vt 1.000000 0.821625
vt 1.000000 0.992654
vt 0.968750 0.992654
vt 0.937500 0.821625
vt 0.937500 0.992654
vt 0.906250 0.821625
vt 0.906250 0.992654
vt 0.875000 0.821625
vt 0.875000 0.992655
vt 0.843750 0.992654
vt 0.843750 0.821625
vt 0.812500 0.992654
vt 0.812500 0.821625
vt 0.781250 0.992654
vt 0.781250 0.821625
vt 0.750000 0.992654
vt 0.750000 0.821625
vt 0.718750 0.992654
vt 0.718750 0.821625
vt 0.687500 0.992654
vt 0.687500 0.821625
vt 0.656250 0.992654
vt 0.656250 0.821625
vt 0.625000 0.992654
vt 0.625000 0.821625
vt 0.593750 0.992654
vt 0.593750 0.821625
vt 0.562500 0.992654
vt 0.562500 0.821625
vt 0.531250 0.992654
vt 0.531250 0.821625
vt 0.500000 0.992654
vt 0.500000 0.821625
vt 0.468750 0.992654
vt 0.468750 0.821625
vt 0.437500 0.992654
vt 0.437500 0.821625
vt 0.406250 0.992654
vt 0.406250 0.821625
vt 0.375000 0.992654
vt 0.375000 0.821625
vt 0.343750 0.992654
vt 0.343750 0.821625
vt 0.312500 0.992654
vt 0.312500 0.821625
vt 0.281250 0.992654
vt 0.281250 0.821625
vt 0.250000 0.992654
vt 0.250000 0.821625
vt 0.218750 0.992654
vt 0.218750 0.821625
vt 0.187500 0.992654
vt 0.187500 0.821625
vt 0.156250 0.992654
vt 0.156250 0.821625
vt 0.125000 0.992655
vt 0.125000 0.821625
vt 0.126287 0.992654
vt 0.093750 0.821625
vt 0.093750 0.992654
vt 0.062500 0.821625
vt 0.062500 0.992654
vt 0.031250 0.821625
vt 0.031250 0.992654
vt 0.000000 0.821625
vt 0.000000 0.992654
vt 0.703178 0.485388
vt 0.750000 0.490000
vt 0.796822 0.485388
vt 0.841844 0.471731
vt 0.883337 0.449553
vt 0.919706 0.419706
vt 0.949553 0.383337
vt 0.971731 0.341844
vt 0.985388 0.296822
vt 0.990000 0.250000
vt 0.658156 0.028269
vt 0.616663 0.050447
vt 0.580294 0.080294
vt 0.550447 0.116663
vt 0.528269 0.158156
vt 0.514612 0.203178
vt 0.510000 0.250000
vt 0.218750 0.765493
vt 0.250000 0.765493
vt 0.375000 0.508868
vt 0.406250 0.508868
vt 0.395753 0.508868
vt 0.187500 0.765493
vt 1.000000 0.568408
vt 0.968750 0.568408
vt 0.437500 0.508868
vt 0.431163 0.508868
vt 0.156250 0.765493
vt 0.937500 0.568408
vt 0.468750 0.508868
vt 0.465773 0.508868
vt 0.125000 0.765493
vt 0.906250 0.568408
vt 0.500000 0.508868
vt 0.093750 0.765493
vt 0.875000 0.568408
vt 0.531250 0.508868
vt 0.062500 0.765493
vt 0.843750 0.568408
vt 0.562500 0.508868
vt 0.031250 0.765493
vt 0.812500 0.568408
vt 0.593750 0.508868
vt 0.000000 0.765493
vt 0.812500 0.568408
vt 0.781250 0.568408
vt 0.625000 0.508868
vt 0.750000 0.568408
vt 0.656250 0.508868
vt 0.718750 0.568408
vt 0.687500 0.508868
vt 0.687500 0.568408
vt 0.718750 0.508868
vt 0.656250 0.568408
vt 0.682010 0.568408
vt 0.750000 0.508868
vt 0.625000 0.568408
vt 0.641279 0.568408
vt 1.000000 0.500000
vt 1.000000 0.508868
vt 0.968750 0.508868
vt 0.968750 0.500000
vt 0.937500 0.508868
vt 0.937500 0.500000
vt 0.906250 0.508868
vt 0.906250 0.500000
vt 0.875000 0.508868
vt 0.843750 0.508868
vt 0.843750 0.500000
vt 0.812500 0.508868
vt 0.812500 0.500000
vt 0.781250 0.508868
vt 0.781250 0.500000
vt 0.750000 0.500000
vt 0.343750 0.508868
vt 0.312500 0.508868
vt 0.281250 0.508868
vt 0.250000 0.508868
vt 0.218750 0.508868
vt 0.187500 0.508868
vt 0.156250 0.508868
vt 0.125000 0.508868
vt 0.093750 0.508868
vt 0.062500 0.508868
vt 0.031250 0.508868
vt 0.000000 0.508868
vt 0.000000 0.500000
vt 0.031250 0.568408
vt 0.000000 0.568408
vt 0.062500 0.568408
vt 0.093750 0.568408
vt 0.125000 0.568408
vt 0.156250 0.568408
vt 0.187500 0.568408
vt 0.218750 0.568408
vt 0.250000 0.568408
vt 0.281250 0.568408
vt 0.281250 0.765493
vt 0.312500 0.568408
vt 0.312500 0.765493
vt 0.343750 0.568408
vt 0.343750 0.765493
vt 0.375000 0.568408
vt 0.375000 0.765493
vt 0.406250 0.568408
vt 0.406250 0.765493
vt 0.437500 0.568408
vt 0.437500 0.765493
vt 0.468750 0.568408
vt 0.468750 0.765493
vt 0.500000 0.568408
vt 0.500000 0.765493
vt 0.531250 0.568408
vt 0.531250 0.765493
vt 0.562500 0.568408
vt 0.562500 0.765493
vt 0.593750 0.568408
vt 0.593750 0.765493
vt 0.625000 0.765493
vt 0.656250 0.765493
vt 0.687500 0.765493
vt 0.718750 0.765493
vt 0.750000 0.765493
vt 0.781250 0.765493
vt 0.812500 0.765493
vt 0.843750 0.765493
vt 0.875000 0.765493
vt 0.906250 0.765493
vt 0.937500 0.765493
vt 0.968750 0.765493
vt 1.000000 0.765493
vt 0.604247 0.568408
vt 0.568837 0.568408
vt 0.817989 0.508868
vt 0.534227 0.568408
vt 0.858721 0.508868
vt 0.895753 0.508868
vt 0.931163 0.508868
vt 0.965773 0.508868
vt 0.682010 0.821625
vt 0.358721 0.508868
vt 0.317990 0.508868
vt 0.317990 0.765493
vt 0.358721 0.765493
vt 0.395753 0.765493
vt 0.431163 0.765493
vt 0.034227 0.821625
vt 0.465773 0.765493
vt 0.068837 0.821625
vt 0.104247 0.821625
vt 0.141279 0.821625
vt 0.182010 0.821625
vt 0.817990 0.765493
vt 0.858721 0.765493
vt 0.034227 0.568408
vt 0.895753 0.765493
vt 0.068837 0.568408
vt 0.931163 0.765493
vt 0.104247 0.568408
vt 0.534227 0.821625
vt 0.965773 0.765493
vt 0.141279 0.568408
vt 0.568837 0.821625
vt 0.182010 0.568408
vt 0.604247 0.821625
vt 0.641279 0.821625
s 0
f 2/1/1 3/2/1 25/3/1 21/4/1
f 343/5/1 336/6/1 9/7/1 7/8/1
f 339/9/2 331/10/2 33/11/2 27/12/2
f 28/13/2 30/14/2 13/15/2 12/16/2
f 272/17/1 274/18/1 39/19/1 55/20/1
f 277/21/2 281/22/2 45/23/2 48/24/2
f 24/25/1 23/26/1 55/20/1 39/19/1
f 36/27/1 57/28/1 21/4/1 25/3/1
f 43/29/2 53/30/2 27/12/2 33/11/2
f 30/14/2 28/13/2 48/24/2 45/23/2
f 7/8/3 9/7/3 69/31/3 62/32/3
f 320/33/4 339/9/4 27/12/4 109/34/4
f 343/35/4 318/36/4 103/37/4 23/38/4
f 64/39/3 66/40/3 18/41/3 17/42/3
f 331/10/5 323/43/5 91/44/5 33/11/5
f 327/45/5 336/46/5 24/47/5 95/48/5
f 12/16/6 13/15/6 81/49/6 72/50/6
f 21/51/4 100/52/4 75/53/4 2/54/4
f 96/55/4 28/13/4 12/16/4 72/56/4
f 75/57/6 78/58/6 3/59/6 2/60/6
f 84/61/5 25/62/5 3/63/5 78/64/5
f 30/14/5 87/65/5 81/66/5 13/15/5
f 87/65/7 30/14/7 45/23/7 135/67/7
f 25/62/7 84/61/7 140/68/7 36/69/7
f 39/70/8 130/71/8 95/48/8 24/47/8
f 134/72/8 43/29/8 33/11/8 91/44/8
f 100/52/9 21/51/9 57/73/9 122/74/9
f 28/13/9 96/55/9 124/75/9 48/24/9
f 53/30/10 114/76/10 109/34/10 27/12/10
f 117/77/10 55/78/10 23/38/10 103/37/10
f 272/79/4 297/80/4 122/74/4 57/73/4
f 293/81/4 277/21/4 48/24/4 124/75/4
f 281/22/5 289/82/5 135/67/5 45/23/5
f 285/83/5 274/84/5 36/69/5 140/68/5
f 556/85/3 546/86/3 206/87/3 216/88/3
f 232/89/6 236/90/6 202/91/6 208/92/6
f 584/93/4 556/94/4 216/95/4 313/96/4
f 547/97/4 550/98/4 163/99/4 212/100/4
f 522/101/5 228/102/5 203/103/5 519/104/5
f 236/105/5 251/106/5 193/107/5 202/108/5
f 565/109/4 552/110/4 149/111/4 304/112/4
f 610/113/5 609/114/5 265/115/5 181/116/5 310/117/5 612/118/5 613/119/5 614/120/5 616/121/5 617/122/5 615/123/5 607/124/5 611/125/5
f 554/126/5 562/127/5 190/128/5 198/129/5
f 438/130/11 525/131/11 528/132/11 449/130/11
f 254/133/4 242/134/4 162/135/4 171/136/4
f 238/137/4 257/138/4 146/139/4 158/140/4
f 117/77/12 103/37/12 158/140/12 146/139/12
f 293/81/4 124/75/4 169/141/4 304/112/4
f 302/142/4 171/136/4 122/74/4 297/80/4
f 149/111/13 154/143/13 109/34/13 114/76/13
f 320/33/14 109/34/14 154/143/14 313/96/14
f 316/144/15 158/140/15 103/37/15 318/36/15
f 100/52/16 122/74/16 171/136/16 162/135/16
f 96/55/14 72/56/14 212/100/14 163/99/14
f 162/135/15 208/145/15 75/53/15 100/52/15
f 163/99/17 169/141/17 124/75/17 96/55/17
f 134/72/18 91/44/18 185/130/18 175/146/18
f 285/83/5 140/68/5 195/147/5 310/117/5
f 307/148/5 198/129/5 135/67/5 289/82/5
f 181/116/19 184/149/19 95/48/19 130/71/19
f 327/45/20 95/48/20 184/149/20 519/104/20
f 517/131/21 185/130/21 91/44/21 323/43/21
f 87/65/22 135/67/22 198/129/22 190/128/22
f 84/61/20 78/64/20 202/108/20 193/107/20
f 190/128/21 200/150/21 81/66/21 87/65/21
f 193/107/23 195/147/23 140/68/23 84/61/23
f 200/151/6 212/152/6 72/50/6 81/49/6
f 78/58/6 75/57/6 208/92/6 202/91/6
f 66/40/3 64/39/3 216/88/3 206/87/3
f 203/153/3 218/154/3 62/32/3 69/31/3
f 559/155/4 552/110/4 257/138/4 238/137/4
f 564/156/4 550/98/4 242/134/4 254/133/4
f 184/149/5 181/116/5 265/115/5 248/157/5
f 195/147/5 193/107/5 251/106/5 263/158/5
f 404/159/24 538/160/24 539/161/24 402/162/24
f 302/142/4 146/139/4 257/138/4 311/163/4
f 557/164/5 562/127/5 251/106/5 236/105/5
f 185/130/2 517/131/2 525/131/2 438/130/2
f 208/145/4 162/135/4 242/134/4 232/165/4
f 316/144/4 218/166/4 222/167/4 523/168/4
f 547/169/6 557/170/6 236/90/6 232/89/6
f 218/154/3 203/153/3 228/171/3 222/172/3
f 171/136/4 302/142/4 311/163/4 254/133/4
f 619/173/5 263/158/5 554/126/5 618/174/5
f 396/175/25 541/176/25 543/177/25 387/178/25
f 130/71/5 285/83/5 310/117/5 181/116/5
f 146/139/4 302/142/4 297/80/4 117/77/4
f 114/76/4 293/81/4 304/112/4 149/111/4
f 620/179/5 612/118/5 310/117/5 605/180/5 621/181/5
f 623/182/5 624/183/5 601/184/5 603/185/5 605/180/5 310/117/5 195/147/5 263/158/5 619/173/5 622/186/5
f 564/156/4 565/109/4 304/112/4 169/141/4
f 130/71/5 39/70/5 274/84/5 285/83/5
f 43/29/5 134/72/5 289/82/5 281/22/5
f 114/76/4 53/30/4 277/21/4 293/81/4
f 55/78/4 117/77/4 297/80/4 272/79/4
f 53/30/2 43/29/2 281/22/2 277/21/2
f 57/28/1 36/27/1 274/18/1 272/17/1
f 206/187/21 517/131/21 323/43/21 66/188/21
f 158/140/4 316/144/4 523/168/4 238/137/4
f 449/130/26 528/132/26 530/189/26 446/130/26
f 446/130/27 530/189/27 531/190/27 441/191/27
f 441/191/28 531/190/28 533/192/28 434/193/28
f 392/194/29 535/101/29 538/160/29 404/159/29
f 402/162/30 539/161/30 541/176/30 396/175/30
f 577/195/5 582/196/5 543/177/5 422/197/5
f 228/102/1 522/101/1 535/101/1 392/194/1
f 69/198/20 327/45/20 519/104/20 203/103/20
f 351/82/11 369/72/11 376/199/11 364/200/11
f 364/200/26 376/199/26 380/201/26 359/202/26
f 359/202/27 380/201/27 383/203/27 355/204/27
f 355/204/28 383/203/28 371/205/28 347/206/28
f 567/207/31 408/208/31 416/209/31 569/210/31
f 569/210/32 416/209/32 417/211/32 572/212/32
f 572/213/33 417/214/33 420/215/33 573/216/33
f 573/216/34 420/215/34 412/217/34 575/86/34
f 525/131/11 412/187/11 420/218/11 528/132/11
f 528/132/26 420/218/26 417/211/26 530/189/26
f 530/189/35 417/211/35 416/209/35 531/190/35
f 531/190/28 416/209/28 408/208/28 533/192/28
f 477/146/11 438/130/11 449/130/11 487/219/11
f 487/219/26 449/130/26 446/130/26 485/146/26
f 485/146/27 446/130/27 441/191/27 480/220/27
f 480/220/28 441/191/28 434/193/28 473/221/28
f 473/221/31 371/205/31 383/203/31 480/220/31
f 480/220/32 383/203/32 380/201/32 485/146/32
f 485/146/33 380/201/33 376/199/33 487/219/33
f 487/219/34 376/199/34 369/72/34 477/146/34
f 498/222/25 422/197/25 426/223/25 510/224/25
f 510/224/30 426/223/30 428/157/30 503/115/30
f 503/115/24 428/157/24 429/157/24 502/115/24
f 502/115/29 429/157/29 424/157/29 493/115/29
f 535/101/29 424/157/29 429/157/29 538/160/29
f 538/160/24 429/157/24 428/157/24 539/161/24
f 539/161/30 428/157/30 426/223/30 541/176/30
f 541/176/25 426/223/25 422/197/25 543/177/25
f 626/225/29 502/115/29 493/115/29 625/226/29
f 627/227/24 503/115/24 502/115/24 626/225/24
f 628/228/30 510/224/30 503/115/30 627/227/30
f 629/229/25 630/230/25 498/222/25 510/224/25 628/228/25
f 452/148/36 351/82/36 364/200/36 461/148/36
f 461/148/37 364/200/37 359/202/37 465/148/37
f 465/148/38 359/202/38 355/204/38 470/231/38
f 470/231/39 355/204/39 347/206/39 455/232/39
f 289/82/2 134/72/2 369/72/2 351/82/2
f 473/221/5 455/232/5 347/206/5 371/205/5
f 307/148/6 289/82/6 351/82/6 452/148/6
f 134/72/3 175/146/3 477/146/3 369/72/3
f 546/86/3 228/171/3 392/171/3 575/86/3
f 582/196/5 567/207/5 387/178/5 543/177/5
f 522/101/1 248/157/1 424/157/1 535/101/1
f 517/131/2 206/187/2 412/187/2 525/131/2
f 248/157/1 265/115/1 493/115/1 424/157/1
f 455/232/40 473/221/40 590/221/40 592/232/40
f 175/146/2 185/130/2 438/130/2 477/146/2
f 632/233/5 631/234/5 579/235/5 498/222/5 630/230/5
f 634/236/6 633/237/6 307/148/6 452/148/6 635/238/6
f 637/239/1 636/240/1 625/226/1 493/115/1 265/115/1 609/114/1
f 218/166/15 316/144/15 318/36/15 62/241/15
f 64/242/14 320/33/14 313/96/14 216/95/14
f 248/157/5 522/101/5 519/104/5 184/149/5
f 559/155/4 584/93/4 313/96/4 154/143/4
f 69/198/5 9/243/5 336/46/5 327/45/5
f 18/41/5 66/188/5 323/43/5 331/10/5
f 7/244/4 62/241/4 318/36/4 343/35/4
f 64/242/4 17/42/4 339/9/4 320/33/4
f 17/42/2 18/41/2 331/10/2 339/9/2
f 23/26/1 24/25/1 336/6/1 343/5/1
f 238/137/4 523/168/4 584/93/4 559/155/4
f 473/221/2 434/193/2 587/193/2 590/221/2
f 422/197/5 498/222/5 579/235/5 577/195/5
f 533/192/5 408/208/5 567/207/5 582/196/5
f 206/87/3 546/86/3 575/86/3 412/217/3
f 452/148/36 461/148/36 638/245/36 635/238/36
f 461/148/37 465/148/37 639/246/37 638/245/37
f 465/148/38 470/231/38 640/247/38 639/246/38
f 470/231/39 455/232/39 641/248/39 640/247/39
f 404/249/34 573/216/34 575/86/34 392/171/34
f 402/250/33 572/213/33 573/216/33 404/249/33
f 396/175/32 569/210/32 572/212/32 402/162/32
f 387/178/31 567/207/31 569/210/31 396/175/31
f 434/193/2 533/192/2 585/192/2 587/193/2
f 254/133/4 311/163/4 565/109/4 564/156/4
f 646/251/5 618/174/5 554/126/5 198/129/5 307/148/5 633/237/5 643/252/5 644/253/5 642/254/5 647/255/5 648/256/5 649/257/5 645/258/5
f 212/152/6 200/151/6 557/170/6 547/169/6
f 200/150/5 190/128/5 562/127/5 557/164/5
f 169/141/4 163/99/4 550/98/4 564/156/4
f 154/143/4 149/111/4 552/110/4 559/155/4
f 263/158/5 251/106/5 562/127/5 554/126/5
f 311/163/4 257/138/4 552/110/4 565/109/4
f 232/165/4 242/134/4 550/98/4 547/97/4
f 523/168/4 222/167/4 556/94/4 584/93/4
f 222/172/3 228/171/3 546/86/3 556/85/3
f 593/195/5 596/235/5 590/221/5 587/193/5
f 592/232/5 590/221/5 596/235/5 597/259/5
f 587/193/5 585/192/5 600/196/5 593/195/5
f 652/260/41 650/261/41 653/261/41 596/235/41 579/235/41 631/234/41 651/262/41
f 657/263/6 654/264/6 641/248/6 683/265/6 682/266/6 678/267/6 679/268/6 677/269/6 680/270/6 686/271/6 684/272/6 681/273/6 655/274/6
f 685/275/6 683/265/6 641/248/6 455/232/6 592/232/6 656/276/6 655/274/6 681/273/6 663/277/6 665/278/6 664/279/6 669/280/6 666/281/6 668/282/6 667/283/6 676/284/6 670/285/6 675/286/6 673/287/6 671/288/6 672/289/6 674/290/6 693/291/6 692/292/6 695/293/6 691/294/6 694/295/6 688/296/6 689/297/6 690/298/6 687/299/6
f 533/192/3 582/196/3 600/196/3 585/192/3
f 582/196/1 577/195/1 593/195/1 600/196/1
f 577/195/1 579/235/1 596/235/1 593/195/1
f 603/300/1 6/2/1 10/7/1 605/301/1
f 621/302/3 605/301/3 10/7/3 19/41/3 660/303/3 659/304/3 658/305/3
f 661/306/2 660/303/2 19/41/2 15/15/2 601/307/2 624/308/2 662/309/2
f 601/307/6 15/15/6 6/59/6 603/310/6
f 19/41/5 10/243/5 6/63/5 15/15/5
f 632/311/42 4/312/42 651/313/42 631/314/42
f 641/315/43 654/316/43 34/317/43 31/318/43 634/319/43 635/320/43 638/321/43 639/322/43 640/323/43
f 31/318/44 34/317/44 40/324/44 38/325/44
f 38/325/45 40/324/45 47/326/45 42/327/45
f 42/327/46 47/326/46 51/59/46 49/41/46
f 49/41/47 51/59/47 59/328/47 54/329/47
f 54/329/48 59/328/48 63/330/48 60/331/48
f 60/331/49 63/330/49 70/332/49 67/333/49
f 67/333/50 70/332/50 76/334/50 73/335/50
f 73/335/51 76/334/51 83/336/51 80/337/51
f 80/337/52 83/336/52 89/338/52 86/339/52
f 86/339/53 89/338/53 93/340/53 90/341/53
f 90/341/54 93/340/54 101/60/54 97/42/54
f 97/42/55 101/60/55 107/342/55 105/343/55
f 105/343/56 107/342/56 115/344/56 111/345/56
f 111/345/57 115/344/57 125/346/57 119/347/57
f 119/347/58 125/346/58 131/348/58 127/349/58
f 127/349/59 131/348/59 141/350/59 138/351/59
f 138/351/60 141/350/60 147/352/60 144/353/60
f 144/353/61 147/352/61 156/354/61 152/355/61
f 152/355/62 156/354/62 166/356/62 160/244/62
f 160/244/63 166/356/63 174/357/63 168/358/63
f 168/358/64 174/357/64 179/359/64 178/360/64
f 636/361/65 178/360/65 179/359/65 188/362/65 629/363/65 628/364/65 627/365/65 626/366/65 625/367/65
f 629/363/66 188/362/66 4/368/66 632/369/66 630/370/66
f 223/59/4 220/326/4 329/326/4 333/59/4
f 63/330/67 59/328/67 225/328/67 230/330/67
f 125/346/68 115/344/68 262/344/68 267/346/68
f 651/313/69 4/312/69 192/312/69 652/371/69
f 4/368/70 188/362/70 299/362/70 192/368/70
f 40/324/71 34/317/71 209/317/71 213/324/71
f 93/340/72 89/338/72 246/338/72 250/340/72
f 166/356/73 156/354/73 283/354/73 288/356/73
f 70/332/74 63/330/74 230/330/74 234/332/74
f 131/348/75 125/346/75 267/346/75 270/348/75
f 47/326/76 40/324/76 213/324/76 220/326/76
f 101/60/77 93/340/77 250/340/77 255/60/77
f 174/357/78 166/356/78 288/356/78 292/357/78
f 76/334/79 70/332/79 234/332/79 240/334/79
f 141/350/80 131/348/80 270/348/80 275/350/80
f 51/59/81 47/326/81 220/326/81 223/59/81
f 107/342/82 101/60/82 255/60/82 259/342/82
f 179/359/83 174/357/83 292/357/83 296/359/83
f 83/336/84 76/334/84 240/334/84 244/336/84
f 147/352/85 141/350/85 275/350/85 280/352/85
f 59/328/86 51/59/86 223/59/86 225/328/86
f 115/344/87 107/342/87 259/342/87 262/344/87
f 188/362/88 179/359/88 296/359/88 299/362/88
f 657/372/89 209/317/89 34/317/89 654/316/89
f 89/338/90 83/336/90 244/336/90 246/338/90
f 156/354/91 147/352/91 280/352/91 283/354/91
f 345/332/49 341/330/49 454/330/49 457/332/49
f 280/352/4 275/350/4 386/350/4 389/352/4
f 225/328/4 223/59/4 333/59/4 338/328/4
f 283/354/4 280/352/4 389/352/4 394/354/4
f 230/330/4 225/328/4 338/328/4 341/330/4
f 652/371/4 192/312/4 306/312/4 650/373/4
f 288/356/4 283/354/4 394/354/4 398/356/4
f 234/332/4 230/330/4 341/330/4 345/332/4
f 292/357/4 288/356/4 398/356/4 399/357/4
f 240/334/4 234/332/4 345/332/4 349/334/4
f 296/359/4 292/357/4 399/357/4 406/359/4
f 244/336/4 240/334/4 349/334/4 353/336/4
f 299/362/4 296/359/4 406/359/4 409/362/4
f 246/338/4 244/336/4 353/336/4 358/338/4
f 192/368/4 299/362/4 409/362/4 306/368/4
f 250/340/4 246/338/4 358/338/4 362/340/4
f 255/60/4 250/340/4 362/340/4 365/60/4
f 259/342/4 255/60/4 365/60/4 367/342/4
f 262/344/4 259/342/4 367/342/4 374/344/4
f 321/317/4 209/317/4 657/372/4 655/374/4
f 267/346/4 262/344/4 374/344/4 377/346/4
f 213/324/4 209/317/4 321/317/4 326/324/4
f 270/348/4 267/346/4 377/346/4 381/348/4
f 220/326/4 213/324/4 326/324/4 329/326/4
f 275/350/4 270/348/4 381/348/4 386/350/4
f 459/375/5 457/376/5 454/377/5 447/378/5 443/379/5 439/380/5 436/381/5 432/382/5 656/383/5 597/384/5 653/385/5 413/386/5 515/387/5 514/388/5 511/389/5 508/390/5 506/391/5 499/392/5 495/393/5 491/394/5 489/395/5 483/396/5 481/397/5 475/398/5 472/399/5 467/400/5 464/401/5
f 399/357/63 398/356/63 508/356/63 511/357/63
f 349/334/50 345/332/50 457/332/50 459/334/50
f 406/359/64 399/357/64 511/357/64 514/359/64
f 353/336/51 349/334/51 459/334/51 464/336/51
f 409/362/65 406/359/65 514/359/65 515/362/65
f 358/338/52 353/336/52 464/336/52 467/338/52
f 306/368/66 409/362/66 515/362/66 413/368/66
f 362/340/53 358/338/53 467/338/53 472/340/53
f 365/60/54 362/340/54 472/340/54 475/60/54
f 367/342/55 365/60/55 475/60/55 481/342/55
f 374/344/56 367/342/56 481/342/56 483/344/56
f 656/374/43 432/317/43 321/317/43 655/374/43
f 377/346/57 374/344/57 483/344/57 489/346/57
f 326/324/44 321/317/44 432/317/44 436/324/44
f 381/348/58 377/346/58 489/346/58 491/348/58
f 329/326/45 326/324/45 436/324/45 439/326/45
f 386/350/59 381/348/59 491/348/59 495/350/59
f 333/59/46 329/326/46 439/326/46 443/59/46
f 389/352/60 386/350/60 495/350/60 499/352/60
f 338/328/47 333/59/47 443/59/47 447/328/47
f 394/354/61 389/352/61 499/352/61 506/354/61
f 341/330/48 338/328/48 447/328/48 454/330/48
f 306/312/42 413/312/42 653/402/42 650/402/42
f 398/356/62 394/354/62 506/354/62 508/356/62
f 38/325/92 42/327/92 642/327/92 644/325/92
f 662/341/93 90/341/93 97/42/93 661/42/93
f 615/244/94 160/244/94 168/358/94 607/358/94
f 645/333/95 67/333/95 73/335/95 646/335/95
f 613/349/96 127/349/96 138/351/96 614/351/96
f 642/327/97 42/327/97 49/41/97 647/41/97
f 660/403/98 661/404/98 97/42/98 105/343/98 659/405/98
f 168/358/99 178/360/99 611/360/99 607/358/99
f 618/406/100 646/335/100 73/335/100 80/337/100 622/407/100 619/408/100
f 138/351/101 144/353/101 616/353/101 614/351/101
f 49/41/102 54/329/102 648/409/102 647/41/102
f 659/405/103 105/343/103 111/345/103 658/345/103
f 610/410/104 611/360/104 178/360/104 636/411/104 637/410/104
f 31/318/105 643/318/105 633/412/105 634/319/105
f 622/413/106 80/337/106 86/339/106 623/339/106
f 144/353/107 152/355/107 617/355/107 616/353/107
f 54/329/108 60/331/108 649/331/108 648/409/108
f 658/345/109 111/345/109 119/347/109 620/414/109 621/415/109
f 610/416/110 637/410/110 609/417/110
f 643/318/111 31/318/111 38/325/111 644/325/111
f 662/341/112 624/418/112 623/419/112 86/339/112 90/341/112
f 152/355/113 160/244/113 615/244/113 617/355/113
f 60/331/114 67/333/114 645/333/114 649/331/114
f 620/414/115 119/347/115 127/349/115 613/349/115 612/420/115
f 291/421/116 290/422/116 688/423/116 694/424/116
f 294/425/117 291/421/117 694/424/117 691/426/117
f 295/427/118 294/425/118 691/426/118 695/428/118
f 298/429/119 295/427/119 695/428/119 692/430/119
f 693/431/120 300/432/120 298/429/120 692/430/120
f 674/433/121 301/434/121 300/432/121 693/431/121
f 672/435/122 303/436/122 301/434/122 674/433/122
f 671/437/123 305/438/123 303/436/123 672/435/123
f 673/439/124 308/440/124 305/438/124 671/437/124
f 675/441/125 309/442/125 308/440/125 673/439/125
f 670/443/126 312/444/126 309/442/126 675/441/126
f 676/445/127 314/446/127 312/444/127 670/443/127
f 667/447/128 315/448/128 314/446/128 676/445/128
f 668/449/129 317/450/129 315/448/129 667/447/129
f 666/451/130 319/452/130 317/450/130 668/449/130
f 669/453/131 322/454/131 319/452/131 666/451/131
f 664/455/132 324/456/132 322/454/132 669/453/132
f 665/457/133 325/458/133 324/456/133 664/455/133
f 663/459/134 328/460/134 325/458/134 665/457/134
f 681/461/135 330/462/135 328/460/135 663/459/135
f 684/463/136 332/464/136 330/462/136 681/461/136
f 686/465/137 334/466/137 332/464/137 684/463/137
f 680/467/138 335/468/138 334/466/138 686/465/138
f 677/469/139 337/470/139 335/468/139 680/467/139
f 679/471/140 340/472/140 337/470/140 677/469/140
f 678/473/141 342/474/141 340/472/141 679/471/141
f 682/475/142 344/476/142 342/474/142 678/473/142
f 685/477/143 346/478/143 344/476/143 682/475/143 683/479/143
f 348/480/144 346/478/144 685/477/144 687/481/144
f 350/482/145 348/480/145 687/481/145 690/483/145
f 352/484/146 350/482/146 690/483/146 689/485/146
f 290/486/147 352/484/147 689/485/147 688/487/147
f 94/488/6 1/489/6 5/490/6 8/491/6 11/492/6 14/493/6 16/494/6 20/495/6 22/496/6 26/497/6 29/496/6 32/495/6 35/494/6 37/493/6 41/492/6 44/491/6 46/490/6 50/489/6 52/488/6 56/498/6 58/499/6 61/500/6 65/501/6 68/502/6 71/503/6 74/504/6 77/503/6 79/502/6 82/501/6 85/500/6 88/499/6 92/498/6
f 276/505/6 273/505/6 576/506/6 580/505/6
f 199/507/6 197/508/6 456/509/6 458/507/6
f 278/510/6 276/510/6 580/505/6 583/510/6
f 98/511/3 99/512/3 418/512/3 356/511/3
f 197/508/6 196/513/6 453/514/6 456/508/6
f 279/515/6 278/510/6 583/510/6 588/515/6
f 99/512/3 102/516/3 415/516/3 418/512/3
f 196/513/6 194/517/6 451/518/6 453/513/6
f 282/519/6 279/515/6 588/515/6 591/519/6
f 102/516/3 104/520/3 414/520/3 415/516/3
f 194/517/6 191/521/6 450/521/6 451/517/6
f 284/522/6 282/519/6 591/519/6 595/522/6
f 104/520/3 106/523/3 411/523/3 414/520/3
f 191/521/6 189/524/6 448/524/6 450/521/6
f 286/525/6 284/522/6 595/522/6 599/525/6
f 106/523/3 108/526/3 410/526/3 411/523/3
f 189/524/6 187/527/6 445/527/6 448/524/6
f 287/528/6 286/525/6 599/525/6 604/528/6
f 108/526/3 110/529/3 407/529/3 410/526/3
f 187/527/6 186/530/6 444/530/6 445/527/6
f 226/531/6 287/528/6 604/528/6 606/531/6
f 110/529/3 112/532/3 405/533/3 407/529/3
f 186/530/6 183/534/6 442/534/6 444/530/6
f 112/533/3 113/533/3 403/535/3 405/533/3
f 183/534/6 182/536/6 440/536/6 442/534/6
f 113/535/3 116/537/3 401/535/3 403/535/3
f 182/536/6 180/538/6 437/538/6 440/536/6
f 116/537/3 118/539/3 400/537/3 401/537/3
f 180/538/6 177/538/6 435/540/6 437/538/6
f 118/539/3 120/541/3 397/542/3 400/539/3
f 177/540/6 176/540/6 433/543/6 435/540/6
f 120/541/3 121/544/3 395/545/3 397/541/3
f 1/546/116 224/547/116 161/548/116 5/549/116
f 5/549/117 161/548/117 164/550/117 8/551/117
f 8/551/118 164/550/118 165/552/118 11/553/118
f 11/553/119 165/552/119 167/554/119 14/243/119
f 14/243/120 167/554/120 170/555/120 16/556/120
f 16/556/121 170/555/121 172/557/121 20/558/121
f 20/558/122 172/557/122 173/559/122 22/560/122
f 22/560/123 173/559/123 176/543/123 26/561/123
f 26/561/124 176/543/124 177/540/124 29/318/124
f 29/318/125 177/540/125 180/538/125 32/325/125
f 32/325/126 180/538/126 182/536/126 35/327/126
f 35/327/127 182/536/127 183/534/127 37/41/127
f 37/41/128 183/534/128 186/530/128 41/329/128
f 41/329/129 186/530/129 187/527/129 44/331/129
f 44/331/130 187/527/130 189/524/130 46/333/130
f 46/333/131 189/524/131 191/521/131 50/335/131
f 50/335/132 191/521/132 194/517/132 52/337/132
f 52/337/133 194/517/133 196/513/133 56/339/133
f 56/339/134 196/513/134 197/508/134 58/341/134
f 58/341/135 197/508/135 199/507/135 61/42/135
f 61/42/136 199/507/136 201/562/136 65/343/136
f 65/343/137 201/562/137 204/563/137 68/345/137
f 68/345/138 204/563/138 205/564/138 71/347/138
f 71/347/139 205/564/139 207/565/139 74/349/139
f 74/349/140 207/565/140 210/566/140 77/351/140
f 77/351/141 210/566/141 211/567/141 79/353/141
f 79/353/142 211/567/142 214/568/142 82/355/142
f 82/355/143 214/568/143 215/569/143 85/244/143
f 85/244/144 215/569/144 217/570/144 88/358/144
f 88/358/145 217/570/145 219/571/145 92/360/145
f 92/360/146 219/571/146 221/572/146 94/410/146
f 94/410/147 221/572/147 224/573/147 1/574/147
f 159/575/147 287/528/147 226/531/147 98/576/147
f 157/577/146 286/525/146 287/528/146 159/575/146
f 155/578/145 284/522/145 286/525/145 157/577/145
f 153/579/144 282/519/144 284/522/144 155/578/144
f 151/580/143 279/515/143 282/519/143 153/579/143
f 150/581/142 278/510/142 279/515/142 151/580/142
f 148/582/141 276/505/141 278/510/141 150/581/141
f 145/583/140 273/506/140 276/505/140 148/582/140
f 143/584/139 271/585/139 273/506/139 145/583/139
f 142/586/138 269/587/138 271/585/138 143/584/138
f 139/588/137 268/589/137 269/587/137 142/586/137
f 137/590/136 266/591/136 268/589/136 139/588/136
f 136/592/135 264/593/135 266/591/135 137/590/135
f 133/594/134 261/595/134 264/593/134 136/592/134
f 132/596/133 260/597/133 261/595/133 133/594/133
f 129/598/132 258/599/132 260/597/132 132/596/132
f 128/600/131 256/601/131 258/599/131 129/598/131
f 126/602/130 253/603/130 256/601/130 128/600/130
f 123/604/129 252/605/129 253/603/129 126/602/129
f 121/544/128 249/606/128 252/605/128 123/604/128
f 120/541/127 247/607/127 249/606/127 121/544/127
f 118/539/126 245/608/126 247/607/126 120/541/126
f 116/537/125 243/609/125 245/608/125 118/539/125
f 113/535/124 241/610/124 243/609/124 116/537/124
f 112/533/123 239/611/123 241/610/123 113/535/123
f 110/529/122 237/612/122 239/611/122 112/533/122
f 108/526/121 235/613/121 237/612/121 110/529/121
f 106/523/120 233/614/120 235/613/120 108/526/120
f 104/520/119 231/615/119 233/614/119 106/523/119
f 102/516/118 229/616/118 231/615/118 104/520/118
f 99/512/117 227/617/117 229/616/117 102/516/117
f 98/511/116 226/618/116 227/617/116 99/512/116
f 176/543/6 173/559/6 431/543/6 433/543/6
f 121/544/3 123/604/3 393/619/3 395/544/3
f 173/559/6 172/557/6 430/559/6 431/559/6
f 123/604/3 126/602/3 391/620/3 393/604/3
f 172/557/6 170/555/6 427/621/6 430/557/6
f 290/422/3 291/421/3 482/421/3 608/422/3
f 126/602/3 128/600/3 390/622/3 391/602/3
f 170/555/6 167/554/6 425/623/6 427/555/6
f 291/421/3 294/425/3 486/425/3 482/421/3
f 128/600/3 129/598/3 388/598/3 390/600/3
f 167/554/6 165/552/6 423/624/6 425/554/6
f 294/425/3 295/427/3 490/427/3 486/425/3
f 129/598/3 132/596/3 385/596/3 388/598/3
f 165/552/6 164/550/6 421/625/6 423/552/6
f 295/427/3 298/429/3 494/429/3 490/427/3
f 132/596/3 133/594/3 384/594/3 385/596/3
f 164/550/6 161/548/6 419/626/6 421/550/6
f 298/429/3 300/432/3 497/432/3 494/429/3
f 133/594/3 136/592/3 382/592/3 384/594/3
f 161/548/6 224/547/6 354/547/6 419/548/6
f 300/432/3 301/434/3 501/434/3 497/432/3
f 136/592/3 137/590/3 379/590/3 382/592/3
f 301/434/3 303/434/3 505/436/3 501/434/3
f 137/590/3 139/588/3 378/588/3 379/590/3
f 303/436/3 305/436/3 509/438/3 505/436/3
f 139/588/3 142/586/3 375/586/3 378/588/3
f 305/438/3 308/440/3 513/438/3 509/438/3
f 142/586/3 143/586/3 373/584/3 375/586/3
f 308/440/3 309/442/3 518/440/3 513/440/3
f 143/584/3 145/584/3 372/583/3 373/584/3
f 309/442/3 312/444/3 521/627/3 518/442/3
f 145/583/3 148/582/3 370/583/3 372/583/3
f 479/572/147 357/575/147 356/576/147 354/573/147
f 478/571/146 360/577/146 357/575/146 479/572/146
f 476/570/145 361/578/145 360/577/145 478/571/145
f 474/569/144 363/579/144 361/578/144 476/570/144
f 471/568/143 366/580/143 363/579/143 474/569/143
f 469/567/142 368/581/142 366/580/142 471/568/142
f 468/566/141 370/582/141 368/581/141 469/567/141
f 466/565/140 372/583/140 370/582/140 468/566/140
f 463/564/139 373/584/139 372/583/139 466/565/139
f 462/563/138 375/586/138 373/584/138 463/564/138
f 460/562/137 378/588/137 375/586/137 462/563/137
f 458/507/136 379/590/136 378/588/136 460/562/136
f 456/508/135 382/592/135 379/590/135 458/507/135
f 453/513/134 384/594/134 382/592/134 456/508/134
f 451/517/133 385/596/133 384/594/133 453/513/133
f 450/521/132 388/598/132 385/596/132 451/517/132
f 448/524/131 390/600/131 388/598/131 450/521/131
f 445/527/130 391/602/130 390/600/130 448/524/130
f 444/530/129 393/604/129 391/602/129 445/527/129
f 442/534/128 395/544/128 393/604/128 444/530/128
f 440/536/127 397/541/127 395/544/127 442/534/127
f 437/538/126 400/539/126 397/541/126 440/536/126
f 435/540/125 401/537/125 400/539/125 437/538/125
f 433/543/124 403/535/124 401/537/124 435/540/124
f 431/559/123 405/533/123 403/535/123 433/543/123
f 430/557/122 407/529/122 405/533/122 431/559/122
f 427/555/121 410/526/121 407/529/121 430/557/121
f 425/554/120 411/523/120 410/526/120 427/555/120
f 423/552/119 414/520/119 411/523/119 425/554/119
f 421/550/118 415/516/118 414/520/118 423/552/118
f 419/548/117 418/512/117 415/516/117 421/550/117
f 354/547/116 356/511/116 418/512/116 419/548/116
f 604/528/147 602/484/147 608/486/147 606/531/147
f 599/525/146 598/482/146 602/484/146 604/528/146
f 595/522/145 594/480/145 598/482/145 599/525/145
f 591/519/144 589/478/144 594/480/144 595/522/144
f 588/515/143 586/476/143 589/478/143 591/519/143
f 583/510/142 581/474/142 586/476/142 588/515/142
f 580/505/141 578/472/141 581/474/141 583/510/141
f 576/506/140 574/470/140 578/472/140 580/505/140
f 571/585/139 570/468/139 574/470/139 576/506/139
f 568/587/138 566/466/138 570/468/138 571/585/138
f 563/589/137 561/464/137 566/466/137 568/587/137
f 560/591/136 558/462/136 561/464/136 563/589/136
f 555/593/135 553/460/135 558/462/135 560/591/135
f 551/595/134 549/458/134 553/460/134 555/593/134
f 548/597/133 545/456/133 549/458/133 551/595/133
f 544/599/132 542/454/132 545/456/132 548/597/132
f 540/601/131 537/452/131 542/454/131 544/599/131
f 536/603/130 534/450/130 537/452/130 540/601/130
f 532/605/129 529/448/129 534/450/129 536/603/129
f 527/606/128 526/446/128 529/448/128 532/605/128
f 524/607/127 521/444/127 526/446/127 527/606/127
f 520/608/126 518/442/126 521/444/126 524/607/126
f 516/609/125 513/440/125 518/442/125 520/608/125
f 512/610/124 509/438/124 513/440/124 516/609/124
f 507/611/123 505/436/123 509/438/123 512/610/123
f 504/612/122 501/434/122 505/436/122 507/611/122
f 500/613/121 497/432/121 501/434/121 504/612/121
f 496/614/120 494/429/120 497/432/120 500/613/120
f 492/615/119 490/427/119 494/429/119 496/614/119
f 488/616/118 486/425/118 490/427/118 492/615/118
f 484/617/117 482/421/117 486/425/117 488/616/117
f 606/618/116 608/422/116 482/421/116 484/617/116
f 201/562/6 199/507/6 458/628/6 460/562/6
f 273/506/6 271/585/6 571/506/6 576/506/6
f 204/563/6 201/562/6 460/629/6 462/563/6
f 271/585/6 269/587/6 568/585/6 571/585/6
f 205/564/6 204/563/6 462/564/6 463/564/6
f 269/587/6 268/589/6 563/630/6 568/587/6
f 207/565/6 205/564/6 463/565/6 466/565/6
f 268/589/6 266/591/6 560/631/6 563/589/6
f 210/566/6 207/566/6 466/565/6 468/566/6
f 266/591/6 264/593/6 555/632/6 560/591/6
f 211/567/6 210/567/6 468/566/6 469/567/6
f 352/484/3 290/486/3 608/486/3 602/484/3
f 264/593/6 261/595/6 551/633/6 555/593/6
f 214/568/6 211/567/6 469/567/6 471/568/6
f 350/482/3 352/484/3 602/634/3 598/482/3
f 261/595/6 260/597/6 548/635/6 551/595/6
f 215/569/6 214/568/6 471/568/6 474/569/6
f 348/480/3 350/482/3 598/636/3 594/480/3
f 260/597/6 258/599/6 544/599/6 548/597/6
f 217/570/6 215/569/6 474/569/6 476/570/6
f 346/478/3 348/480/3 594/637/3 589/478/3
f 258/599/6 256/601/6 540/601/6 544/599/6
f 219/571/6 217/570/6 476/570/6 478/571/6
f 344/476/3 346/478/3 589/638/3 586/476/3
f 256/601/6 253/603/6 536/603/6 540/601/6
f 221/572/6 219/571/6 478/571/6 479/572/6
f 342/474/3 344/476/3 586/639/3 581/474/3
f 253/603/6 252/605/6 532/605/6 536/603/6
f 224/573/6 221/572/6 479/572/6 354/573/6
f 340/472/3 342/474/3 581/472/3 578/472/3
f 252/605/6 249/606/6 527/606/6 532/605/6
f 337/470/3 340/472/3 578/470/3 574/470/3
f 249/606/6 247/607/6 524/607/6 527/606/6
f 335/468/3 337/468/3 574/470/3 570/468/3
f 247/607/6 245/608/6 520/608/6 524/607/6
f 334/466/3 335/466/3 570/468/3 566/466/3
f 245/608/6 243/608/6 516/609/6 520/608/6
f 332/464/3 334/466/3 566/466/3 561/464/3
f 243/609/6 241/609/6 512/610/6 516/609/6
f 330/462/3 332/464/3 561/464/3 558/462/3
f 241/610/6 239/611/6 507/610/6 512/610/6
f 328/460/3 330/462/3 558/462/3 553/460/3
f 239/611/6 237/612/6 504/611/6 507/611/6
f 325/458/3 328/460/3 553/460/3 549/458/3
f 237/612/6 235/613/6 500/640/6 504/612/6
f 159/575/3 98/576/3 356/576/3 357/575/3
f 324/456/3 325/458/3 549/458/3 545/456/3
f 235/613/6 233/614/6 496/641/6 500/613/6
f 157/577/3 159/575/3 357/642/3 360/577/3
f 322/454/3 324/456/3 545/456/3 542/454/3
f 233/614/6 231/615/6 492/643/6 496/614/6
f 155/578/3 157/577/3 360/644/3 361/578/3
f 319/452/3 322/454/3 542/454/3 537/452/3
f 231/615/6 229/616/6 488/645/6 492/615/6
f 153/579/3 155/578/3 361/646/3 363/579/3
f 317/450/3 319/452/3 537/647/3 534/450/3
f 229/616/6 227/617/6 484/648/6 488/616/6
f 151/580/3 153/579/3 363/649/3 366/580/3
f 315/448/3 317/450/3 534/650/3 529/448/3
f 227/617/6 226/618/6 606/618/6 484/617/6
f 150/581/3 151/580/3 366/651/3 368/581/3
f 314/446/3 315/448/3 529/652/3 526/446/3
f 148/582/3 150/581/3 368/582/3 370/582/3
f 312/444/3 314/446/3 526/653/3 521/444/3
