# Blender 5.1.2
# www.blender.org
mtllib vert.mtl
o Куб.002
v -0.241505 1.006595 1.582972
v 0.077856 1.423779 -0.622720
v -0.279437 1.717578 1.620904
v 0.077856 1.423779 -1.092705
v -0.279437 1.006595 -0.578850
v 0.100355 1.425994 -0.622720
v -0.279437 1.717578 -0.578850
v 0.100355 1.425994 -1.092705
v 0.121988 1.432557 -0.622720
v 0.271039 1.032488 1.595011
v 0.207215 1.006595 1.582972
v 0.121988 1.432557 -1.092705
v 0.245147 1.717578 1.620904
v 0.141925 1.443213 -0.622720
v 0.271039 1.691686 1.595011
v 0.141925 1.443213 -1.092705
v 0.271039 1.032488 -0.552958
v 0.159400 1.457555 -0.622720
v 0.245147 1.006595 -0.578850
v 0.159400 1.457555 -1.092705
v 0.271039 1.691686 -0.552958
v 0.173742 1.475030 -0.622720
v 0.245147 1.717578 -0.578850
v 0.173742 1.475030 -1.092705
v -0.241505 1.006595 0.838457
v 0.184399 1.494968 -0.622720
v -0.279437 1.717578 0.800525
v 0.184399 1.494968 -1.092705
v 0.207215 1.006595 0.838457
v 0.190961 1.516601 -0.622720
v 0.271039 1.032488 0.793946
v 0.190961 1.516601 -1.092705
v 0.193177 1.539099 -0.622720
v 0.245147 1.717578 0.800525
v 0.193177 1.539099 -1.092705
v 0.271039 1.691686 0.793945
v -0.279437 1.006595 0.800525
v 0.190961 1.561597 -0.622720
v 0.190961 1.561597 -1.092705
v -0.279437 1.006595 1.620904
v 0.245147 1.006595 1.620904
v 0.184399 1.583230 -0.622720
v 0.245147 1.006595 0.800525
v 0.184399 1.583230 -1.092705
v -0.241505 0.948735 0.838457
v 0.173742 1.603168 -0.622720
v 0.173742 1.603168 -1.092705
v -0.241505 0.948735 1.582972
v 0.207215 0.948735 1.582972
v 0.159400 1.620643 -0.622720
v 0.207215 0.948735 0.838457
v 0.159400 1.620643 -1.092705
v -0.286978 0.948735 0.763009
v 0.141925 1.634984 -0.622720
v 0.141925 1.634984 -1.092705
v -0.286978 0.948735 1.658421
v 0.252688 0.948735 1.658421
v 0.121988 1.645641 -0.622720
v 0.252688 0.948735 0.763009
v 0.121988 1.645641 -1.092705
v -0.286978 0.663645 0.763009
v 0.100355 1.652204 -0.622720
v 0.100355 1.652204 -1.092705
v -0.286978 0.663645 1.658421
v 0.077856 1.654419 -0.622720
v 0.252688 0.663645 1.658421
v 0.077856 1.654419 -1.092705
v 0.252688 0.663645 0.763009
v 0.055358 1.652204 -0.622720
v 0.055358 1.652204 -1.092705
v 0.033725 1.645641 -0.622720
v 0.033725 1.645641 -1.092705
v 0.013788 1.634984 -0.622720
v 0.013788 1.634984 -1.092705
v -0.003687 1.620643 -0.622720
v -0.003687 1.620643 -1.092705
v -0.018029 1.603168 -0.622720
v -0.018029 1.603168 -1.092705
v -0.028686 1.583230 -0.622720
v -0.028686 1.583230 -1.092705
v -0.035248 1.561597 -0.622720
v -0.035248 1.561597 -1.092705
v -0.037464 1.539099 -0.622720
v -0.037464 1.539099 -1.092705
v -0.035248 1.516601 -0.622720
v -0.035248 1.516601 -1.092705
v -0.028686 1.494968 -0.622720
v -0.028686 1.494968 -1.092705
v -0.018029 1.475030 -0.622720
v -0.018029 1.475030 -1.092705
v -0.003687 1.457555 -0.622720
v -0.003687 1.457555 -1.092705
v 0.013788 1.443213 -0.622720
v 0.013788 1.443213 -1.092705
v 0.033725 1.432557 -0.622720
v 0.033725 1.432557 -1.092705
v 0.055358 1.425994 -0.622720
v 0.055358 1.425994 -1.092705
v 0.077856 1.404296 -0.622720
v 0.104155 1.406886 -0.622720
v 0.129443 1.414557 -0.622720
v 0.152749 1.427015 -0.622720
v 0.173176 1.443779 -0.622720
v 0.189941 1.464207 -0.622720
v 0.202398 1.487512 -0.622720
v 0.210069 1.512800 -0.622720
v 0.212659 1.539099 -0.622720
v 0.210069 1.565398 -0.622720
v 0.202398 1.590686 -0.622720
v 0.189941 1.613991 -0.622720
v 0.173176 1.634419 -0.622720
v 0.152749 1.651183 -0.622720
v 0.129443 1.663640 -0.622720
v 0.104155 1.671312 -0.622720
v 0.077856 1.673902 -0.622720
v 0.051557 1.671312 -0.622720
v 0.026269 1.663640 -0.622720
v 0.002964 1.651183 -0.622720
v -0.017464 1.634419 -0.622720
v -0.034228 1.613991 -0.622720
v -0.046685 1.590686 -0.622720
v -0.054356 1.565398 -0.622720
v -0.056946 1.539099 -0.622720
v -0.054356 1.512800 -0.622720
v -0.046685 1.487512 -0.622720
v -0.034228 1.464207 -0.622720
v -0.017464 1.443779 -0.622720
v 0.002964 1.427015 -0.622720
v 0.026269 1.414557 -0.622720
v 0.051557 1.406886 -0.622720
v 0.077856 1.415560 -1.092705
v 0.101958 1.417934 -1.092705
v 0.125133 1.424964 -1.092705
v 0.146491 1.436380 -1.092705
v 0.165212 1.451744 -1.092705
v 0.180575 1.470465 -1.092705
v 0.191991 1.491823 -1.092705
v 0.199021 1.514998 -1.092705
v 0.201395 1.539099 -1.092705
v 0.199021 1.563200 -1.092705
v 0.191991 1.586375 -1.092705
v 0.180575 1.607733 -1.092705
v 0.165212 1.626454 -1.092705
v 0.146491 1.641818 -1.092705
v 0.125133 1.653234 -1.092705
v 0.101958 1.660264 -1.092705
v 0.077856 1.662638 -1.092705
v 0.053755 1.660264 -1.092705
v 0.030580 1.653234 -1.092705
v 0.009222 1.641818 -1.092705
v -0.009499 1.626454 -1.092705
v -0.024862 1.607733 -1.092705
v -0.036278 1.586375 -1.092705
v -0.043308 1.563200 -1.092705
v -0.045682 1.539099 -1.092705
v -0.043308 1.514998 -1.092705
v -0.036278 1.491823 -1.092705
v -0.024862 1.470465 -1.092705
v -0.009499 1.451744 -1.092705
v 0.009222 1.436380 -1.092705
v 0.030580 1.424964 -1.092705
v 0.053755 1.417934 -1.092705
v 0.077856 1.415560 -1.116814
v 0.101958 1.417934 -1.116814
v 0.125133 1.424964 -1.116814
v 0.146491 1.436380 -1.116814
v 0.165212 1.451744 -1.116814
v 0.180575 1.470465 -1.116814
v 0.191991 1.491823 -1.116814
v 0.199021 1.514998 -1.116814
v 0.201395 1.539099 -1.116814
v 0.199021 1.563200 -1.116814
v 0.191991 1.586375 -1.116814
v 0.180575 1.607733 -1.116814
v 0.165212 1.626454 -1.116814
v 0.146491 1.641818 -1.116814
v 0.125133 1.653234 -1.116814
v 0.101958 1.660264 -1.116814
v 0.077856 1.662638 -1.116814
v 0.053755 1.660264 -1.116814
v 0.030580 1.653234 -1.116814
v 0.009222 1.641818 -1.116814
v -0.009499 1.626454 -1.116814
v -0.024862 1.607733 -1.116814
v -0.036278 1.586375 -1.116814
v -0.043308 1.563200 -1.116814
v -0.045682 1.539099 -1.116814
v -0.043308 1.514998 -1.116814
v -0.036278 1.491823 -1.116814
v -0.024862 1.470465 -1.116814
v -0.009499 1.451744 -1.116814
v 0.009222 1.436380 -1.116814
v 0.030580 1.424964 -1.116814
v 0.053755 1.417934 -1.116814
v 0.077856 1.398420 -1.116814
v 0.105301 1.401123 -1.116814
v 0.131692 1.409129 -1.116814
v 0.156013 1.422129 -1.116814
v 0.177331 1.439624 -1.116814
v 0.194827 1.460942 -1.116814
v 0.207827 1.485264 -1.116814
v 0.215832 1.511654 -1.116814
v 0.218535 1.539099 -1.116814
v 0.215832 1.566544 -1.116814
v 0.207827 1.592935 -1.116814
v 0.194827 1.617256 -1.116814
v 0.177331 1.638574 -1.116814
v 0.156013 1.656069 -1.116814
v 0.131692 1.669070 -1.116814
v 0.105301 1.677075 -1.116814
v 0.077856 1.679778 -1.116814
v 0.050411 1.677075 -1.116814
v 0.024021 1.669070 -1.116814
v -0.000300 1.656069 -1.116814
v -0.021618 1.638574 -1.116814
v -0.039114 1.617256 -1.116814
v -0.052114 1.592935 -1.116814
v -0.060119 1.566544 -1.116814
v -0.062822 1.539099 -1.116814
v -0.060119 1.511654 -1.116814
v -0.052114 1.485264 -1.116814
v -0.039114 1.460942 -1.116814
v -0.021618 1.439624 -1.116814
v -0.000300 1.422129 -1.116814
v 0.024021 1.409129 -1.116814
v 0.050411 1.401123 -1.116814
v 0.077856 1.398420 -1.262924
v 0.105301 1.401123 -1.262924
v 0.131692 1.409129 -1.262924
v 0.156013 1.422129 -1.262924
v 0.177331 1.439624 -1.262924
v 0.194827 1.460942 -1.262924
v 0.207827 1.485264 -1.262924
v 0.215832 1.511654 -1.262924
v 0.218535 1.539099 -1.262924
v 0.215832 1.566544 -1.262924
v 0.207827 1.592935 -1.262924
v 0.194827 1.617256 -1.262924
v 0.177331 1.638574 -1.262924
v 0.156013 1.656069 -1.262924
v 0.131692 1.669070 -1.262924
v 0.105301 1.677075 -1.262924
v 0.077856 1.679778 -1.262924
v 0.050411 1.677075 -1.262924
v 0.024021 1.669070 -1.262924
v -0.000300 1.656069 -1.262924
v -0.021618 1.638574 -1.262924
v -0.039114 1.617256 -1.262924
v -0.052114 1.592935 -1.262924
v -0.060119 1.566544 -1.262924
v -0.062822 1.539099 -1.262924
v -0.060119 1.511654 -1.262924
v -0.052114 1.485264 -1.262924
v -0.039114 1.460942 -1.262924
v -0.021618 1.439624 -1.262924
v -0.000300 1.422129 -1.262924
v 0.024021 1.409129 -1.262924
v 0.050411 1.401123 -1.262924
v 0.077856 1.421578 -1.262924
v 0.100784 1.423836 -1.262924
v 0.122830 1.430524 -1.262924
v 0.143148 1.441384 -1.262924
v 0.160956 1.455999 -1.262924
v 0.175572 1.473808 -1.262924
v 0.186432 1.494126 -1.262924
v 0.193119 1.516172 -1.262924
v 0.195378 1.539099 -1.262924
v 0.193119 1.562026 -1.262924
v 0.186432 1.584072 -1.262924
v 0.175572 1.604390 -1.262924
v 0.160956 1.622199 -1.262924
v 0.143148 1.636814 -1.262924
v 0.122830 1.647674 -1.262924
v 0.100784 1.654362 -1.262924
v 0.077856 1.656620 -1.262924
v 0.054929 1.654362 -1.262924
v 0.032883 1.647674 -1.262924
v 0.012565 1.636814 -1.262924
v -0.005243 1.622199 -1.262924
v -0.019859 1.604390 -1.262924
v -0.030719 1.584072 -1.262924
v -0.037407 1.562026 -1.262924
v -0.039665 1.539099 -1.262924
v -0.037407 1.516172 -1.262924
v -0.030719 1.494126 -1.262924
v -0.019859 1.473808 -1.262924
v -0.005243 1.455999 -1.262924
v 0.012565 1.441384 -1.262924
v 0.032883 1.430524 -1.262924
v 0.054929 1.423836 -1.262924
v 0.077856 1.421578 -1.287763
v 0.100784 1.423836 -1.287763
v 0.122830 1.430524 -1.287763
v 0.143148 1.441384 -1.287763
v 0.160956 1.455999 -1.287763
v 0.175572 1.473808 -1.287763
v 0.186432 1.494126 -1.287763
v 0.193119 1.516172 -1.287763
v 0.195378 1.539099 -1.287763
v 0.193119 1.562026 -1.287763
v 0.186432 1.584072 -1.287763
v 0.175572 1.604390 -1.287763
v 0.160956 1.622199 -1.287763
v 0.143148 1.636814 -1.287763
v 0.122830 1.647674 -1.287763
v 0.100784 1.654362 -1.287763
v 0.077856 1.656620 -1.287763
v 0.054929 1.654362 -1.287763
v 0.032883 1.647674 -1.287763
v 0.012565 1.636814 -1.287763
v -0.005243 1.622199 -1.287763
v -0.019859 1.604390 -1.287763
v -0.030719 1.584072 -1.287763
v -0.037407 1.562026 -1.287763
v -0.039665 1.539099 -1.287763
v -0.037407 1.516172 -1.287763
v -0.030719 1.494126 -1.287763
v -0.019859 1.473808 -1.287763
v -0.005243 1.455999 -1.287763
v 0.012565 1.441384 -1.287763
v 0.032883 1.430524 -1.287763
v 0.054929 1.423836 -1.287763
v 0.077856 1.465336 -1.287763
v 0.092247 1.466753 -1.287763
v 0.106084 1.470951 -1.287763
v 0.118837 1.477767 -1.287763
v 0.130015 1.486940 -1.287763
v 0.139188 1.498118 -1.287763
v 0.146005 1.510871 -1.287763
v 0.150202 1.524708 -1.287763
v 0.151620 1.539099 -1.287763
v 0.150202 1.553489 -1.287763
v 0.146005 1.567327 -1.287763
v 0.139188 1.580080 -1.287763
v 0.130015 1.591257 -1.287763
v 0.118837 1.600431 -1.287763
v 0.106084 1.607247 -1.287763
v 0.092247 1.611445 -1.287763
v 0.077856 1.612862 -1.287763
v 0.063466 1.611445 -1.287763
v 0.049629 1.607247 -1.287763
v 0.036876 1.600431 -1.287763
v 0.025698 1.591257 -1.287763
v 0.016525 1.580080 -1.287763
v 0.009708 1.567327 -1.287763
v 0.005510 1.553489 -1.287763
v 0.004093 1.539099 -1.287763
v 0.005510 1.524708 -1.287763
v 0.009708 1.510871 -1.287763
v 0.016525 1.498118 -1.287763
v 0.025698 1.486940 -1.287763
v 0.036876 1.477767 -1.287763
v 0.049629 1.470951 -1.287763
v 0.063466 1.466753 -1.287763
v 0.077856 1.465336 -1.382734
v 0.092247 1.466753 -1.382734
v 0.106084 1.470951 -1.382734
v 0.118837 1.477767 -1.382734
v 0.130015 1.486940 -1.382734
v 0.139188 1.498118 -1.382734
v 0.146005 1.510871 -1.382734
v 0.150202 1.524708 -1.382734
v 0.151620 1.539099 -1.382734
v 0.150202 1.553489 -1.382734
v 0.146005 1.567327 -1.382734
v 0.139188 1.580080 -1.382734
v 0.130015 1.591257 -1.382734
v 0.118837 1.600431 -1.382734
v 0.106084 1.607247 -1.382734
v 0.092247 1.611445 -1.382734
v 0.077856 1.612862 -1.382734
v 0.063466 1.611445 -1.382734
v 0.049629 1.607247 -1.382734
v 0.036876 1.600431 -1.382734
v 0.025698 1.591257 -1.382734
v 0.016525 1.580080 -1.382734
v 0.009708 1.567327 -1.382734
v 0.005510 1.553489 -1.382734
v 0.004093 1.539099 -1.382734
v 0.005510 1.524708 -1.382734
v 0.009708 1.510871 -1.382734
v 0.016525 1.498118 -1.382734
v 0.025698 1.486940 -1.382734
v 0.036876 1.477767 -1.382734
v 0.049629 1.470951 -1.382734
v 0.063466 1.466753 -1.382734
v 0.077856 1.407060 -1.382734
v 0.103616 1.409597 -1.382734
v 0.128385 1.417111 -1.382734
v 0.151213 1.429313 -1.382734
v 0.171222 1.445734 -1.382734
v 0.187643 1.465742 -1.382734
v 0.199844 1.488570 -1.382734
v 0.207358 1.513340 -1.382734
v 0.209895 1.539099 -1.382734
v 0.207358 1.564858 -1.382734
v 0.199844 1.589628 -1.382734
v 0.187643 1.612456 -1.382734
v 0.171222 1.632465 -1.382734
v 0.151213 1.648885 -1.382734
v 0.128385 1.661087 -1.382734
v 0.103616 1.668601 -1.382734
v 0.077856 1.671138 -1.382734
v 0.052097 1.668601 -1.382734
v 0.027327 1.661087 -1.382734
v 0.004499 1.648885 -1.382734
v -0.015509 1.632465 -1.382734
v -0.031930 1.612456 -1.382734
v -0.044131 1.589628 -1.382734
v -0.051645 1.564858 -1.382734
v -0.054183 1.539099 -1.382734
v -0.051645 1.513340 -1.382734
v -0.044131 1.488570 -1.382734
v -0.031930 1.465742 -1.382734
v -0.015509 1.445734 -1.382734
v 0.004499 1.429313 -1.382734
v 0.027327 1.417111 -1.382734
v 0.052097 1.409597 -1.382734
v 0.077856 1.407060 -1.420723
v 0.103616 1.409597 -1.420723
v 0.128385 1.417111 -1.420723
v 0.151213 1.429313 -1.420723
v 0.171222 1.445734 -1.420723
v 0.187643 1.465742 -1.420723
v 0.199844 1.488570 -1.420723
v 0.207358 1.513340 -1.420723
v 0.209895 1.539099 -1.420723
v 0.207358 1.564858 -1.420723
v 0.199844 1.589628 -1.420723
v 0.187643 1.612456 -1.420723
v 0.171222 1.632465 -1.420723
v 0.151213 1.648885 -1.420723
v 0.128385 1.661087 -1.420723
v 0.103616 1.668601 -1.420723
v 0.077856 1.671138 -1.420723
v 0.052097 1.668601 -1.420723
v 0.027327 1.661087 -1.420723
v 0.004499 1.648885 -1.420723
v -0.015509 1.632465 -1.420723
v -0.031930 1.612456 -1.420723
v -0.044131 1.589628 -1.420723
v -0.051645 1.564858 -1.420723
v -0.054183 1.539099 -1.420723
v -0.051645 1.513340 -1.420723
v -0.044131 1.488570 -1.420723
v -0.031930 1.465742 -1.420723
v -0.015509 1.445734 -1.420723
v 0.004499 1.429313 -1.420723
v 0.027327 1.417111 -1.420723
v 0.052097 1.409597 -1.420723
v 0.077856 1.422553 -1.420723
v 0.100593 1.424792 -1.420723
v 0.122457 1.431424 -1.420723
v 0.142606 1.442194 -1.420723
v 0.160267 1.456688 -1.420723
v 0.174761 1.474349 -1.420723
v 0.185531 1.494498 -1.420723
v 0.192163 1.516362 -1.420723
v 0.194403 1.539099 -1.420723
v 0.192163 1.561836 -1.420723
v 0.185531 1.583699 -1.420723
v 0.174761 1.603849 -1.420723
v 0.160267 1.621510 -1.420723
v 0.142606 1.636004 -1.420723
v 0.122457 1.646774 -1.420723
v 0.100593 1.653406 -1.420723
v 0.077856 1.655645 -1.420723
v 0.055119 1.653406 -1.420723
v 0.033256 1.646774 -1.420723
v 0.013107 1.636004 -1.420723
v -0.004554 1.621510 -1.420723
v -0.019048 1.603849 -1.420723
v -0.029818 1.583699 -1.420723
v -0.036450 1.561836 -1.420723
v -0.038690 1.539099 -1.420723
v -0.036450 1.516362 -1.420723
v -0.029818 1.494498 -1.420723
v -0.019048 1.474349 -1.420723
v -0.004554 1.456688 -1.420723
v 0.013107 1.442194 -1.420723
v 0.033256 1.431424 -1.420723
v 0.055119 1.424792 -1.420723
v 0.077856 1.422553 -1.490856
v 0.100593 1.424792 -1.490856
v 0.122457 1.431424 -1.490856
v 0.142606 1.442194 -1.490856
v 0.160267 1.456688 -1.490856
v 0.174761 1.474349 -1.490856
v 0.185531 1.494498 -1.490856
v 0.192163 1.516362 -1.490856
v 0.194403 1.539099 -1.490856
v 0.192163 1.561836 -1.490856
v 0.185531 1.583699 -1.490856
v 0.174761 1.603849 -1.490856
v 0.160267 1.621510 -1.490856
v 0.142606 1.636004 -1.490856
v 0.122457 1.646774 -1.490856
v 0.100593 1.653406 -1.490856
v 0.077856 1.655645 -1.490856
v 0.055119 1.653406 -1.490856
v 0.033256 1.646774 -1.490856
v 0.013107 1.636004 -1.490856
v -0.004554 1.621510 -1.490856
v -0.019048 1.603849 -1.490856
v -0.029818 1.583699 -1.490856
v -0.036450 1.561836 -1.490856
v -0.038690 1.539099 -1.490856
v -0.036450 1.516362 -1.490856
v -0.029818 1.494498 -1.490856
v -0.019048 1.474349 -1.490856
v -0.004554 1.456688 -1.490856
v 0.013107 1.442194 -1.490856
v 0.033256 1.431424 -1.490856
v 0.055119 1.424792 -1.490856
v 0.077856 1.376293 -1.490855
v 0.109618 1.379422 -1.490855
v 0.140160 1.388686 -1.490855
v 0.168306 1.403731 -1.490855
v 0.192977 1.423978 -1.490855
v 0.213224 1.448649 -1.490855
v 0.228269 1.476796 -1.490855
v 0.237534 1.507337 -1.490855
v 0.240662 1.539099 -1.490855
v 0.237534 1.570861 -1.490855
v 0.228269 1.601402 -1.490855
v 0.213224 1.629549 -1.490855
v 0.192977 1.654220 -1.490855
v 0.168306 1.674467 -1.490855
v 0.140160 1.689512 -1.490855
v 0.109618 1.698776 -1.490855
v 0.077856 1.701905 -1.490855
v 0.046094 1.698776 -1.490855
v 0.015553 1.689512 -1.490855
v -0.012594 1.674467 -1.490855
v -0.037264 1.654220 -1.490855
v -0.057511 1.629549 -1.490855
v -0.072557 1.601402 -1.490855
v -0.081821 1.570861 -1.490855
v -0.084949 1.539099 -1.490855
v -0.081821 1.507337 -1.490855
v -0.072557 1.476796 -1.490855
v -0.057511 1.448649 -1.490855
v -0.037264 1.423978 -1.490855
v -0.012594 1.403731 -1.490855
v 0.015553 1.388686 -1.490855
v 0.046094 1.379422 -1.490855
v 0.077856 1.376293 -1.520808
v 0.109618 1.379422 -1.520808
v 0.140160 1.388686 -1.520808
v 0.168306 1.403731 -1.520808
v 0.192977 1.423978 -1.520808
v 0.213224 1.448649 -1.520808
v 0.228269 1.476796 -1.520808
v 0.237534 1.507337 -1.520808
v 0.240662 1.539099 -1.520808
v 0.237534 1.570861 -1.520808
v 0.228269 1.601402 -1.520808
v 0.213224 1.629549 -1.520808
v 0.192977 1.654220 -1.520808
v 0.168306 1.674467 -1.520808
v 0.140160 1.689512 -1.520808
v 0.109618 1.698776 -1.520808
v 0.077856 1.701905 -1.520808
v 0.046094 1.698776 -1.520808
v 0.015553 1.689512 -1.520808
v -0.012594 1.674467 -1.520808
v -0.037264 1.654220 -1.520808
v -0.057511 1.629549 -1.520808
v -0.072557 1.601402 -1.520808
v -0.081821 1.570861 -1.520808
v -0.084949 1.539099 -1.520808
v -0.081821 1.507337 -1.520808
v -0.072557 1.476796 -1.520808
v -0.057511 1.448649 -1.520808
v -0.037264 1.423978 -1.520808
v -0.012594 1.403731 -1.520808
v 0.015553 1.388686 -1.520808
v 0.046094 1.379422 -1.520808
v 0.077856 1.337810 -1.520808
v 0.117126 1.341678 -1.520808
v 0.154886 1.353132 -1.520808
v 0.189687 1.371733 -1.520808
v 0.220189 1.396766 -1.520808
v 0.245222 1.427269 -1.520808
v 0.263823 1.462069 -1.520808
v 0.275278 1.499830 -1.520808
v 0.279145 1.539099 -1.520808
v 0.275278 1.578369 -1.520808
v 0.263823 1.616129 -1.520808
v 0.245222 1.650929 -1.520808
v 0.220189 1.681432 -1.520808
v 0.189687 1.706465 -1.520808
v 0.154886 1.725066 -1.520808
v 0.117126 1.736521 -1.520808
v 0.077856 1.740388 -1.520808
v 0.038587 1.736521 -1.520808
v 0.000826 1.725066 -1.520808
v -0.033974 1.706465 -1.520808
v -0.064477 1.681432 -1.520808
v -0.089510 1.650929 -1.520808
v -0.108110 1.616129 -1.520808
v -0.119565 1.578369 -1.520808
v -0.123433 1.539099 -1.520808
v -0.119565 1.499830 -1.520808
v -0.108110 1.462069 -1.520808
v -0.089510 1.427269 -1.520808
v -0.064477 1.396766 -1.520808
v -0.033974 1.371733 -1.520808
v 0.000826 1.353132 -1.520808
v 0.038587 1.341678 -1.520808
v 0.077856 1.337810 -1.726093
v 0.117126 1.341678 -1.726093
v 0.154886 1.353132 -1.726093
v 0.189687 1.371733 -1.726093
v 0.220189 1.396766 -1.726093
v 0.245222 1.427269 -1.726093
v 0.263823 1.462069 -1.726093
v 0.275278 1.499830 -1.726093
v 0.279145 1.539099 -1.726093
v 0.275278 1.578369 -1.726093
v 0.263823 1.616129 -1.726093
v 0.245222 1.650929 -1.726093
v 0.220189 1.681432 -1.726093
v 0.189687 1.706465 -1.726093
v 0.154886 1.725066 -1.726093
v 0.117126 1.736521 -1.726093
v 0.077856 1.740388 -1.726093
v 0.038587 1.736521 -1.726093
v 0.000826 1.725066 -1.726093
v -0.033974 1.706465 -1.726093
v -0.064477 1.681432 -1.726093
v -0.089510 1.650929 -1.726093
v -0.108110 1.616129 -1.726093
v -0.119565 1.578369 -1.726093
v -0.123433 1.539099 -1.726093
v -0.119565 1.499830 -1.726093
v -0.108110 1.462069 -1.726093
v -0.089510 1.427269 -1.726093
v -0.064477 1.396766 -1.726093
v -0.033974 1.371733 -1.726093
v 0.000826 1.353132 -1.726093
v 0.038587 1.341678 -1.726093
v 0.077856 1.422295 -1.726093
v 0.100644 1.424539 -1.726093
v 0.122555 1.431186 -1.726093
v 0.142749 1.441980 -1.726093
v 0.160449 1.456506 -1.726093
v 0.174975 1.474206 -1.726093
v 0.185769 1.494400 -1.726093
v 0.192416 1.516312 -1.726093
v 0.194661 1.539099 -1.726093
v 0.192416 1.561886 -1.726093
v 0.185769 1.583798 -1.726093
v 0.174975 1.603992 -1.726093
v 0.160449 1.621692 -1.726093
v 0.142749 1.636218 -1.726093
v 0.122555 1.647012 -1.726093
v 0.100644 1.653659 -1.726093
v 0.077856 1.655903 -1.726093
v 0.055069 1.653659 -1.726093
v 0.033157 1.647012 -1.726093
v 0.012964 1.636218 -1.726093
v -0.004736 1.621692 -1.726093
v -0.019263 1.603992 -1.726093
v -0.030057 1.583798 -1.726093
v -0.036703 1.561886 -1.726093
v -0.038948 1.539099 -1.726093
v -0.036703 1.516312 -1.726093
v -0.030057 1.494400 -1.726093
v -0.019263 1.474206 -1.726093
v -0.004736 1.456506 -1.726093
v 0.012964 1.441980 -1.726093
v 0.033157 1.431186 -1.726093
v 0.055069 1.424539 -1.726093
v 0.077856 1.422295 -1.744356
v 0.100644 1.424539 -1.744356
v 0.122555 1.431186 -1.744356
v 0.142749 1.441980 -1.744356
v 0.160449 1.456506 -1.744356
v 0.174975 1.474206 -1.744356
v 0.185769 1.494400 -1.744356
v 0.192416 1.516312 -1.744356
v 0.194661 1.539099 -1.744356
v 0.192416 1.561886 -1.744356
v 0.185769 1.583798 -1.744356
v 0.174975 1.603992 -1.744356
v 0.160449 1.621692 -1.744356
v 0.142749 1.636218 -1.744356
v 0.122555 1.647012 -1.744356
v 0.100644 1.653659 -1.744356
v 0.077856 1.655903 -1.744356
v 0.055069 1.653659 -1.744356
v 0.033157 1.647012 -1.744356
v 0.012964 1.636218 -1.744356
v -0.004736 1.621692 -1.744356
v -0.019263 1.603992 -1.744356
v -0.030057 1.583798 -1.744356
v -0.036703 1.561886 -1.744356
v -0.038948 1.539099 -1.744356
v -0.036703 1.516312 -1.744356
v -0.030057 1.494400 -1.744356
v -0.019263 1.474206 -1.744356
v -0.004736 1.456506 -1.744356
v 0.012964 1.441980 -1.744356
v 0.033157 1.431186 -1.744356
v 0.055069 1.424539 -1.744356
v 0.077856 1.402792 -1.763351
v 0.104449 1.405411 -1.763351
v 0.130019 1.413167 -1.763351
v 0.153585 1.425763 -1.763351
v 0.174241 1.442715 -1.763351
v 0.191192 1.463371 -1.763351
v 0.203788 1.486936 -1.763351
v 0.211545 1.512507 -1.763351
v 0.214164 1.539099 -1.763351
v 0.211545 1.565691 -1.763351
v 0.203788 1.591262 -1.763351
v 0.191192 1.614827 -1.763351
v 0.174241 1.635483 -1.763351
v 0.153585 1.652434 -1.763351
v 0.130019 1.665030 -1.763351
v 0.104449 1.672787 -1.763351
v 0.077856 1.675406 -1.763351
v 0.051264 1.672787 -1.763351
v 0.025694 1.665030 -1.763351
v 0.002128 1.652434 -1.763351
v -0.018528 1.635483 -1.763351
v -0.035479 1.614827 -1.763351
v -0.048075 1.591262 -1.763351
v -0.055832 1.565691 -1.763351
v -0.058451 1.539099 -1.763351
v -0.055832 1.512507 -1.763351
v -0.048075 1.486936 -1.763351
v -0.035479 1.463371 -1.763351
v -0.018528 1.442715 -1.763351
v 0.002128 1.425763 -1.763351
v 0.025694 1.413167 -1.763351
v 0.051264 1.405411 -1.763351
v 0.077856 1.402792 -1.954024
v 0.104449 1.405411 -1.954024
v 0.130019 1.413167 -1.954024
v 0.153585 1.425763 -1.954024
v 0.174241 1.442715 -1.954024
v 0.191192 1.463371 -1.954024
v 0.203788 1.486936 -1.954024
v 0.211545 1.512507 -1.954024
v 0.214164 1.539099 -1.954024
v 0.211545 1.565691 -1.954024
v 0.203788 1.591262 -1.954024
v 0.191192 1.614827 -1.954024
v 0.174241 1.635483 -1.954024
v 0.153585 1.652434 -1.954024
v 0.130019 1.665030 -1.954024
v 0.104449 1.672787 -1.954024
v 0.077856 1.675406 -1.954024
v 0.051264 1.672787 -1.954024
v 0.025694 1.665030 -1.954024
v 0.002128 1.652434 -1.954024
v -0.018528 1.635483 -1.954024
v -0.035479 1.614827 -1.954024
v -0.048075 1.591262 -1.954024
v -0.055832 1.565691 -1.954024
v -0.058451 1.539099 -1.954024
v -0.055832 1.512507 -1.954024
v -0.048075 1.486936 -1.954024
v -0.035479 1.463371 -1.954024
v -0.018528 1.442715 -1.954024
v 0.002128 1.425763 -1.954024
v 0.025694 1.413167 -1.954024
v 0.051264 1.405411 -1.954024
v 0.077856 1.437012 -1.991283
v 0.097773 1.438974 -1.991283
v 0.116923 1.444783 -1.991283
v 0.134572 1.454217 -1.991283
v 0.150042 1.466913 -1.991283
v 0.162738 1.482383 -1.991283
v 0.172172 1.500032 -1.991283
v 0.177981 1.519183 -1.991283
v 0.179943 1.539099 -1.991283
v 0.177981 1.559015 -1.991283
v 0.172172 1.578166 -1.991283
v 0.162738 1.595815 -1.991283
v 0.150042 1.611285 -1.991283
v 0.134572 1.623981 -1.991283
v 0.116923 1.633414 -1.991283
v 0.097773 1.639224 -1.991283
v 0.077856 1.641185 -1.991283
v 0.057940 1.639224 -1.991283
v 0.038790 1.633414 -1.991283
v 0.021141 1.623981 -1.991283
v 0.005670 1.611285 -1.991283
v -0.007025 1.595815 -1.991283
v -0.016459 1.578166 -1.991283
v -0.022268 1.559015 -1.991283
v -0.024230 1.539099 -1.991283
v -0.022268 1.519183 -1.991283
v -0.016459 1.500032 -1.991283
v -0.007025 1.482383 -1.991283
v 0.005670 1.466913 -1.991283
v 0.021141 1.454217 -1.991283
v 0.038790 1.444783 -1.991283
v 0.057940 1.438974 -1.991283
v 0.077856 1.437012 -2.136662
v 0.097773 1.438974 -2.136662
v 0.116923 1.444783 -2.136662
v 0.134573 1.454217 -2.136662
v 0.150042 1.466913 -2.136662
v 0.162738 1.482383 -2.136662
v 0.172172 1.500032 -2.136662
v 0.177981 1.519183 -2.136662
v 0.179943 1.539099 -2.136662
v 0.177981 1.559015 -2.136662
v 0.172172 1.578166 -2.136662
v 0.162738 1.595815 -2.136662
v 0.150042 1.611285 -2.136662
v 0.134573 1.623981 -2.136662
v 0.116923 1.633414 -2.136662
v 0.097773 1.639224 -2.136662
v 0.077856 1.641185 -2.136662
v 0.057940 1.639224 -2.136662
v 0.038790 1.633414 -2.136662
v 0.021141 1.623981 -2.136662
v 0.005670 1.611285 -2.136662
v -0.007025 1.595815 -2.136662
v -0.016459 1.578166 -2.136662
v -0.022268 1.559015 -2.136662
v -0.024230 1.539099 -2.136662
v -0.022268 1.519183 -2.136662
v -0.016459 1.500032 -2.136662
v -0.007025 1.482383 -2.136662
v 0.005670 1.466913 -2.136662
v 0.021141 1.454217 -2.136662
v 0.038790 1.444783 -2.136662
v 0.057940 1.438974 -2.136662
v -0.056946 1.539099 -0.578850
v -0.046685 1.487512 -0.578850
v -0.054356 1.512800 -0.578850
v -0.054356 1.565398 -0.578850
v -0.017464 1.634419 -0.578850
v -0.034228 1.464207 -0.578850
v -0.034228 1.613991 -0.578850
v -0.017464 1.443779 -0.578850
v -0.046685 1.590686 -0.578850
v 0.002964 1.427015 -0.578850
v 0.051557 1.671312 -0.578850
v 0.026269 1.663640 -0.578850
v 0.104155 1.671312 -0.578850
v 0.152749 1.651183 -0.578850
v 0.173176 1.634419 -0.578850
v 0.129443 1.663640 -0.578850
v 0.077856 1.673902 -0.578850
v 0.002964 1.651183 -0.578850
v 0.026269 1.414557 -0.578850
v 0.077856 1.404296 -0.578850
v 0.051557 1.406886 -0.578850
v 0.129443 1.414557 -0.578850
v 0.152749 1.427015 -0.578850
v 0.104155 1.406886 -0.578850
v 0.189941 1.464207 -0.578850
v 0.189941 1.613991 -0.578850
v 0.212659 1.539099 -0.578850
v 0.210069 1.512800 -0.578850
v 0.210069 1.565398 -0.578850
v 0.202398 1.487512 -0.578850
v 0.202398 1.590686 -0.578850
v 0.173176 1.443779 -0.578850
vn -1.0000 -0.0000 -0.0000
vn 0.7071 -0.0000 -0.7071
vn 0.7071 -0.7071 -0.0000
vn 0.7071 0.7071 -0.0000
vn 0.7071 -0.0000 0.7071
vn 1.0000 -0.0000 -0.0000
vn -0.0000 -0.0000 1.0000
vn -0.0000 1.0000 -0.0000
vn -0.0000 -0.0000 -1.0000
vn -0.0000 -1.0000 -0.0000
vn 0.0980 -0.9952 -0.0000
vn 0.2903 -0.9569 -0.0000
vn 0.4714 -0.8819 -0.0000
vn 0.6344 -0.7730 -0.0000
vn 0.7730 -0.6344 -0.0000
vn 0.8819 -0.4714 -0.0000
vn 0.9569 -0.2903 -0.0000
vn 0.9952 -0.0980 -0.0000
vn 0.9952 0.0980 -0.0000
vn 0.9569 0.2903 -0.0000
vn 0.8819 0.4714 -0.0000
vn 0.7730 0.6344 -0.0000
vn 0.6344 0.7730 -0.0000
vn 0.4714 0.8819 -0.0000
vn 0.2903 0.9569 -0.0000
vn 0.0980 0.9952 -0.0000
vn -0.0980 0.9952 -0.0000
vn -0.2903 0.9569 -0.0000
vn -0.4714 0.8819 -0.0000
vn -0.6344 0.7730 -0.0000
vn -0.7730 0.6344 -0.0000
vn -0.8819 0.4714 -0.0000
vn -0.9569 0.2903 -0.0000
vn -0.9952 0.0980 -0.0000
vn -0.9952 -0.0980 -0.0000
vn -0.9569 -0.2903 -0.0000
vn -0.8819 -0.4714 -0.0000
vn -0.7730 -0.6344 -0.0000
vn -0.6344 -0.7730 -0.0000
vn -0.4714 -0.8819 -0.0000
vn -0.2903 -0.9569 -0.0000
vn -0.0980 -0.9952 -0.0000
vn -0.2030 0.6693 0.7147
vn 0.5407 -0.4437 0.7147
vn -0.0686 -0.6961 0.7147
vn -0.3297 0.6168 0.7147
vn 0.6168 -0.3297 0.7147
vn -0.4437 0.5407 0.7147
vn 0.6693 -0.2030 0.7147
vn -0.5407 0.4437 0.7147
vn 0.6961 -0.0686 0.7147
vn -0.6168 0.3297 0.7147
vn 0.6961 0.0686 0.7147
vn -0.6693 0.2030 0.7147
vn 0.6693 0.2030 0.7147
vn -0.6961 0.0686 0.7147
vn 0.6168 0.3297 0.7147
vn -0.6961 -0.0686 0.7147
vn 0.5407 0.4437 0.7147
vn -0.6693 -0.2030 0.7147
vn 0.4437 0.5407 0.7147
vn -0.6168 -0.3297 0.7147
vn 0.3297 0.6168 0.7147
vn 0.0686 -0.6961 0.7147
vn -0.5407 -0.4437 0.7147
vn 0.2030 0.6693 0.7147
vn 0.2030 -0.6693 0.7147
vn -0.4437 -0.5407 0.7147
vn 0.0686 0.6961 0.7147
vn 0.3297 -0.6168 0.7147
vn -0.3297 -0.6168 0.7147
vn -0.0686 0.6961 0.7147
vn 0.4437 -0.5407 0.7147
vn -0.2030 -0.6693 0.7147
vn -0.7346 0.0723 -0.6747
vn 0.6510 0.3479 -0.6747
vn -0.7346 -0.0723 -0.6747
vn 0.5706 0.4683 -0.6747
vn -0.7063 -0.2143 -0.6747
vn 0.4683 0.5706 -0.6747
vn -0.6510 -0.3479 -0.6747
vn 0.3479 0.6510 -0.6747
vn 0.0724 -0.7346 -0.6747
vn -0.5706 -0.4683 -0.6747
vn 0.2143 0.7063 -0.6747
vn 0.2143 -0.7063 -0.6747
vn -0.4683 -0.5706 -0.6747
vn 0.0723 0.7346 -0.6747
vn 0.3479 -0.6510 -0.6747
vn -0.3479 -0.6510 -0.6747
vn -0.0723 0.7346 -0.6747
vn 0.4683 -0.5706 -0.6747
vn -0.2143 -0.7063 -0.6747
vn -0.2143 0.7063 -0.6747
vn 0.5706 -0.4683 -0.6747
vn -0.0724 -0.7346 -0.6747
vn -0.3479 0.6510 -0.6747
vn 0.6510 -0.3479 -0.6747
vn -0.4683 0.5706 -0.6747
vn 0.7063 -0.2143 -0.6747
vn -0.5706 0.4683 -0.6747
vn 0.7346 -0.0723 -0.6747
vn -0.6510 0.3479 -0.6747
vn 0.7346 0.0723 -0.6747
vn -0.7063 0.2143 -0.6747
vn 0.7063 0.2143 -0.6747
vt 0.375000 0.093235
vt 0.625000 0.093235
vt 0.625000 0.250000
vt 0.375000 0.250000
vt 0.615895 0.502943
vt 0.384105 0.502943
vt 0.369120 0.494120
vt 0.630880 0.494120
vt 0.369120 0.658259
vt 0.384105 0.656017
vt 0.630880 0.658259
vt 0.630880 0.755880
vt 0.615895 0.747057
vt 0.615895 0.656017
vt 0.369120 0.755880
vt 0.384105 0.747057
vt 0.351468 0.662617
vt 0.351468 0.750988
vt 0.625000 1.000000
vt 0.375000 1.000000
vt 0.875000 0.656765
vt 0.875000 0.750000
vt 0.582024 0.358313
vt 0.599784 0.460628
vt 0.605725 0.451122
vt 0.610032 0.440277
vt 0.612558 0.428508
vt 0.613221 0.416270
vt 0.612009 0.404032
vt 0.608977 0.392263
vt 0.604247 0.381418
vt 0.598008 0.371912
vt 0.590504 0.364110
vt 0.572889 0.354744
vt 0.563441 0.353538
vt 0.554028 0.354744
vt 0.544998 0.358313
vt 0.536686 0.364110
vt 0.529400 0.371912
vt 0.523418 0.381418
vt 0.518972 0.392264
vt 0.516241 0.404032
vt 0.515343 0.416270
vt 0.516325 0.428508
vt 0.519164 0.440276
vt 0.523761 0.451122
vt 0.529943 0.460628
vt 0.537476 0.468430
vt 0.546067 0.474227
vt 0.555381 0.477797
vt 0.565055 0.479002
vt 0.574708 0.477797
vt 0.583957 0.474227
vt 0.592430 0.468430
vt 0.875000 0.500000
vt 0.125000 0.500000
vt 0.125000 0.656765
vt 0.375000 0.000000
vt 0.625000 0.000000
vt 0.142652 0.661231
vt 0.142652 0.746067
vt 0.125000 0.750000
vt 1.000000 0.500000
vt 1.000000 1.000000
vt 0.968750 1.000000
vt 0.968750 0.500000
vt 0.937500 1.000000
vt 0.937500 0.500000
vt 0.906250 1.000000
vt 0.906250 0.500000
vt 0.875000 1.000000
vt 0.843750 1.000000
vt 0.843750 0.500000
vt 0.812500 1.000000
vt 0.812500 0.500000
vt 0.781250 1.000000
vt 0.781250 0.500000
vt 0.750000 1.000000
vt 0.750000 0.500000
vt 0.718750 1.000000
vt 0.718750 0.500000
vt 0.687500 1.000000
vt 0.687500 0.500000
vt 0.656250 1.000000
vt 0.656250 0.500000
vt 0.625000 0.500000
vt 0.593750 1.000000
vt 0.593750 0.500000
vt 0.562500 1.000000
vt 0.562500 0.500000
vt 0.531250 1.000000
vt 0.531250 0.500000
vt 0.500000 1.000000
vt 0.500000 0.500000
vt 0.468750 1.000000
vt 0.468750 0.500000
vt 0.437500 1.000000
vt 0.437500 0.500000
vt 0.406250 1.000000
vt 0.406250 0.500000
vt 0.375000 0.500000
vt 0.343750 1.000000
vt 0.343750 0.500000
vt 0.312500 1.000000
vt 0.312500 0.500000
vt 0.281250 1.000000
vt 0.281250 0.500000
vt 0.250000 1.000000
vt 0.250000 0.500000
vt 0.218750 1.000000
vt 0.218750 0.500000
vt 0.187500 1.000000
vt 0.187500 0.500000
vt 0.156250 1.000000
vt 0.156250 0.500000
vt 0.125000 1.000000
vt 0.093750 1.000000
vt 0.093750 0.500000
vt 0.062500 1.000000
vt 0.062500 0.500000
vt 0.687500 1.000000
vt 0.031250 1.000000
vt 0.031250 0.500000
vt 0.000000 1.000000
vt 0.000000 0.500000
vt 0.968750 0.500000
vt 0.432571 1.000000
vt 0.823713 1.000000
vt 0.966434 1.000000
vt 0.398085 1.000000
vt 0.932571 1.000000
vt 0.362337 1.000000
vt 0.898085 1.000000
vt 0.323711 1.000000
vt 0.466434 1.000000
vt 0.862337 1.000000
vt 0.964241 1.000000
vt 0.927903 1.000000
vt 0.890354 1.000000
vt 0.464241 1.000000
vt 0.850347 1.000000
vt 0.427903 1.000000
vt 0.390354 1.000000
vt 0.350348 1.000000
vt 0.526106 1.000000
vt 0.077219 1.000000
vt 0.052006 1.000000
vt 0.843750 1.000000
vt 0.026106 1.000000
vt 0.600996 1.000000
vt 0.577219 1.000000
vt 0.552006 1.000000
vt 0.100996 1.000000
vt 0.538763 1.000000
vt 0.519614 1.000000
vt 0.038763 1.000000
vt 0.019614 1.000000
vt 0.406250 1.000000
vt 0.943075 1.000000
vt 0.443074 1.000000
vt 0.781250 1.000000
vt 0.718750 1.000000
vt 0.218750 1.000000
vt 0.631735 1.000000
vt 0.607891 1.000000
vt 0.581968 1.000000
vt 0.131735 1.000000
vt 0.555020 1.000000
vt 0.107890 1.000000
vt 0.527584 1.000000
vt 0.081967 1.000000
vt 0.055020 1.000000
vt 0.027583 1.000000
vt 0.781250 1.000000
vt 0.379168 1.000000
vt 0.961068 1.000000
vt 0.921150 1.000000
vt 0.879168 1.000000
vt 0.461068 1.000000
vt 0.421149 1.000000
vt 0.535743 1.000000
vt 0.518134 1.000000
vt 0.035744 1.000000
vt 0.018134 1.000000
vt 0.718750 1.000000
vt 0.656250 1.000000
vt 0.028269 0.341844
vt 0.014612 0.296822
vt 0.010000 0.250000
vt 0.050447 0.383337
vt 0.080294 0.419706
vt 0.116663 0.449553
vt 0.158156 0.471731
vt 0.203178 0.485388
vt 0.250000 0.490000
vt 0.296822 0.485388
vt 0.341844 0.471731
vt 0.383337 0.050447
vt 0.419706 0.080294
vt 0.449553 0.116663
vt 0.471731 0.158156
vt 0.485388 0.203178
vt 0.490000 0.250000
s 0
f 37/1/1 27/2/1 7/3/1 5/4/1
f 21/5/2 17/6/2 19/7/2 23/8/2
f 43/9/3 19/7/3 17/6/3 31/10/3
f 34/11/4 13/12/4 15/13/4 36/14/4
f 13/12/5 41/15/5 10/16/5 15/13/5
f 29/17/6 11/18/6 49/18/6 51/17/6
f 31/10/6 36/14/6 15/13/6 10/16/6
f 41/15/7 13/12/7 3/19/7 40/20/7
f 34/11/8 27/21/8 3/22/8 13/12/8
f 843/23/9 7/3/9 23/8/9 849/24/9 848/25/9 850/26/9 847/27/9 851/28/9 845/29/9 846/30/9 852/31/9 839/32/9 841/33/9
f 849/24/9 23/8/9 19/7/9 5/4/9 7/3/9 843/23/9 838/34/9 835/35/9 837/36/9 836/37/9 840/38/9 842/39/9 844/40/9 853/41/9 855/42/9 854/43/9 858/44/9 856/45/9 857/46/9 866/47/9 859/48/9 864/49/9 862/50/9 861/51/9 863/52/9 865/53/9 860/54/9
f 23/8/8 7/55/8 27/21/8 34/11/8
f 17/6/6 21/5/6 36/14/6 31/10/6
f 5/56/10 19/7/10 43/9/10 37/57/10
f 23/8/4 34/11/4 36/14/4 21/5/4
f 41/15/3 43/9/3 31/10/3 10/16/3
f 40/58/1 3/59/1 27/2/1 37/1/1
f 25/60/10 1/61/10 40/62/10 37/57/10
f 1/61/10 11/18/10 41/15/10 40/62/10
f 11/18/10 29/17/10 43/9/10 41/15/10
f 29/17/10 25/60/10 37/57/10 43/9/10
f 45/60/8 51/17/8 59/17/8 53/60/8
f 1/61/1 25/60/1 45/60/1 48/61/1
f 25/60/9 29/17/9 51/17/9 45/60/9
f 11/18/7 1/61/7 48/61/7 49/18/7
f 59/17/6 57/18/6 66/18/6 68/17/6
f 49/18/8 48/61/8 56/61/8 57/18/8
f 51/17/8 49/18/8 57/18/8 59/17/8
f 48/61/8 45/60/8 53/60/8 56/61/8
f 61/60/10 68/17/10 66/18/10 64/61/10
f 56/61/1 53/60/1 61/60/1 64/61/1
f 53/60/9 59/17/9 68/17/9 61/60/9
f 57/18/7 56/61/7 64/61/7 66/18/7
f 2/63/11 4/64/11 8/65/11 6/66/11
f 6/66/12 8/65/12 12/67/12 9/68/12
f 9/68/13 12/67/13 16/69/13 14/70/13
f 14/70/14 16/69/14 20/71/14 18/55/14
f 18/55/15 20/71/15 24/72/15 22/73/15
f 22/73/16 24/72/16 28/74/16 26/75/16
f 26/75/17 28/74/17 32/76/17 30/77/17
f 30/77/18 32/76/18 35/78/18 33/79/18
f 33/79/19 35/78/19 39/80/19 38/81/19
f 38/81/20 39/80/20 44/82/20 42/83/20
f 42/83/21 44/82/21 47/84/21 46/85/21
f 46/85/22 47/84/22 52/19/22 50/86/22
f 50/86/23 52/19/23 55/87/23 54/88/23
f 54/88/24 55/87/24 60/89/24 58/90/24
f 58/90/25 60/89/25 63/91/25 62/92/25
f 62/92/26 63/91/26 67/93/26 65/94/26
f 65/94/27 67/93/27 70/95/27 69/96/27
f 69/96/28 70/95/28 72/97/28 71/98/28
f 71/98/29 72/97/29 74/99/29 73/100/29
f 73/100/30 74/99/30 76/20/30 75/101/30
f 75/101/31 76/20/31 78/102/31 77/103/31
f 77/103/32 78/102/32 80/104/32 79/105/32
f 79/105/33 80/104/33 82/106/33 81/107/33
f 81/107/34 82/106/34 84/108/34 83/109/34
f 83/109/35 84/108/35 86/110/35 85/111/35
f 85/111/36 86/110/36 88/112/36 87/113/36
f 87/113/37 88/112/37 90/114/37 89/115/37
f 89/115/38 90/114/38 92/116/38 91/56/38
f 91/56/39 92/116/39 94/117/39 93/118/39
f 93/118/40 94/117/40 96/119/40 95/120/40
f 44/82/7 39/121/7 140/80/7 141/82/7
f 95/120/41 96/119/41 98/122/41 97/123/41
f 97/123/42 98/122/42 4/124/42 2/125/42
f 22/73/9 26/75/9 105/75/9 104/73/9
f 854/63/11 99/63/11 100/66/11 858/126/11
f 58/90/9 62/92/9 114/92/9 113/90/9
f 81/107/9 83/107/9 123/109/9 122/107/9
f 6/66/9 9/68/9 101/68/9 100/66/9
f 42/83/9 46/85/9 110/85/9 109/83/9
f 73/100/9 75/101/9 119/101/9 118/100/9
f 91/56/9 93/118/9 128/118/9 127/56/9
f 26/75/9 30/75/9 106/77/9 105/75/9
f 62/92/9 65/94/9 115/94/9 114/92/9
f 83/109/9 85/111/9 124/109/9 123/109/9
f 9/68/9 14/70/9 102/70/9 101/68/9
f 46/85/9 50/86/9 111/86/9 110/85/9
f 75/101/9 77/103/9 120/103/9 119/101/9
f 93/118/9 95/120/9 129/120/9 128/118/9
f 30/77/9 33/77/9 107/79/9 106/77/9
f 65/94/9 69/96/9 116/96/9 115/94/9
f 85/111/9 87/113/9 125/111/9 124/111/9
f 14/70/9 18/55/9 103/55/9 102/70/9
f 50/86/9 54/88/9 112/88/9 111/86/9
f 77/103/9 79/105/9 121/105/9 120/103/9
f 95/120/9 97/123/9 130/123/9 129/120/9
f 33/79/9 38/81/9 108/79/9 107/79/9
f 69/96/9 71/98/9 117/98/9 116/96/9
f 87/113/9 89/115/9 126/115/9 125/113/9
f 18/55/9 22/73/9 104/73/9 103/55/9
f 54/88/9 58/90/9 113/90/9 112/88/9
f 79/105/9 81/105/9 122/107/9 121/105/9
f 2/63/9 6/66/9 100/66/9 99/63/9
f 97/123/9 2/125/9 99/125/9 130/123/9
f 38/81/9 42/83/9 109/81/9 108/81/9
f 71/98/9 73/100/9 118/100/9 117/98/9
f 89/115/9 91/56/9 127/56/9 126/115/9
f 840/115/38 126/115/38 127/56/38 842/56/38
f 850/90/25 113/90/25 114/92/25 847/92/25
f 858/126/12 100/66/12 101/68/12 856/68/12
f 842/56/39 127/56/39 128/118/39 844/118/39
f 847/92/26 114/92/26 115/94/26 851/94/26
f 856/68/13 101/68/13 102/70/13 857/70/13
f 844/118/40 128/118/40 129/120/40 853/120/40
f 851/94/27 115/94/27 116/96/27 845/96/27
f 857/70/14 102/70/14 103/55/14 866/55/14
f 853/120/41 129/120/41 130/123/41 855/123/41
f 845/96/28 116/96/28 117/98/28 846/98/28
f 866/55/15 103/55/15 104/73/15 859/73/15
f 855/123/42 130/123/42 99/125/42 854/125/42
f 846/98/29 117/98/29 118/100/29 852/100/29
f 859/73/16 104/73/16 105/75/16 864/75/16
f 852/100/30 118/100/30 119/101/30 839/101/30
f 864/75/17 105/75/17 106/77/17 862/77/17
f 839/101/31 119/101/31 120/103/31 841/103/31
f 862/77/18 106/77/18 107/79/18 861/79/18
f 841/103/32 120/103/32 121/105/32 843/105/32
f 861/79/19 107/79/19 108/81/19 863/81/19
f 843/105/33 121/105/33 122/107/33 838/107/33
f 863/81/20 108/81/20 109/83/20 865/83/20
f 838/107/34 122/107/34 123/109/34 835/109/34
f 865/83/21 109/83/21 110/85/21 860/85/21
f 835/109/35 123/109/35 124/111/35 837/111/35
f 860/85/22 110/85/22 111/86/22 849/86/22
f 837/111/36 124/111/36 125/113/36 836/113/36
f 849/86/23 111/86/23 112/88/23 848/88/23
f 836/113/37 125/113/37 126/115/37 840/115/37
f 848/88/24 112/88/24 113/90/24 850/90/24
f 138/76/17 137/74/17 169/74/17 170/76/17
f 74/99/7 72/97/7 149/127/7 150/99/7
f 92/116/7 90/114/7 158/114/7 159/116/7
f 28/74/7 24/72/7 136/128/7 137/74/7
f 63/91/7 60/89/7 145/89/7 146/91/7
f 84/108/7 82/106/7 154/108/7 155/108/7
f 12/67/7 8/65/7 132/129/7 133/67/7
f 47/84/7 44/82/7 141/82/7 142/84/7
f 76/20/7 74/99/7 150/130/7 151/20/7
f 94/117/7 92/116/7 159/116/7 160/117/7
f 32/76/7 28/74/7 137/76/7 138/76/7
f 67/93/7 63/91/7 146/91/7 147/93/7
f 86/110/7 84/110/7 155/108/7 156/110/7
f 16/69/7 12/67/7 133/131/7 134/69/7
f 52/19/7 47/84/7 142/84/7 143/19/7
f 78/102/7 76/20/7 151/132/7 152/102/7
f 96/119/7 94/117/7 160/117/7 161/119/7
f 35/78/7 32/76/7 138/78/7 139/78/7
f 70/95/7 67/93/7 147/93/7 148/95/7
f 88/112/7 86/112/7 156/110/7 157/112/7
f 20/71/7 16/69/7 134/133/7 135/71/7
f 55/87/7 52/19/7 143/19/7 144/87/7
f 80/104/7 78/102/7 152/134/7 153/104/7
f 98/122/7 96/119/7 161/119/7 162/122/7
f 39/80/7 35/80/7 139/78/7 140/80/7
f 72/97/7 70/95/7 148/135/7 149/97/7
f 90/114/7 88/112/7 157/112/7 158/114/7
f 24/72/7 20/71/7 135/136/7 136/72/7
f 60/89/7 55/87/7 144/87/7 145/89/7
f 82/106/7 80/104/7 153/106/7 154/106/7
f 8/65/7 4/64/7 131/64/7 132/65/7
f 4/124/7 98/122/7 162/122/7 131/124/7
f 173/82/7 172/82/7 204/80/7 205/82/7
f 152/102/31 151/20/31 183/20/31 184/102/31
f 139/78/18 138/76/18 170/76/18 171/78/18
f 153/104/32 152/102/32 184/102/32 185/104/32
f 140/80/19 139/78/19 171/78/19 172/80/19
f 154/106/33 153/104/33 185/104/33 186/106/33
f 141/82/20 140/80/20 172/80/20 173/82/20
f 155/108/34 154/106/34 186/106/34 187/108/34
f 142/84/21 141/82/21 173/82/21 174/84/21
f 156/110/35 155/108/35 187/108/35 188/110/35
f 143/19/22 142/84/22 174/84/22 175/19/22
f 157/112/36 156/110/36 188/110/36 189/112/36
f 144/87/23 143/19/23 175/19/23 176/87/23
f 158/114/37 157/112/37 189/112/37 190/114/37
f 145/89/24 144/87/24 176/87/24 177/89/24
f 132/65/11 131/64/11 163/64/11 164/65/11
f 159/116/38 158/114/38 190/114/38 191/116/38
f 146/91/25 145/89/25 177/89/25 178/91/25
f 133/67/12 132/65/12 164/65/12 165/67/12
f 160/117/39 159/116/39 191/116/39 192/117/39
f 147/93/26 146/91/26 178/91/26 179/93/26
f 134/69/13 133/67/13 165/67/13 166/69/13
f 161/119/40 160/117/40 192/117/40 193/119/40
f 148/95/27 147/93/27 179/93/27 180/95/27
f 135/71/14 134/69/14 166/69/14 167/71/14
f 162/122/41 161/119/41 193/119/41 194/122/41
f 149/97/28 148/95/28 180/95/28 181/97/28
f 136/72/15 135/71/15 167/71/15 168/72/15
f 131/124/42 162/122/42 194/122/42 163/124/42
f 150/99/29 149/97/29 181/97/29 182/99/29
f 137/74/16 136/72/16 168/72/16 169/74/16
f 151/20/30 150/99/30 182/99/30 183/20/30
f 208/87/23 207/19/23 239/19/23 240/87/23
f 187/108/7 186/106/7 218/108/7 219/108/7
f 174/84/7 173/84/7 205/82/7 206/84/7
f 188/110/7 187/110/7 219/108/7 220/110/7
f 175/19/7 174/84/7 206/84/7 207/19/7
f 189/112/7 188/112/7 220/110/7 221/112/7
f 176/87/7 175/19/7 207/19/7 208/87/7
f 190/114/7 189/114/7 221/112/7 222/114/7
f 177/89/7 176/87/7 208/87/7 209/89/7
f 164/65/7 163/64/7 195/64/7 196/65/7
f 191/116/7 190/114/7 222/114/7 223/116/7
f 178/91/7 177/89/7 209/89/7 210/91/7
f 165/67/7 164/65/7 196/137/7 197/67/7
f 192/117/7 191/116/7 223/116/7 224/117/7
f 179/93/7 178/91/7 210/91/7 211/93/7
f 166/69/7 165/67/7 197/138/7 198/69/7
f 193/119/7 192/117/7 224/117/7 225/119/7
f 180/95/7 179/93/7 211/93/7 212/95/7
f 167/71/7 166/69/7 198/139/7 199/71/7
f 194/122/7 193/119/7 225/119/7 226/122/7
f 181/97/7 180/95/7 212/140/7 213/97/7
f 168/72/7 167/71/7 199/141/7 200/72/7
f 163/124/7 194/122/7 226/122/7 195/124/7
f 182/99/7 181/97/7 213/142/7 214/99/7
f 169/74/7 168/72/7 200/74/7 201/74/7
f 183/20/7 182/99/7 214/143/7 215/20/7
f 170/76/7 169/74/7 201/76/7 202/76/7
f 184/102/7 183/20/7 215/144/7 216/102/7
f 171/78/7 170/76/7 202/78/7 203/78/7
f 185/104/7 184/102/7 216/104/7 217/104/7
f 172/80/7 171/80/7 203/78/7 204/80/7
f 186/106/7 185/104/7 217/106/7 218/106/7
f 243/93/9 242/91/9 274/145/9 275/93/9
f 222/114/37 221/112/37 253/112/37 254/114/37
f 209/89/24 208/87/24 240/87/24 241/89/24
f 196/65/11 195/64/11 227/64/11 228/65/11
f 223/116/38 222/114/38 254/114/38 255/116/38
f 210/91/25 209/89/25 241/89/25 242/91/25
f 197/67/12 196/65/12 228/65/12 229/67/12
f 224/117/39 223/116/39 255/116/39 256/117/39
f 211/93/26 210/91/26 242/91/26 243/93/26
f 198/69/13 197/67/13 229/67/13 230/69/13
f 225/119/40 224/117/40 256/117/40 257/119/40
f 212/95/27 211/93/27 243/93/27 244/95/27
f 199/71/14 198/69/14 230/69/14 231/71/14
f 226/122/41 225/119/41 257/119/41 258/122/41
f 213/97/28 212/95/28 244/95/28 245/97/28
f 200/72/15 199/71/15 231/71/15 232/72/15
f 195/124/42 226/122/42 258/122/42 227/124/42
f 214/99/29 213/97/29 245/97/29 246/99/29
f 201/74/16 200/72/16 232/72/16 233/74/16
f 215/20/30 214/99/30 246/99/30 247/20/30
f 202/76/17 201/74/17 233/74/17 234/76/17
f 216/102/31 215/20/31 247/20/31 248/102/31
f 203/78/18 202/76/18 234/76/18 235/78/18
f 217/104/32 216/102/32 248/102/32 249/104/32
f 204/80/19 203/78/19 235/78/19 236/80/19
f 218/106/33 217/104/33 249/104/33 250/106/33
f 205/82/20 204/80/20 236/80/20 237/82/20
f 219/108/34 218/106/34 250/106/34 251/108/34
f 206/84/21 205/82/21 237/82/21 238/84/21
f 220/110/35 219/108/35 251/108/35 252/110/35
f 207/19/22 206/84/22 238/84/22 239/19/22
f 221/112/36 220/110/36 252/110/36 253/112/36
f 278/99/29 277/97/29 309/97/29 310/99/29
f 230/69/9 229/67/9 261/67/9 262/69/9
f 257/119/9 256/117/9 288/146/9 289/119/9
f 244/95/9 243/93/9 275/93/9 276/95/9
f 231/71/9 230/69/9 262/69/9 263/71/9
f 258/122/9 257/119/9 289/147/9 290/122/9
f 245/97/9 244/95/9 276/95/9 277/97/9
f 232/72/9 231/148/9 263/71/9 264/72/9
f 227/124/9 258/122/9 290/149/9 259/124/9
f 246/99/9 245/97/9 277/97/9 278/99/9
f 233/74/9 232/74/9 264/72/9 265/74/9
f 247/20/9 246/99/9 278/99/9 279/20/9
f 234/76/9 233/76/9 265/74/9 266/76/9
f 248/102/9 247/102/9 279/20/9 280/102/9
f 235/78/9 234/78/9 266/76/9 267/78/9
f 249/104/9 248/104/9 280/102/9 281/104/9
f 236/80/9 235/78/9 267/80/9 268/80/9
f 250/106/9 249/106/9 281/104/9 282/106/9
f 237/82/9 236/80/9 268/82/9 269/82/9
f 251/108/9 250/108/9 282/106/9 283/108/9
f 238/84/9 237/82/9 269/84/9 270/84/9
f 252/110/9 251/108/9 283/110/9 284/110/9
f 239/19/9 238/84/9 270/19/9 271/19/9
f 253/112/9 252/110/9 284/112/9 285/112/9
f 240/87/9 239/19/9 271/150/9 272/87/9
f 254/114/9 253/112/9 285/114/9 286/114/9
f 241/89/9 240/87/9 272/151/9 273/89/9
f 228/65/9 227/64/9 259/64/9 260/65/9
f 255/116/9 254/114/9 286/116/9 287/116/9
f 242/91/9 241/89/9 273/152/9 274/91/9
f 229/67/9 228/65/9 260/65/9 261/67/9
f 256/117/9 255/116/9 287/153/9 288/117/9
f 313/104/9 312/104/9 344/102/9 345/104/9
f 265/74/16 264/72/16 296/72/16 297/74/16
f 279/20/30 278/99/30 310/99/30 311/20/30
f 266/76/17 265/74/17 297/74/17 298/76/17
f 280/102/31 279/20/31 311/20/31 312/102/31
f 267/78/18 266/76/18 298/76/18 299/78/18
f 281/104/32 280/102/32 312/102/32 313/104/32
f 268/80/19 267/78/19 299/78/19 300/80/19
f 282/106/33 281/104/33 313/104/33 314/106/33
f 269/82/20 268/80/20 300/80/20 301/82/20
f 283/108/34 282/106/34 314/106/34 315/108/34
f 270/84/21 269/82/21 301/82/21 302/84/21
f 284/110/35 283/108/35 315/108/35 316/110/35
f 271/19/22 270/84/22 302/84/22 303/19/22
f 285/112/36 284/110/36 316/110/36 317/112/36
f 272/87/23 271/19/23 303/19/23 304/87/23
f 286/114/37 285/112/37 317/112/37 318/114/37
f 273/89/24 272/87/24 304/87/24 305/89/24
f 260/65/11 259/64/11 291/64/11 292/65/11
f 287/116/38 286/114/38 318/114/38 319/116/38
f 274/91/25 273/89/25 305/89/25 306/91/25
f 261/67/12 260/65/12 292/65/12 293/67/12
f 288/117/39 287/116/39 319/116/39 320/117/39
f 275/93/26 274/91/26 306/91/26 307/93/26
f 262/69/13 261/67/13 293/67/13 294/69/13
f 289/119/40 288/117/40 320/117/40 321/119/40
f 276/95/27 275/93/27 307/93/27 308/95/27
f 263/71/14 262/69/14 294/69/14 295/71/14
f 290/122/41 289/119/41 321/119/41 322/122/41
f 277/97/28 276/95/28 308/95/28 309/97/28
f 264/72/15 263/71/15 295/71/15 296/72/15
f 259/124/42 290/122/42 322/122/42 291/124/42
f 348/110/35 347/108/35 379/108/35 380/110/35
f 300/80/9 299/78/9 331/80/9 332/80/9
f 314/106/9 313/106/9 345/104/9 346/106/9
f 301/82/9 300/80/9 332/82/9 333/82/9
f 315/108/9 314/108/9 346/106/9 347/108/9
f 302/84/9 301/82/9 333/84/9 334/84/9
f 316/110/9 315/108/9 347/110/9 348/110/9
f 303/19/9 302/84/9 334/19/9 335/19/9
f 317/112/9 316/110/9 348/112/9 349/112/9
f 304/87/9 303/19/9 335/87/9 336/87/9
f 318/114/9 317/112/9 349/114/9 350/114/9
f 305/89/9 304/87/9 336/89/9 337/89/9
f 292/65/9 291/64/9 323/64/9 324/65/9
f 319/116/9 318/114/9 350/116/9 351/116/9
f 306/91/9 305/89/9 337/154/9 338/91/9
f 293/67/9 292/65/9 324/65/9 325/67/9
f 320/117/9 319/116/9 351/117/9 352/117/9
f 307/93/9 306/91/9 338/155/9 339/93/9
f 294/69/9 293/69/9 325/67/9 326/69/9
f 321/119/9 320/117/9 352/119/9 353/119/9
f 308/95/9 307/93/9 339/93/9 340/95/9
f 295/71/9 294/71/9 326/69/9 327/71/9
f 322/122/9 321/119/9 353/156/9 354/122/9
f 309/97/9 308/95/9 340/95/9 341/97/9
f 296/72/9 295/72/9 327/71/9 328/72/9
f 291/124/9 322/122/9 354/157/9 323/124/9
f 310/99/9 309/158/9 341/97/9 342/99/9
f 297/74/9 296/74/9 328/72/9 329/74/9
f 311/20/9 310/20/9 342/99/9 343/20/9
f 298/76/9 297/76/9 329/74/9 330/76/9
f 312/102/9 311/102/9 343/20/9 344/102/9
f 299/78/9 298/78/9 330/76/9 331/78/9
f 383/116/7 382/116/7 414/114/7 415/116/7
f 335/19/22 334/84/22 366/84/22 367/19/22
f 349/112/36 348/110/36 380/110/36 381/112/36
f 336/87/23 335/19/23 367/19/23 368/87/23
f 350/114/37 349/112/37 381/112/37 382/114/37
f 337/89/24 336/87/24 368/87/24 369/89/24
f 324/65/11 323/64/11 355/64/11 356/65/11
f 351/116/38 350/114/38 382/114/38 383/116/38
f 338/91/25 337/89/25 369/89/25 370/91/25
f 325/67/12 324/65/12 356/65/12 357/67/12
f 352/117/39 351/116/39 383/116/39 384/117/39
f 339/93/26 338/91/26 370/91/26 371/93/26
f 326/69/13 325/67/13 357/67/13 358/69/13
f 353/119/40 352/117/40 384/117/40 385/119/40
f 340/95/27 339/93/27 371/93/27 372/95/27
f 327/71/14 326/69/14 358/69/14 359/71/14
f 354/122/41 353/119/41 385/119/41 386/122/41
f 341/97/28 340/95/28 372/95/28 373/97/28
f 328/72/15 327/71/15 359/71/15 360/72/15
f 323/124/42 354/122/42 386/122/42 355/124/42
f 342/99/29 341/97/29 373/97/29 374/99/29
f 329/74/16 328/72/16 360/72/16 361/74/16
f 343/20/30 342/99/30 374/99/30 375/20/30
f 330/76/17 329/74/17 361/74/17 362/76/17
f 344/102/31 343/20/31 375/20/31 376/102/31
f 331/78/18 330/76/18 362/76/18 363/78/18
f 345/104/32 344/102/32 376/102/32 377/104/32
f 332/80/19 331/78/19 363/78/19 364/80/19
f 346/106/33 345/104/33 377/104/33 378/106/33
f 333/82/20 332/80/20 364/80/20 365/82/20
f 347/108/34 346/106/34 378/106/34 379/108/34
f 334/84/21 333/82/21 365/82/21 366/84/21
f 418/122/41 417/119/41 449/119/41 450/122/41
f 370/91/7 369/89/7 401/89/7 402/91/7
f 357/67/7 356/65/7 388/159/7 389/67/7
f 384/117/7 383/117/7 415/116/7 416/117/7
f 371/93/7 370/91/7 402/91/7 403/93/7
f 358/69/7 357/67/7 389/69/7 390/69/7
f 385/119/7 384/119/7 416/117/7 417/119/7
f 372/95/7 371/93/7 403/93/7 404/95/7
f 359/71/7 358/69/7 390/71/7 391/71/7
f 386/122/7 385/119/7 417/119/7 418/122/7
f 373/97/7 372/95/7 404/160/7 405/97/7
f 360/72/7 359/71/7 391/72/7 392/72/7
f 355/124/7 386/122/7 418/122/7 387/124/7
f 374/99/7 373/97/7 405/99/7 406/99/7
f 361/74/7 360/72/7 392/74/7 393/74/7
f 375/20/7 374/99/7 406/20/7 407/20/7
f 362/76/7 361/74/7 393/161/7 394/76/7
f 376/102/7 375/20/7 407/102/7 408/102/7
f 363/78/7 362/76/7 394/78/7 395/78/7
f 377/104/7 376/102/7 408/104/7 409/104/7
f 364/80/7 363/80/7 395/78/7 396/80/7
f 378/106/7 377/104/7 409/106/7 410/106/7
f 365/82/7 364/82/7 396/80/7 397/82/7
f 379/108/7 378/106/7 410/108/7 411/108/7
f 366/84/7 365/84/7 397/82/7 398/84/7
f 380/110/7 379/110/7 411/108/7 412/110/7
f 367/19/7 366/19/7 398/84/7 399/19/7
f 381/112/7 380/112/7 412/110/7 413/112/7
f 368/87/7 367/87/7 399/19/7 400/87/7
f 382/114/7 381/114/7 413/112/7 414/114/7
f 369/89/7 368/89/7 400/87/7 401/89/7
f 356/65/7 355/64/7 387/64/7 388/65/7
f 440/102/9 439/20/9 471/20/9 472/102/9
f 405/97/28 404/95/28 436/95/28 437/97/28
f 392/72/15 391/71/15 423/71/15 424/72/15
f 387/124/42 418/122/42 450/122/42 419/124/42
f 406/99/29 405/97/29 437/97/29 438/99/29
f 393/74/16 392/72/16 424/72/16 425/74/16
f 407/20/30 406/99/30 438/99/30 439/20/30
f 394/76/17 393/74/17 425/74/17 426/76/17
f 408/102/31 407/20/31 439/20/31 440/102/31
f 395/78/18 394/76/18 426/76/18 427/78/18
f 409/104/32 408/102/32 440/102/32 441/104/32
f 396/80/19 395/78/19 427/78/19 428/80/19
f 410/106/33 409/104/33 441/104/33 442/106/33
f 397/82/20 396/80/20 428/80/20 429/82/20
f 411/108/34 410/106/34 442/106/34 443/108/34
f 398/84/21 397/82/21 429/82/21 430/84/21
f 412/110/35 411/108/35 443/108/35 444/110/35
f 399/19/22 398/84/22 430/84/22 431/19/22
f 413/112/36 412/110/36 444/110/36 445/112/36
f 400/87/23 399/19/23 431/19/23 432/87/23
f 414/114/37 413/112/37 445/112/37 446/114/37
f 401/89/24 400/87/24 432/87/24 433/89/24
f 388/65/11 387/64/11 419/64/11 420/65/11
f 415/116/38 414/114/38 446/114/38 447/116/38
f 402/91/25 401/89/25 433/89/25 434/91/25
f 389/67/12 388/65/12 420/65/12 421/67/12
f 416/117/39 415/116/39 447/116/39 448/117/39
f 403/93/26 402/91/26 434/91/26 435/93/26
f 390/69/13 389/67/13 421/67/13 422/69/13
f 417/119/40 416/117/40 448/117/40 449/119/40
f 404/95/27 403/93/27 435/93/27 436/95/27
f 391/71/14 390/69/14 422/69/14 423/71/14
f 475/108/34 474/106/34 506/106/34 507/108/34
f 427/78/9 426/78/9 458/76/9 459/78/9
f 441/104/9 440/104/9 472/102/9 473/104/9
f 428/80/9 427/78/9 459/162/9 460/80/9
f 442/106/9 441/106/9 473/104/9 474/106/9
f 429/82/9 428/80/9 460/82/9 461/82/9
f 443/108/9 442/108/9 474/106/9 475/108/9
f 430/84/9 429/82/9 461/84/9 462/84/9
f 444/110/9 443/108/9 475/163/9 476/110/9
f 431/19/9 430/84/9 462/164/9 463/19/9
f 445/112/9 444/110/9 476/112/9 477/112/9
f 432/87/9 431/19/9 463/165/9 464/87/9
f 446/114/9 445/112/9 477/114/9 478/114/9
f 433/89/9 432/87/9 464/166/9 465/89/9
f 420/65/9 419/64/9 451/64/9 452/65/9
f 447/116/9 446/114/9 478/167/9 479/116/9
f 434/91/9 433/89/9 465/168/9 466/91/9
f 421/67/9 420/65/9 452/65/9 453/67/9
f 448/117/9 447/116/9 479/169/9 480/117/9
f 435/93/9 434/91/9 466/170/9 467/93/9
f 422/69/9 421/67/9 453/67/9 454/69/9
f 449/119/9 448/117/9 480/171/9 481/119/9
f 436/95/9 435/93/9 467/93/9 468/95/9
f 423/71/9 422/69/9 454/69/9 455/71/9
f 450/122/9 449/119/9 481/172/9 482/122/9
f 437/97/9 436/95/9 468/95/9 469/97/9
f 424/72/9 423/71/9 455/71/9 456/72/9
f 419/124/9 450/122/9 482/173/9 451/124/9
f 438/99/9 437/97/9 469/97/9 470/99/9
f 425/74/9 424/74/9 456/72/9 457/74/9
f 439/20/9 438/99/9 470/99/9 471/20/9
f 426/76/9 425/76/9 457/74/9 458/76/9
f 510/114/7 509/114/7 541/112/7 542/114/7
f 462/84/21 461/82/21 493/82/21 494/84/21
f 476/110/35 475/108/35 507/108/35 508/110/35
f 463/19/22 462/84/22 494/84/22 495/19/22
f 477/112/36 476/110/36 508/110/36 509/112/36
f 464/87/23 463/19/23 495/19/23 496/87/23
f 478/114/37 477/112/37 509/112/37 510/114/37
f 465/89/24 464/87/24 496/87/24 497/89/24
f 452/65/11 451/64/11 483/64/11 484/65/11
f 479/116/38 478/114/38 510/114/38 511/116/38
f 466/91/25 465/89/25 497/89/25 498/91/25
f 453/67/12 452/65/12 484/65/12 485/67/12
f 480/117/39 479/116/39 511/116/39 512/117/39
f 467/93/26 466/91/26 498/91/26 499/93/26
f 454/69/13 453/67/13 485/67/13 486/69/13
f 481/119/40 480/117/40 512/117/40 513/119/40
f 468/95/27 467/93/27 499/93/27 500/95/27
f 455/71/14 454/69/14 486/69/14 487/71/14
f 482/122/41 481/119/41 513/119/41 514/122/41
f 469/97/28 468/95/28 500/95/28 501/97/28
f 456/72/15 455/71/15 487/71/15 488/72/15
f 451/124/42 482/122/42 514/122/42 483/124/42
f 470/99/29 469/97/29 501/97/29 502/99/29
f 457/74/16 456/72/16 488/72/16 489/74/16
f 471/20/30 470/99/30 502/99/30 503/20/30
f 458/76/17 457/74/17 489/74/17 490/76/17
f 472/102/31 471/20/31 503/20/31 504/102/31
f 459/78/18 458/76/18 490/76/18 491/78/18
f 473/104/32 472/102/32 504/102/32 505/104/32
f 460/80/19 459/78/19 491/78/19 492/80/19
f 474/106/33 473/104/33 505/104/33 506/106/33
f 461/82/20 460/80/20 492/80/20 493/82/20
f 518/69/13 517/67/13 549/67/13 550/69/13
f 497/89/7 496/87/7 528/87/7 529/89/7
f 484/65/7 483/64/7 515/64/7 516/65/7
f 511/116/7 510/116/7 542/114/7 543/116/7
f 498/91/7 497/89/7 529/89/7 530/91/7
f 485/67/7 484/65/7 516/65/7 517/67/7
f 512/117/7 511/117/7 543/116/7 544/117/7
f 499/93/7 498/91/7 530/91/7 531/93/7
f 486/69/7 485/67/7 517/67/7 518/69/7
f 513/119/7 512/117/7 544/117/7 545/119/7
f 500/95/7 499/93/7 531/93/7 532/95/7
f 487/71/7 486/69/7 518/71/7 519/71/7
f 514/122/7 513/119/7 545/119/7 546/122/7
f 501/97/7 500/95/7 532/95/7 533/97/7
f 488/72/7 487/71/7 519/72/7 520/72/7
f 483/124/7 514/122/7 546/122/7 515/124/7
f 502/99/7 501/97/7 533/97/7 534/99/7
f 489/74/7 488/72/7 520/74/7 521/74/7
f 503/20/7 502/99/7 534/20/7 535/20/7
f 490/76/7 489/74/7 521/174/7 522/76/7
f 504/102/7 503/20/7 535/102/7 536/102/7
f 491/78/7 490/76/7 522/78/7 523/78/7
f 505/104/7 504/102/7 536/104/7 537/104/7
f 492/80/7 491/80/7 523/78/7 524/80/7
f 506/106/7 505/104/7 537/106/7 538/106/7
f 493/82/7 492/82/7 524/80/7 525/82/7
f 507/108/7 506/106/7 538/108/7 539/108/7
f 494/84/7 493/84/7 525/82/7 526/84/7
f 508/110/7 507/110/7 539/108/7 540/110/7
f 495/19/7 494/19/7 526/84/7 527/19/7
f 509/112/7 508/112/7 540/110/7 541/112/7
f 496/87/7 495/87/7 527/19/7 528/87/7
f 553/74/7 552/72/7 584/74/7 585/74/7
f 545/119/40 544/117/40 576/117/40 577/119/40
f 532/95/27 531/93/27 563/93/27 564/95/27
f 519/71/14 518/69/14 550/69/14 551/71/14
f 546/122/41 545/119/41 577/119/41 578/122/41
f 533/97/28 532/95/28 564/95/28 565/97/28
f 520/72/15 519/71/15 551/71/15 552/72/15
f 515/124/42 546/122/42 578/122/42 547/124/42
f 534/99/29 533/97/29 565/97/29 566/99/29
f 521/74/16 520/72/16 552/72/16 553/74/16
f 535/20/30 534/99/30 566/99/30 567/20/30
f 522/76/17 521/74/17 553/74/17 554/76/17
f 536/102/31 535/20/31 567/20/31 568/102/31
f 523/78/18 522/76/18 554/76/18 555/78/18
f 537/104/32 536/102/32 568/102/32 569/104/32
f 524/80/19 523/78/19 555/78/19 556/80/19
f 538/106/33 537/104/33 569/104/33 570/106/33
f 525/82/20 524/80/20 556/80/20 557/82/20
f 539/108/34 538/106/34 570/106/34 571/108/34
f 526/84/21 525/82/21 557/82/21 558/84/21
f 540/110/35 539/108/35 571/108/35 572/110/35
f 527/19/22 526/84/22 558/84/22 559/19/22
f 541/112/36 540/110/36 572/110/36 573/112/36
f 528/87/23 527/19/23 559/19/23 560/87/23
f 542/114/37 541/112/37 573/112/37 574/114/37
f 529/89/24 528/87/24 560/87/24 561/89/24
f 516/65/11 515/64/11 547/64/11 548/65/11
f 543/116/38 542/114/38 574/114/38 575/116/38
f 530/91/25 529/89/25 561/89/25 562/91/25
f 517/67/12 516/65/12 548/65/12 549/67/12
f 544/117/39 543/116/39 575/116/39 576/117/39
f 531/93/26 530/91/26 562/91/26 563/93/26
f 588/80/19 587/78/19 619/78/19 620/80/19
f 567/20/7 566/99/7 598/175/7 599/20/7
f 554/76/7 553/74/7 585/76/7 586/76/7
f 568/102/7 567/20/7 599/102/7 600/102/7
f 555/78/7 554/76/7 586/78/7 587/78/7
f 569/104/7 568/102/7 600/104/7 601/104/7
f 556/80/7 555/80/7 587/78/7 588/80/7
f 570/106/7 569/104/7 601/106/7 602/106/7
f 557/82/7 556/82/7 588/80/7 589/82/7
f 571/108/7 570/106/7 602/108/7 603/108/7
f 558/84/7 557/84/7 589/82/7 590/84/7
f 572/110/7 571/110/7 603/108/7 604/110/7
f 559/19/7 558/19/7 590/84/7 591/19/7
f 573/112/7 572/112/7 604/110/7 605/112/7
f 560/87/7 559/19/7 591/19/7 592/87/7
f 574/114/7 573/114/7 605/112/7 606/114/7
f 561/89/7 560/87/7 592/87/7 593/89/7
f 548/65/7 547/64/7 579/64/7 580/65/7
f 575/116/7 574/116/7 606/114/7 607/116/7
f 562/91/7 561/89/7 593/89/7 594/91/7
f 549/67/7 548/65/7 580/176/7 581/67/7
f 576/117/7 575/116/7 607/116/7 608/117/7
f 563/93/7 562/91/7 594/91/7 595/93/7
f 550/69/7 549/67/7 581/177/7 582/69/7
f 577/119/7 576/117/7 608/117/7 609/119/7
f 564/95/7 563/93/7 595/93/7 596/95/7
f 551/71/7 550/69/7 582/178/7 583/71/7
f 578/122/7 577/119/7 609/119/7 610/122/7
f 565/97/7 564/95/7 596/179/7 597/97/7
f 552/72/7 551/71/7 583/72/7 584/72/7
f 547/124/7 578/122/7 610/122/7 579/124/7
f 566/99/7 565/97/7 597/180/7 598/99/7
f 623/19/9 622/84/9 654/19/9 655/19/9
f 602/106/33 601/104/33 633/104/33 634/106/33
f 589/82/20 588/80/20 620/80/20 621/82/20
f 603/108/34 602/106/34 634/106/34 635/108/34
f 590/84/21 589/82/21 621/82/21 622/84/21
f 604/110/35 603/108/35 635/108/35 636/110/35
f 591/19/22 590/84/22 622/84/22 623/19/22
f 605/112/36 604/110/36 636/110/36 637/112/36
f 592/87/23 591/19/23 623/19/23 624/87/23
f 606/114/37 605/112/37 637/112/37 638/114/37
f 593/89/24 592/87/24 624/87/24 625/89/24
f 580/65/11 579/64/11 611/64/11 612/65/11
f 607/116/38 606/114/38 638/114/38 639/116/38
f 594/91/25 593/89/25 625/89/25 626/91/25
f 581/67/12 580/65/12 612/65/12 613/67/12
f 608/117/39 607/116/39 639/116/39 640/117/39
f 595/93/26 594/91/26 626/91/26 627/93/26
f 582/69/13 581/67/13 613/67/13 614/69/13
f 609/119/40 608/117/40 640/117/40 641/119/40
f 596/95/27 595/93/27 627/93/27 628/95/27
f 583/71/14 582/69/14 614/69/14 615/71/14
f 610/122/41 609/119/41 641/119/41 642/122/41
f 597/97/28 596/95/28 628/95/28 629/97/28
f 584/72/15 583/71/15 615/71/15 616/72/15
f 579/124/42 610/122/42 642/122/42 611/124/42
f 598/99/29 597/97/29 629/97/29 630/99/29
f 585/74/16 584/72/16 616/72/16 617/74/16
f 599/20/30 598/99/30 630/99/30 631/20/30
f 586/76/17 585/74/17 617/74/17 618/76/17
f 600/102/31 599/20/31 631/20/31 632/102/31
f 587/78/18 586/76/18 618/76/18 619/78/18
f 601/104/32 600/102/32 632/102/32 633/104/32
f 658/91/25 657/89/25 689/89/25 690/91/25
f 637/112/9 636/110/9 668/112/9 669/112/9
f 624/87/9 623/19/9 655/87/9 656/87/9
f 638/114/9 637/112/9 669/114/9 670/114/9
f 625/89/9 624/87/9 656/89/9 657/89/9
f 612/65/9 611/64/9 643/64/9 644/65/9
f 639/116/9 638/114/9 670/116/9 671/116/9
f 626/91/9 625/89/9 657/181/9 658/91/9
f 613/67/9 612/65/9 644/65/9 645/67/9
f 640/117/9 639/116/9 671/117/9 672/117/9
f 627/93/9 626/91/9 658/182/9 659/93/9
f 614/69/9 613/69/9 645/67/9 646/69/9
f 641/119/9 640/117/9 672/119/9 673/119/9
f 628/95/9 627/93/9 659/93/9 660/95/9
f 615/71/9 614/71/9 646/69/9 647/71/9
f 642/122/9 641/119/9 673/183/9 674/122/9
f 629/97/9 628/95/9 660/95/9 661/97/9
f 616/72/9 615/72/9 647/71/9 648/72/9
f 611/124/9 642/122/9 674/184/9 643/124/9
f 630/99/9 629/99/9 661/97/9 662/99/9
f 617/74/9 616/74/9 648/72/9 649/74/9
f 631/20/9 630/20/9 662/99/9 663/20/9
f 618/76/9 617/76/9 649/74/9 650/76/9
f 632/102/9 631/102/9 663/20/9 664/102/9
f 619/78/9 618/78/9 650/76/9 651/78/9
f 633/104/9 632/104/9 664/102/9 665/104/9
f 620/80/9 619/78/9 651/185/9 652/80/9
f 634/106/9 633/106/9 665/104/9 666/106/9
f 621/82/9 620/80/9 652/82/9 653/82/9
f 635/108/9 634/108/9 666/106/9 667/108/9
f 622/84/9 621/82/9 653/186/9 654/84/9
f 636/110/9 635/108/9 667/110/9 668/110/9
f 693/97/43 692/95/43 724/95/43 725/97/43
f 645/67/12 644/65/12 676/65/12 677/67/12
f 672/117/39 671/116/39 703/116/39 704/117/39
f 659/93/26 658/91/26 690/91/26 691/93/26
f 646/69/13 645/67/13 677/67/13 678/69/13
f 673/119/40 672/117/40 704/117/40 705/119/40
f 660/95/27 659/93/27 691/93/27 692/95/27
f 647/71/14 646/69/14 678/69/14 679/71/14
f 674/122/41 673/119/41 705/119/41 706/122/41
f 661/97/28 660/95/28 692/95/28 693/97/28
f 648/72/15 647/71/15 679/71/15 680/72/15
f 643/124/42 674/122/42 706/122/42 675/124/42
f 662/99/29 661/97/29 693/97/29 694/99/29
f 649/74/16 648/72/16 680/72/16 681/74/16
f 663/20/30 662/99/30 694/99/30 695/20/30
f 650/76/17 649/74/17 681/74/17 682/76/17
f 664/102/31 663/20/31 695/20/31 696/102/31
f 651/78/18 650/76/18 682/76/18 683/78/18
f 665/104/32 664/102/32 696/102/32 697/104/32
f 652/80/19 651/78/19 683/78/19 684/80/19
f 666/106/33 665/104/33 697/104/33 698/106/33
f 653/82/20 652/80/20 684/80/20 685/82/20
f 667/108/34 666/106/34 698/106/34 699/108/34
f 654/84/21 653/82/21 685/82/21 686/84/21
f 668/110/35 667/108/35 699/108/35 700/110/35
f 655/19/22 654/84/22 686/84/22 687/19/22
f 669/112/36 668/110/36 700/110/36 701/112/36
f 656/87/23 655/19/23 687/19/23 688/87/23
f 670/114/37 669/112/37 701/112/37 702/114/37
f 657/89/24 656/87/24 688/87/24 689/89/24
f 644/65/11 643/64/11 675/64/11 676/65/11
f 671/116/38 670/114/38 702/114/38 703/116/38
f 728/102/31 727/20/31 759/20/31 760/102/31
f 680/72/44 679/71/44 711/71/44 712/72/44
f 675/124/45 706/122/45 738/122/45 707/124/45
f 694/99/46 693/97/46 725/97/46 726/99/46
f 681/74/47 680/72/47 712/72/47 713/74/47
f 695/20/48 694/99/48 726/99/48 727/20/48
f 682/76/49 681/74/49 713/74/49 714/76/49
f 696/102/50 695/20/50 727/20/50 728/102/50
f 683/78/51 682/76/51 714/76/51 715/78/51
f 697/104/52 696/102/52 728/102/52 729/104/52
f 684/80/53 683/78/53 715/78/53 716/80/53
f 698/106/54 697/104/54 729/104/54 730/106/54
f 685/82/55 684/80/55 716/80/55 717/82/55
f 699/108/56 698/106/56 730/106/56 731/108/56
f 686/84/57 685/82/57 717/82/57 718/84/57
f 700/110/58 699/108/58 731/108/58 732/110/58
f 687/19/59 686/84/59 718/84/59 719/19/59
f 701/112/60 700/110/60 732/110/60 733/112/60
f 688/87/61 687/19/61 719/19/61 720/87/61
f 702/114/62 701/112/62 733/112/62 734/114/62
f 689/89/63 688/87/63 720/87/63 721/89/63
f 676/65/64 675/64/64 707/64/64 708/65/64
f 703/116/65 702/114/65 734/114/65 735/116/65
f 690/91/66 689/89/66 721/89/66 722/91/66
f 677/67/67 676/65/67 708/65/67 709/67/67
f 704/117/68 703/116/68 735/116/68 736/117/68
f 691/93/69 690/91/69 722/91/69 723/93/69
f 678/69/70 677/67/70 709/67/70 710/69/70
f 705/119/71 704/117/71 736/117/71 737/119/71
f 692/95/72 691/93/72 723/93/72 724/95/72
f 679/71/73 678/69/73 710/69/73 711/71/73
f 706/122/74 705/119/74 737/119/74 738/122/74
f 763/108/75 762/106/75 794/106/75 795/108/75
f 715/78/18 714/76/18 746/76/18 747/78/18
f 729/104/32 728/102/32 760/102/32 761/104/32
f 716/80/19 715/78/19 747/78/19 748/80/19
f 730/106/33 729/104/33 761/104/33 762/106/33
f 717/82/20 716/80/20 748/80/20 749/82/20
f 731/108/34 730/106/34 762/106/34 763/108/34
f 718/84/21 717/82/21 749/82/21 750/84/21
f 732/110/35 731/108/35 763/108/35 764/110/35
f 719/19/22 718/84/22 750/84/22 751/19/22
f 733/112/36 732/110/36 764/110/36 765/112/36
f 720/87/23 719/19/23 751/19/23 752/87/23
f 734/114/37 733/112/37 765/112/37 766/114/37
f 721/89/24 720/87/24 752/87/24 753/89/24
f 708/65/11 707/64/11 739/64/11 740/65/11
f 735/116/38 734/114/38 766/114/38 767/116/38
f 722/91/25 721/89/25 753/89/25 754/91/25
f 709/67/12 708/65/12 740/65/12 741/67/12
f 736/117/39 735/116/39 767/116/39 768/117/39
f 723/93/26 722/91/26 754/91/26 755/93/26
f 710/69/13 709/67/13 741/67/13 742/69/13
f 737/119/40 736/117/40 768/117/40 769/119/40
f 724/95/27 723/93/27 755/93/27 756/95/27
f 711/71/14 710/69/14 742/69/14 743/71/14
f 738/122/41 737/119/41 769/119/41 770/122/41
f 725/97/28 724/95/28 756/95/28 757/97/28
f 712/72/15 711/71/15 743/71/15 744/72/15
f 707/124/42 738/122/42 770/122/42 739/124/42
f 726/99/29 725/97/29 757/97/29 758/99/29
f 713/74/16 712/72/16 744/72/16 745/74/16
f 727/20/30 726/99/30 758/99/30 759/20/30
f 714/76/17 713/74/17 745/74/17 746/76/17
f 798/114/37 797/112/37 829/112/37 830/114/37
f 750/84/76 749/82/76 781/82/76 782/84/76
f 764/110/77 763/108/77 795/108/77 796/110/77
f 751/19/78 750/84/78 782/84/78 783/19/78
f 765/112/79 764/110/79 796/110/79 797/112/79
f 752/87/80 751/19/80 783/19/80 784/87/80
f 766/114/81 765/112/81 797/112/81 798/114/81
f 753/89/82 752/87/82 784/87/82 785/89/82
f 740/65/83 739/64/83 771/64/83 772/65/83
f 767/116/84 766/114/84 798/114/84 799/116/84
f 754/91/85 753/89/85 785/89/85 786/91/85
f 741/67/86 740/65/86 772/65/86 773/67/86
f 768/117/87 767/116/87 799/116/87 800/117/87
f 755/93/88 754/91/88 786/91/88 787/93/88
f 742/69/89 741/67/89 773/67/89 774/69/89
f 769/119/90 768/117/90 800/117/90 801/119/90
f 756/95/91 755/93/91 787/93/91 788/95/91
f 743/71/92 742/69/92 774/69/92 775/71/92
f 770/122/93 769/119/93 801/119/93 802/122/93
f 757/97/94 756/95/94 788/95/94 789/97/94
f 744/72/95 743/71/95 775/71/95 776/72/95
f 739/124/96 770/122/96 802/122/96 771/124/96
f 758/99/97 757/97/97 789/97/97 790/99/97
f 745/74/98 744/72/98 776/72/98 777/74/98
f 759/20/99 758/99/99 790/99/99 791/20/99
f 746/76/100 745/74/100 777/74/100 778/76/100
f 760/102/101 759/20/101 791/20/101 792/102/101
f 747/78/102 746/76/102 778/76/102 779/78/102
f 761/104/103 760/102/103 792/102/103 793/104/103
f 748/80/104 747/78/104 779/78/104 780/80/104
f 762/106/105 761/104/105 793/104/105 794/106/105
f 749/82/106 748/80/106 780/80/106 781/82/106
f 829/187/9 828/188/9 827/189/9 826/188/9 825/187/9 824/190/9 823/191/9 822/192/9 821/193/9 820/194/9 819/195/9 818/196/9 817/197/9 816/198/9 815/199/9 814/200/9 813/201/9 812/202/9 811/203/9 810/202/9 809/201/9 808/200/9 807/199/9 806/198/9 805/197/9 804/196/9 803/195/9 834/194/9 833/193/9 832/192/9 831/191/9 830/190/9
f 785/89/24 784/87/24 816/87/24 817/89/24
f 772/65/11 771/64/11 803/64/11 804/65/11
f 799/116/38 798/114/38 830/114/38 831/116/38
f 786/91/25 785/89/25 817/89/25 818/91/25
f 773/67/12 772/65/12 804/65/12 805/67/12
f 800/117/39 799/116/39 831/116/39 832/117/39
f 787/93/26 786/91/26 818/91/26 819/93/26
f 774/69/13 773/67/13 805/67/13 806/69/13
f 801/119/40 800/117/40 832/117/40 833/119/40
f 788/95/27 787/93/27 819/93/27 820/95/27
f 775/71/14 774/69/14 806/69/14 807/71/14
f 802/122/41 801/119/41 833/119/41 834/122/41
f 789/97/28 788/95/28 820/95/28 821/97/28
f 776/72/15 775/71/15 807/71/15 808/72/15
f 771/124/42 802/122/42 834/122/42 803/124/42
f 790/99/29 789/97/29 821/97/29 822/99/29
f 777/74/16 776/72/16 808/72/16 809/74/16
f 791/20/30 790/99/30 822/99/30 823/20/30
f 778/76/17 777/74/17 809/74/17 810/76/17
f 792/102/31 791/20/31 823/20/31 824/102/31
f 779/78/18 778/76/18 810/76/18 811/78/18
f 793/104/32 792/102/32 824/102/32 825/104/32
f 780/80/19 779/78/19 811/78/19 812/80/19
f 794/106/33 793/104/33 825/104/33 826/106/33
f 781/82/20 780/80/20 812/80/20 813/82/20
f 795/108/34 794/106/34 826/106/34 827/108/34
f 782/84/21 781/82/21 813/82/21 814/84/21
f 796/110/35 795/108/35 827/108/35 828/110/35
f 783/19/22 782/84/22 814/84/22 815/19/22
f 797/112/36 796/110/36 828/110/36 829/112/36
f 784/87/23 783/19/23 815/19/23 816/87/23
